<svg width="40" height="40" viewBox="0 0 40 40" fill="none" xmlns="http://www.w3.org/2000/svg">
<path d="M17.6407 22.894L17.1158 25.571L18.4368 32.2814L17.8917 32.3887L16.5995 25.8243H14.8475L13.5553 32.3887L13.0103 32.2814L14.3313 25.5705L13.858 22.8888L14.4051 22.7923L14.8422 25.2687H16.609L17.0955 22.7871L17.6407 22.894Z" fill="#DD2B1C"/>
<path fill-rule="evenodd" clip-rule="evenodd" d="M8.46667 3.69006L8.46781 3.6836C8.48833 3.56787 8.52507 3.40657 8.59043 3.21634C8.72121 2.83573 8.96727 2.33756 9.42816 1.8588C10.3583 0.892606 12.1089 0.0588817 15.3748 0.328787L15.3764 0.328922C17.5107 0.518034 18.8186 1.01994 19.8296 1.53906C20.1276 1.6921 20.4111 1.85318 20.6752 2.00318C20.8432 2.09866 21.0036 2.18975 21.1545 2.27132C21.557 2.48877 21.9389 2.66597 22.3717 2.77726C23.0335 2.94885 23.5952 2.88738 23.9898 2.78418C24.1873 2.73252 24.3427 2.6705 24.447 2.62242C24.4991 2.5984 24.5382 2.57796 24.5633 2.56419C24.5758 2.5573 24.5848 2.55209 24.5901 2.54895L24.595 2.54602L24.5958 2.54555L24.9328 2.33269L25.015 2.72387C25.015 2.7237 25.015 2.72387 24.7432 2.781L25.015 2.72387L25.0152 2.72469L25.0155 2.72617L25.0165 2.73113L25.02 2.74885C25.023 2.76408 25.0272 2.78606 25.0322 2.81435C25.0423 2.87093 25.056 2.95279 25.0708 3.05633C25.1004 3.26331 25.1345 3.55761 25.1532 3.91032C25.1906 4.61358 25.1676 5.55975 24.9191 6.51212C24.7183 7.28198 24.3677 8.06455 23.7755 8.72368C23.9699 9.40381 24.0662 10.1294 24.0662 10.8991C24.0662 15.5106 20.3327 19.1886 15.7766 19.1886C11.2336 19.1886 7.45366 15.478 7.4341 10.9345C7.42933 10.9154 7.4226 10.8881 7.41416 10.8533C7.39637 10.7801 7.37099 10.6735 7.34042 10.5395C7.2793 10.2716 7.19731 9.89342 7.11365 9.45168C6.94683 8.57086 6.77123 7.4264 6.74412 6.39625C6.7151 5.2934 7.1844 4.59351 7.66952 4.17556C7.90867 3.96952 8.14884 3.83396 8.32937 3.74965C8.37996 3.72602 8.42615 3.70629 8.46667 3.69006ZM23.3091 9.17255L23.317 9.166C23.4457 9.7089 23.5106 10.2863 23.5106 10.8991C23.5106 15.2014 20.0282 18.6331 15.7766 18.6331C11.7002 18.6331 8.28402 15.4303 8.00763 11.4236L9.20967 12.2075V8.64696L11.1198 9.86729V7.52072C11.3988 7.83903 11.8039 8.22478 12.3708 8.60863C13.6957 9.50565 15.887 10.3808 19.3843 10.3808C21.1598 10.3808 22.4238 9.9085 23.3091 9.17255ZM7.95493 10.726L8.65411 11.182V7.63276L10.5642 8.8531V5.42651L11.0922 6.53369L11.0944 6.53809L11.097 6.54306C11.0992 6.54738 11.1023 6.55315 11.1062 6.5603C11.1175 6.5811 11.1359 6.61358 11.1622 6.65609C11.2149 6.74111 11.2994 6.86622 11.4226 7.01823C11.6688 7.32206 12.07 7.73404 12.6823 8.14861C13.9043 8.97597 15.9841 9.82523 19.3843 9.82523C21.0576 9.82523 22.1878 9.38226 22.954 8.74534C23.7227 8.10631 24.1528 7.24884 24.3815 6.37189C24.6106 5.49376 24.634 4.60942 24.5984 3.9398C24.5824 3.63736 24.5544 3.38091 24.5287 3.1915C24.4184 3.23529 24.2847 3.28128 24.1303 3.32166C23.6628 3.44395 23.0037 3.51497 22.2331 3.31526C21.7375 3.1878 21.3103 2.98697 20.8904 2.76009C20.7154 2.66553 20.5481 2.57031 20.3784 2.47372C20.1272 2.33073 19.8704 2.18456 19.5758 2.03326C18.6237 1.54434 17.385 1.06474 15.3282 0.882387C12.1746 0.62192 10.6093 1.43292 9.82839 2.2441C9.43372 2.65407 9.22548 3.07778 9.11583 3.39687C9.06099 3.55649 9.03098 3.6895 9.01483 3.78061C9.00675 3.82612 9.00216 3.86103 8.99966 3.88339C8.9984 3.89456 8.99767 3.90258 8.99729 3.90721L8.99696 3.91155L8.9859 4.11053L8.79377 4.16293L8.79236 4.16333L8.7826 4.16629C8.77311 4.16924 8.75784 4.17419 8.73763 4.18138C8.69715 4.19579 8.63721 4.21904 8.56444 4.25302C8.41834 4.32125 8.22409 4.43108 8.03214 4.59645C7.65507 4.92131 7.27545 5.46829 7.29948 6.38164C7.32543 7.36769 7.49471 8.4782 7.6595 9.3483C7.74164 9.78201 7.82215 10.1533 7.88206 10.4159C7.91201 10.5472 7.93679 10.6513 7.95403 10.7222L7.95493 10.726Z" fill="white"/>
<path fill-rule="evenodd" clip-rule="evenodd" d="M20.87 32.0569C20.7266 32.0569 20.6065 32.1258 20.5277 32.2045C20.4489 32.2833 20.38 32.4035 20.38 32.5469V34.6692C20.38 34.8126 20.4489 34.9327 20.5277 35.0115C20.6065 35.0903 20.7266 35.1592 20.87 35.1592H24.2657C24.4091 35.1592 24.5293 35.0903 24.608 35.0115C24.6868 34.9327 24.7557 34.8126 24.7557 34.6692V32.4813L24.7264 32.4226L24.7222 32.4142C24.6989 32.3675 24.6596 32.2885 24.6051 32.2231C24.5396 32.1445 24.4285 32.0569 24.2657 32.0569H22.7926V31.115H22.2371V32.0569H20.87ZM22.2371 32.6124H20.9355V34.6036H24.2002V32.614L24.1993 32.6124H22.7926V33.1843H22.2371V32.6124Z" fill="white"/>
<path fill-rule="evenodd" clip-rule="evenodd" d="M7.82647 23.2483C13.1086 22.3947 18.3382 22.3947 23.6203 23.2483L23.6216 23.2485C27.9509 23.9701 31.0696 28.9188 31.0696 34.6647V39.7177H0.430176V34.6647C0.430176 31.7778 1.21229 29.1115 2.52371 27.0731C3.83447 25.0356 5.68594 23.6097 7.82454 23.2486L7.82647 23.2483ZM7.91609 23.7966C5.9696 24.1256 4.24002 25.432 2.99093 27.3736C1.7423 29.3145 0.985731 31.8745 0.985731 34.6647V39.1622H4.78103V33.8754H5.33659V39.1622H15.3925V36.495L8.07739 23.7708C8.02363 23.7793 7.96986 23.7879 7.91609 23.7966ZM8.66663 23.6811L15.6729 35.8681L22.8235 23.6874C18.0911 22.9911 13.3988 22.989 8.66663 23.6811ZM15.9481 39.1622V36.4967L23.4146 23.778L23.531 23.7967C27.4784 24.455 30.5141 29.0565 30.5141 34.6647V39.1622H26.6126V33.8754H26.0571V39.1622H15.9481Z" fill="white"/>
</svg>
