<svg width="40" height="40" viewBox="0 0 40 40" fill="none" xmlns="http://www.w3.org/2000/svg">
<path fill-rule="evenodd" clip-rule="evenodd" d="M4.08301 4.14453H24.083V12.377H4.08301V4.14453ZM4.63856 4.70009V11.8214H23.5275V4.70009H4.63856Z" fill="#DD2B1C"/>
<path fill-rule="evenodd" clip-rule="evenodd" d="M4.08268 15.5204V21.2873H9.56939V15.5204H4.08268ZM4.63824 20.7317V16.076H9.01384V20.7317H4.63824Z" fill="white"/>
<path fill-rule="evenodd" clip-rule="evenodd" d="M11.3673 15.5204H16.854V21.2873H11.3673V15.5204ZM11.9229 16.076V20.7317H16.2984V16.076H11.9229Z" fill="white"/>
<path fill-rule="evenodd" clip-rule="evenodd" d="M18.596 15.5204V21.2873H24.0827V15.5204H18.596ZM19.1516 20.7317V16.076H23.5272V20.7317H19.1516Z" fill="white"/>
<path fill-rule="evenodd" clip-rule="evenodd" d="M4.08268 22.747H9.56939V28.5138H4.08268V22.747ZM4.63824 23.3025V27.9583H9.01384V23.3025H4.63824Z" fill="white"/>
<path fill-rule="evenodd" clip-rule="evenodd" d="M11.3673 22.747V28.5138H16.854V22.747H11.3673ZM11.9229 27.9583V23.3025H16.2984V27.9583H11.9229Z" fill="white"/>
<path fill-rule="evenodd" clip-rule="evenodd" d="M18.596 22.747H24.0827V28.5138H18.596V22.747ZM19.1516 23.3025V27.9583H23.5272V23.3025H19.1516Z" fill="white"/>
<path fill-rule="evenodd" clip-rule="evenodd" d="M4.08268 30.0343V35.8012H9.56939V30.0343H4.08268ZM4.63824 35.2456V30.5898H9.01384V35.2456H4.63824Z" fill="white"/>
<path fill-rule="evenodd" clip-rule="evenodd" d="M11.3673 30.0343H16.854V35.8012H11.3673V30.0343ZM11.9229 30.5898V35.2456H16.2984V30.5898H11.9229Z" fill="white"/>
<path fill-rule="evenodd" clip-rule="evenodd" d="M18.596 30.0343V35.8012H24.0827V30.0343H18.596ZM19.1516 35.2456V30.5898H23.5272V35.2456H19.1516Z" fill="white"/>
<path fill-rule="evenodd" clip-rule="evenodd" d="M2.45522 0.277344C1.18109 0.277344 0.160156 1.29828 0.160156 2.57241V37.4267C0.160156 38.7008 1.18109 39.7218 2.45522 39.7218H25.8222C27.0963 39.7218 28.1172 38.7008 28.1172 37.4267V2.57241C28.1172 1.29828 27.0963 0.277344 25.8222 0.277344H2.45522ZM0.715712 2.57241C0.715712 1.60511 1.48792 0.832899 2.45522 0.832899H25.8222C26.7895 0.832899 27.5617 1.60511 27.5617 2.57241V37.4267C27.5617 38.394 26.7895 39.1662 25.8222 39.1662H2.45522C1.48792 39.1662 0.715712 38.394 0.715712 37.4267V2.57241Z" fill="white"/>
</svg>
