<svg width="40" height="40" viewBox="0 0 40 40" fill="none" xmlns="http://www.w3.org/2000/svg">
<path fill-rule="evenodd" clip-rule="evenodd" d="M13.3794 1.51953H39.7222V38.2604H13.3794V27.2726H13.935V37.7048H19.1501V31.9839H39.1666V2.07509H13.935V12.5593H13.3794V1.51953ZM39.1666 32.5395H19.7056V34.8485H39.1666V32.5395ZM19.7056 37.7048V35.4041H29.1324V37.7048H19.7056ZM29.688 37.7048H39.1666V35.4041H29.688V37.7048Z" fill="white"/>
<path fill-rule="evenodd" clip-rule="evenodd" d="M26.8286 6.01172V10.2666C28.0844 10.3582 29.1984 11.0667 30.0072 12.1328C30.875 13.2768 31.4037 14.8447 31.4037 16.5652C31.4037 18.2856 30.875 19.8536 30.0072 20.9975C29.1984 22.0637 28.0844 22.7721 26.8286 22.8637V27.116H26.273V22.8637C25.0171 22.7721 23.9031 22.0637 23.0943 20.9975C22.2265 19.8536 21.6978 18.2856 21.6978 16.5652C21.6978 14.8447 22.2265 13.2768 23.0943 12.1328C23.9031 11.0666 25.0171 10.3582 26.273 10.2666V6.01172H26.8286ZM26.273 14.6421V10.824C25.2229 10.9143 24.2614 11.5136 23.5369 12.4686C22.7489 13.5074 22.2534 14.9548 22.2534 16.5652C22.2534 18.1755 22.7489 19.623 23.5369 20.6618C24.2614 21.6168 25.2229 22.2161 26.273 22.3064V18.4336H26.8286V22.3064C27.8787 22.216 28.8401 21.6167 29.5646 20.6618C30.3526 19.623 30.8481 18.1755 30.8481 16.5652C30.8481 14.9548 30.3526 13.5074 29.5646 12.4686C28.8401 11.5136 27.8787 10.9143 26.8286 10.824V14.6421H26.273Z" fill="white"/>
<path d="M35.233 25.0569H29.93V24.5013H35.233V25.0569Z" fill="white"/>
<path d="M29.93 26.6628H32.6335V26.1072H29.93V26.6628Z" fill="white"/>
<path fill-rule="evenodd" clip-rule="evenodd" d="M6.56852 4.65854C6.56852 3.67329 7.36876 2.87305 8.35402 2.87305C9.33927 2.87305 10.1395 3.67329 10.1395 4.65854V10.0028C13.7806 11.0296 16.4306 15.1645 16.4306 19.991C16.4306 24.792 13.8038 28.8897 10.1395 29.9394V35.4362C10.1395 36.4673 9.3454 37.2737 8.35402 37.2737C7.36876 37.2737 6.56852 36.4735 6.56852 35.4882V29.9431C2.95575 28.8927 0.277832 24.7976 0.277832 19.9954C0.277832 15.1946 2.90445 11.097 6.56852 10.0471V4.65854ZM8.35402 3.4286C7.67558 3.4286 7.12408 3.98011 7.12408 4.65854V16.4084C7.12408 17.0868 7.67558 17.6383 8.35402 17.6383C9.02633 17.6383 9.58396 17.093 9.58396 16.3564V4.65854C9.58396 3.98011 9.03245 3.4286 8.35402 3.4286ZM6.56852 29.3623V26.8668C4.65302 25.8072 3.34532 23.1452 3.34532 20.0965C3.34532 17.0551 4.64828 14.3391 6.56852 13.3223V10.6272C3.28647 11.6612 0.833388 15.434 0.833388 19.9954C0.833388 24.5526 3.33159 28.3259 6.56852 29.3623ZM6.56852 26.2165V23.7384C6.56852 22.7531 7.36876 21.9529 8.35402 21.9529C9.33927 21.9529 10.1395 22.7531 10.1395 23.7384V26.2272C11.6775 25.2341 12.8076 22.8731 12.8076 20.0965C12.8076 17.3266 11.6816 15.0056 10.1395 13.9761V16.3564C10.1395 17.3874 9.3454 18.1939 8.35402 18.1939C7.36876 18.1939 6.56852 17.3936 6.56852 16.4084V13.9661C5.03074 14.9593 3.90088 17.3201 3.90088 20.0965C3.90088 22.8661 5.02662 25.1869 6.56852 26.2165ZM10.1395 26.8709V29.3593C13.4218 28.3255 15.875 24.5526 15.875 19.991C15.875 15.4003 13.3969 11.5952 10.1395 10.5823V13.3259C12.0553 14.3853 13.3632 17.0476 13.3632 20.0965C13.3632 23.1381 12.06 25.8543 10.1395 26.8709ZM7.12408 23.7384C7.12408 23.06 7.67558 22.5085 8.35402 22.5085C9.03245 22.5085 9.58396 23.06 9.58396 23.7384V35.4362C9.58396 36.1729 9.02633 36.7182 8.35402 36.7182C7.67558 36.7182 7.12408 36.1667 7.12408 35.4882V23.7384Z" fill="#DD2B1C"/>
</svg>
