<svg width="96" height="30" viewBox="0 0 96 30" fill="none" xmlns="http://www.w3.org/2000/svg">
<g clip-path="url(#clip0_3358_72143)">
<path fill-rule="evenodd" clip-rule="evenodd" d="M20.1825 12.5009C20.8906 12.4841 21.4639 12.4841 22.1552 12.5009V14.2339C22.1383 15.2098 22.1552 16.1857 22.1552 17.1784C22.4755 17.1952 22.7959 17.1952 23.1162 17.1784C23.3354 17.1279 23.4029 16.8924 23.4029 16.7073V13.8638V12.5346L25.4093 12.5177C25.1901 12.8038 25.0215 13.4431 25.089 13.9311C25.1058 14.8565 25.0889 15.7651 25.1058 16.6905C25.1058 16.926 25.1227 17.1616 25.0215 17.3803C24.9541 17.5822 24.7686 17.7168 24.6168 17.8514C24.6 17.9356 24.7012 17.9524 24.7349 17.986C25.0721 18.1879 25.2407 18.5749 25.2576 18.9451C25.2744 19.8705 25.1395 22.0915 25.3419 22.8823C25.3587 23.0674 25.3924 23.2693 25.4599 23.4375C25.5105 23.6058 25.6116 23.7404 25.6454 23.9086C24.9372 23.9086 24.2459 23.9086 23.5378 23.9086L23.504 23.875C23.4872 22.428 23.504 20.981 23.504 19.534C23.4535 19.2648 23.4872 18.9451 23.2511 18.76C22.9476 18.5413 22.543 18.6254 22.1889 18.6086C22.1889 19.9546 22.172 21.3007 22.1889 22.6467C22.172 23.0842 22.2901 23.5217 22.5261 23.9086L20.0813 23.875C20.4017 23.4207 20.486 22.8655 20.486 22.3439C20.486 19.5172 20.486 16.6905 20.486 13.8638C20.5028 13.4095 20.4185 12.9215 20.1825 12.5009Z" fill="#DD2B1C"/>
<path fill-rule="evenodd" clip-rule="evenodd" d="M43.0962 12.4677C43.8718 12.4509 44.6474 12.4509 45.423 12.4677C45.2038 13.1575 45.1026 13.0734 45.0858 13.9315V17.2125H46.3335C46.3503 16.3039 46.3335 15.3953 46.3503 14.4868C46.3503 14.0661 46.3841 13.6287 46.2829 13.208C46.2492 12.9556 46.148 12.7369 46.0468 12.5013C46.7887 12.5013 47.5306 12.5013 48.2725 12.5013C48.087 12.8883 47.9858 13.309 47.9858 13.7296C47.9858 13.9988 47.9858 14.2849 47.9858 14.5541V22.1088C48.0027 22.6303 47.9353 23.2192 48.2556 23.6735C48.3062 23.7408 48.3568 23.825 48.4074 23.8923H48.3736C47.5643 23.9091 46.7719 23.8923 45.9625 23.8923C46.2829 23.4212 46.3503 22.8491 46.3503 22.2938V18.5586H45.1026C45.0858 19.8373 45.1026 21.116 45.1026 22.3948C45.0858 22.9164 45.1869 23.4548 45.4904 23.8923C44.6811 23.8923 43.8887 23.8923 43.0793 23.8923C43.4503 23.337 43.3997 22.9669 43.4334 22.3443L43.4166 13.982C43.3491 13.2417 43.3154 13.1239 43.0962 12.4677Z" fill="#DD2B1C"/>
<path fill-rule="evenodd" clip-rule="evenodd" d="M54.8985 12.4844C55.6404 12.4844 56.3823 12.4844 57.1242 12.4844C57.0567 12.6526 56.9893 12.8041 56.9556 12.9723C56.9556 12.9891 56.9387 13.0396 56.9387 13.0564C56.787 13.4266 56.8375 13.8304 56.8375 14.2174C56.8375 16.7917 56.8375 19.366 56.8375 21.9403C56.8375 22.3442 56.787 22.7648 56.9218 23.1518C56.9387 23.2696 56.9724 23.3705 57.023 23.4883C57.0736 23.6229 57.1579 23.7575 57.2253 23.8921C56.416 23.8921 55.5898 23.8921 54.7805 23.8921C55.1009 23.522 55.1852 23.0172 55.1852 22.5461C55.1852 19.7362 55.1852 16.9263 55.1852 14.1165C55.1852 13.8136 55.202 13.5107 55.1346 13.2079C55.084 12.9555 54.9828 12.7199 54.8985 12.4844Z" fill="#DD2B1C"/>
<path fill-rule="evenodd" clip-rule="evenodd" d="M63.8348 12.4844H61.6935L59.7714 19.2819V13.7799C59.7714 13.3425 59.8726 12.905 60.058 12.5012H57.9841C58.1359 12.8714 58.2539 13.2752 58.2371 13.679V22.1086C58.2371 22.7143 58.2539 23.3537 57.9673 23.9089C58.6249 23.9258 59.215 23.9089 59.8726 23.9089L61.9802 16.4889V23.2191C61.9464 23.4715 61.8453 23.707 61.7104 23.9089H63.9529C63.5988 23.4546 63.5482 22.8658 63.5145 22.3105V13.8809C63.5482 13.1742 63.5819 13.1069 63.8348 12.4844Z" fill="#DD2B1C"/>
<path fill-rule="evenodd" clip-rule="evenodd" d="M28.2586 14.0331C28.2755 15.5642 28.2586 17.0953 28.2755 18.6096C28.5621 18.6769 28.8825 18.6601 29.1691 18.5592C29.4389 18.4582 29.5906 18.1722 29.5737 17.8861C29.5737 16.9102 29.5737 15.9512 29.5737 14.9753C29.5737 14.622 29.6075 14.1172 29.2197 13.9489C29.1691 13.9153 29.1185 13.8816 29.0511 13.8816C28.8656 13.747 28.6127 13.7975 28.3935 13.7975C28.2755 13.7975 28.2417 13.9321 28.2586 14.0331ZM26.4039 12.5019C27.1289 12.4851 27.8539 12.5019 28.579 12.4851C28.8825 12.4683 29.2028 12.5356 29.5063 12.5356C29.8267 12.6029 30.1639 12.687 30.4505 12.8553C30.754 13.0404 30.9395 13.3601 31.0575 13.6966C31.2261 14.3191 31.2261 14.9921 31.2092 15.6315C31.2092 16.3718 31.2092 17.1122 31.2092 17.8357C31.2092 18.1217 31.1587 18.4077 31.1249 18.6938C31.0575 19.0639 30.8214 19.3668 30.5348 19.5855C30.0796 19.8547 29.5569 19.9389 29.0342 19.9557C28.7644 19.9557 28.5115 19.922 28.2586 19.9893C28.2586 20.7801 28.2586 21.5541 28.2586 22.3449C28.2586 22.6478 28.326 22.9506 28.3766 23.2535C28.4272 23.489 28.5452 23.691 28.6801 23.8929C27.8877 23.9097 27.0783 23.9097 26.2859 23.8929C26.4039 23.691 26.5051 23.4722 26.5725 23.2535C26.6905 22.816 26.6737 22.3617 26.6737 21.9074C26.6737 19.2322 26.6737 16.5569 26.6737 13.8816C26.6737 13.4105 26.5557 12.9394 26.4039 12.5019Z" fill="#DD2B1C"/>
<path fill-rule="evenodd" clip-rule="evenodd" d="M51.3746 22.5621C51.3578 20.9637 51.3915 19.8532 51.3915 18.2548C51.9479 18.1202 52.656 18.238 52.6223 18.9446V21.9732C52.5886 22.2088 52.4369 22.4444 52.1839 22.5117C51.931 22.5958 51.6444 22.579 51.3746 22.5621ZM49.4525 23.9082C50.245 23.925 51.0205 23.9082 51.813 23.9082C53.263 23.925 54.3084 23.4371 54.3084 21.7882C54.3084 20.6104 54.3421 19.9205 54.3421 18.7427C54.3421 17.5649 53.5328 17.0097 52.4706 16.9087H51.4083V13.6446C51.4589 13.0052 51.6107 12.6855 51.7624 12.4668H49.3345C49.5874 12.9547 49.6885 12.9884 49.7223 13.5941V22.9996C49.6885 23.3361 49.5874 23.639 49.4525 23.9082Z" fill="#DD2B1C"/>
<path fill-rule="evenodd" clip-rule="evenodd" d="M62.4017 9.58984C62.3343 10.0778 61.8116 10.4816 61.036 10.4816C60.2604 10.4816 59.822 10.061 59.7377 9.58984L59.0801 9.6908C59.0633 11.0368 59.7883 11.693 61.036 11.693C62.2837 11.693 63.0593 11.0705 63.0424 9.6908L62.4017 9.58984Z" fill="#DD2B1C"/>
<path fill-rule="evenodd" clip-rule="evenodd" d="M33.7721 15.1096L33.2157 20.1405C33.654 20.1405 34.0924 20.1405 34.5139 20.1405L33.8732 15.1096H33.7721ZM32.2209 12.4512H35.4413C35.1546 13.1074 35.3064 13.3598 35.357 14.0328L36.4023 22.0922C36.5035 22.7316 36.5035 23.3878 36.9419 23.9262H34.7668C34.868 23.7411 34.8849 23.6065 34.868 23.3878L34.6657 21.5202H33.0133L32.8616 23.4214C32.8447 23.6738 32.9627 23.7916 33.0639 23.9262H30.9395C31.1924 23.5392 31.3104 22.8494 31.3947 22.1427L32.3389 13.7804C32.4063 13.2925 32.4063 12.8382 32.2209 12.4512Z" fill="#DD2B1C"/>
<path fill-rule="evenodd" clip-rule="evenodd" d="M39.4541 12.334H40.3309C41.2751 12.3845 41.8484 12.7714 42.0507 13.6969C42.1181 14.1343 42.1518 15.0934 42.1518 15.5645C42.1518 15.9178 42.2699 16.2712 42.4722 16.574H40.196C40.3309 16.3553 40.432 16.1029 40.432 15.8505C40.4489 15.3794 40.4489 14.8915 40.432 14.4204C40.3815 13.5118 39.4541 13.6296 39.3024 14.0838C39.2349 14.2184 39.2349 14.454 39.2349 14.7064V21.79C39.2349 22.0255 39.2518 22.2947 39.4204 22.4798C39.5722 22.6481 39.8251 22.6312 40.0443 22.6144C40.3309 22.5135 40.4152 22.1938 40.432 21.9414C40.4489 21.5039 40.4489 21.0665 40.432 20.629C40.432 20.1579 40.4152 19.9223 40.2466 19.5522H42.371C42.2699 19.8214 42.1856 20.3934 42.1687 20.6963C42.1013 21.6217 42.3373 22.7827 41.5449 23.4893C41.2076 23.8259 40.7861 23.9605 40.3309 24.0614C39.9768 24.0782 39.6227 24.0782 39.2855 24.0614C38.139 23.8932 37.6837 23.1528 37.532 22.1265C37.5151 21.2347 37.5151 20.3261 37.5151 19.4344V14.555C37.532 14.2521 37.4983 14.0165 37.6163 13.6296C37.8186 12.721 38.5268 12.334 39.4541 12.334Z" fill="#DD2B1C"/>
<path fill-rule="evenodd" clip-rule="evenodd" d="M81.5386 13.8812C81.4712 14.0158 81.4712 14.1672 81.4543 14.3186V21.8901C81.488 22.479 81.8421 22.9333 82.4491 22.5968C82.6852 22.3781 82.702 22.0247 82.7189 21.7219V14.3523C82.7189 14.0999 82.7357 14.0326 82.6346 13.8475C82.3985 13.4942 81.7578 13.4437 81.5386 13.8812ZM81.6398 12.2827C82.2131 12.2827 82.8369 12.2491 83.3765 12.5015C84.523 13.0735 84.3375 14.5374 84.3375 15.6142V21.7892C84.2195 23.1857 83.916 23.9092 82.3479 24.0102C80.763 24.0606 79.9537 23.64 79.8525 21.9911V14.3355C79.9031 13.1913 80.2572 12.3837 81.6398 12.2827Z" fill="#DD2B1C"/>
<path fill-rule="evenodd" clip-rule="evenodd" d="M70.8827 13.7809L70.8489 17.6676C70.6972 17.6676 69.6518 17.8863 69.635 17.146V14.2352C69.6687 13.9996 69.871 13.7977 70.1071 13.7809H70.8827ZM72.8048 12.4685H71.1018C70.36 12.4685 69.6855 12.418 68.9774 12.6199C68.7076 12.7041 68.4884 12.906 68.3367 13.1415C68.0669 13.5622 68.0332 14.0838 68.0332 14.5549C68.0332 15.1942 68.0332 16.2879 68.0332 16.9273C68.0332 17.2133 68.0669 17.5162 68.1512 17.7854C68.2187 18.0041 68.421 18.1387 68.5727 18.2901C67.9152 18.879 67.9657 18.9632 67.8983 19.8381C67.8814 20.9318 67.9152 21.5543 67.8814 22.6311C67.8477 23.0181 67.7465 23.5229 67.5105 23.8594L69.5844 23.8762C69.5844 22.4965 69.5844 21.5711 69.5844 20.1914C69.6012 19.5857 69.4663 19.0136 70.2419 19.0136H70.8658L70.8995 22.0086C70.8995 22.648 70.8658 23.2873 70.596 23.8762C71.3716 23.8931 72.1303 23.8931 72.9059 23.8762C72.7542 23.5734 72.6193 23.2705 72.5856 22.934L72.5519 13.7304C72.5181 13.2761 72.6193 12.8723 72.8048 12.4685Z" fill="#DD2B1C"/>
<path fill-rule="evenodd" clip-rule="evenodd" d="M87.3895 13.7969L87.3557 13.8137C87.322 13.982 87.3389 14.1502 87.3389 14.3185C87.3389 15.6813 87.3389 17.061 87.3389 18.4239C87.322 18.508 87.3895 18.609 87.4738 18.609C87.7435 18.6258 88.0133 18.6258 88.2662 18.5249C88.5191 18.4239 88.6709 18.1547 88.6709 17.8855C88.6709 16.876 88.6709 15.8833 88.6709 14.8737C88.654 14.6213 88.6877 14.3521 88.5697 14.1334C88.4854 13.9651 88.3168 13.8474 88.1313 13.8137C87.8784 13.7801 87.6255 13.7296 87.3895 13.7969ZM85.4505 12.4508C86.2261 12.434 87.0017 12.4508 87.7773 12.4508C88.418 12.4508 89.0924 12.5181 89.6319 12.8715C89.9354 13.0734 90.1041 13.4267 90.2052 13.7632C90.2558 14.1839 90.3232 14.6045 90.3064 15.0252C90.3064 15.9169 90.3064 16.7918 90.3064 17.6836C90.3064 18.0033 90.3064 18.323 90.2221 18.6258C90.0703 19.1642 89.6657 19.6522 89.1093 19.7868C88.7721 19.8877 88.418 19.9382 88.0808 19.9214C87.8784 19.9214 87.6592 19.8877 87.4569 19.9382C87.3389 19.9719 87.3557 20.1065 87.3557 20.2074C87.3557 20.9646 87.3557 21.7217 87.3557 22.4621C87.3557 22.9668 87.4906 23.4548 87.7436 23.8922C86.968 23.9091 86.1755 23.9091 85.3999 23.8922C85.5854 23.5557 85.7203 23.1687 85.7371 22.7817C85.7708 22.6303 85.8046 22.4789 85.8046 22.3106C85.8046 19.7868 85.8046 17.263 85.8046 14.7391C85.8046 14.3017 85.8383 13.8474 85.7203 13.4267C85.7034 13.0566 85.5854 12.7537 85.4505 12.4508Z" fill="#DD2B1C"/>
<path fill-rule="evenodd" clip-rule="evenodd" d="M92.8353 22.5465C92.8185 20.9481 92.8522 19.8376 92.8522 18.2392C93.4086 18.1046 94.1167 18.2223 94.083 18.929V21.9576C94.0493 22.1932 93.8807 22.4287 93.6446 22.496C93.3749 22.5802 93.1051 22.5633 92.8353 22.5465ZM90.8963 23.8926C91.6888 23.9094 92.4644 23.8926 93.2568 23.8926C94.7068 23.9094 95.7522 23.4215 95.7522 21.7725C95.7522 20.5948 95.7859 19.9049 95.7859 18.7271C95.7859 17.5493 94.9766 16.9941 93.9144 16.8931H92.8522V13.629C92.9028 12.9896 93.0545 12.6699 93.2063 12.4512H90.7783C91.0312 12.9391 91.1324 12.9728 91.1661 13.5785V22.984C91.1324 23.3205 91.0312 23.6065 90.8963 23.8926Z" fill="#DD2B1C"/>
<path fill-rule="evenodd" clip-rule="evenodd" d="M73.7491 12.5016C74.4573 12.4848 75.0305 12.5016 75.7218 12.5016V14.2347C75.705 15.2105 75.7218 16.1864 75.7218 17.1791C76.0422 17.196 76.3625 17.196 76.6829 17.1791C76.9021 17.1286 76.9695 16.8931 76.9695 16.708V13.8645V12.5353L78.976 12.5184C78.7568 12.8045 78.5882 13.4439 78.6556 13.9318C78.6725 14.8572 78.6556 15.7658 78.6725 16.6912C78.6725 16.9267 78.6893 17.1623 78.5882 17.381C78.5207 17.5829 78.3353 17.7175 78.1835 17.8521C78.1666 17.9363 78.2678 17.9531 78.3015 17.9868C78.6387 18.1887 78.8074 18.5756 78.8074 18.9458C78.8242 19.8712 78.6893 22.0922 78.8917 22.883C78.9085 23.0681 78.9422 23.27 79.0097 23.4382C79.0603 23.6065 79.1614 23.7411 79.1952 23.9094C78.487 23.9094 77.7957 23.9094 77.1044 23.9094L77.0707 23.8757C77.0538 22.4287 77.0707 20.9817 77.0707 19.5347C77.0201 19.2655 77.0538 18.9458 76.8178 18.7607C76.5143 18.542 76.1096 18.6261 75.7555 18.6093C75.7555 19.9553 75.7387 21.3014 75.7555 22.6474C75.7387 23.0849 75.8567 23.5224 76.0928 23.9094L73.6479 23.8757C73.9683 23.4214 74.0526 22.8662 74.0526 22.3446C74.0526 19.5179 74.0526 16.6912 74.0526 13.8645C74.0526 13.3934 73.9683 12.9223 73.7491 12.5016Z" fill="#DD2B1C"/>
<path fill-rule="evenodd" clip-rule="evenodd" d="M30.265 6.12449V9.13627C30.5348 9.20357 30.8552 9.20357 31.0912 9.03531C31.2767 8.86706 31.243 8.58102 31.2261 8.34546C31.2261 7.77339 31.2261 7.1845 31.2261 6.61243C31.2261 6.42735 31.1418 6.20862 30.9395 6.14131C30.7371 6.09084 30.5011 6.10766 30.265 6.12449ZM30.2819 2.62477V5.11495C30.2988 5.11495 30.3156 5.11495 30.3156 5.11495C30.5517 5.13178 30.8046 5.16543 31.0069 5.04765C31.1418 4.96352 31.1587 4.77844 31.1587 4.64384C31.1755 4.2232 31.1587 3.78573 31.1587 3.36509C31.1587 3.19684 31.1755 3.01176 31.1081 2.8435C31.0575 2.72572 30.9395 2.64159 30.8215 2.65842C30.6528 2.59112 30.4505 2.62477 30.2819 2.62477ZM28.815 1.63206C29.3377 1.61523 29.8772 1.63206 30.3999 1.61523C30.9395 1.61523 31.7319 1.61523 32.1197 2.08635C32.2715 2.27143 32.3558 2.49016 32.3895 2.72572V4.67749C32.3726 4.86257 32.3052 5.04765 32.204 5.19908C32.1029 5.35051 31.9511 5.45147 31.8162 5.58607C31.9511 5.70385 32.1197 5.78798 32.2378 5.93941C32.3895 6.14131 32.4569 6.3937 32.4569 6.64608V8.59785C32.4738 9.00166 32.5075 9.72516 32.0691 9.96072C31.6308 10.2299 31.0912 10.1795 30.5854 10.1963L28.7307 10.1795C28.9499 9.80929 29.0173 9.57373 29.0005 9.11944C29.0005 7.01624 29.0005 4.91305 29.0005 2.79302C28.9836 2.30508 29.0005 2.10318 28.815 1.63206Z" fill="white"/>
<path fill-rule="evenodd" clip-rule="evenodd" d="M37.3128 9.17081L38.3918 2.77709C38.4761 2.37328 38.4256 1.96947 38.4087 1.54883H40.0611C39.9768 2.01994 40.0779 2.50789 40.1454 2.979L41.157 9.17081H41.7303C41.7303 9.67558 41.7303 10.1299 41.7303 10.6346C41.4942 10.3991 41.157 10.3318 40.8367 10.3318C38.982 10.3318 39.7238 10.3318 37.8523 10.3318C37.65 10.3318 37.4476 10.315 37.2453 10.3654C37.0767 10.3991 36.925 10.4664 36.7563 10.5337C36.7563 10.0626 36.7563 9.64193 36.7563 9.17081H37.3128ZM39.9768 9.17081L39.1843 4.44283L38.4761 9.17081H39.9768Z" fill="white"/>
<path fill-rule="evenodd" clip-rule="evenodd" d="M21.3627 1.5135C21.7673 1.47985 22.2394 1.47985 22.6272 1.59763C23.3017 1.79954 23.3691 2.27065 23.3691 2.91002V4.79449C23.3691 5.11417 23.1499 5.36656 22.8802 5.48434C22.8802 5.50116 22.8802 5.55164 22.8802 5.56846C23.3017 5.75355 23.4028 5.93863 23.4534 6.37609V8.44564C23.4366 9.48882 23.268 10.2796 22.172 10.2796C21.936 10.2796 21.4807 10.2965 21.2447 10.2796C20.3005 10.0945 20.1993 9.38787 20.2162 8.52977C20.2162 8.26056 20.1656 7.94087 20.115 7.72214H21.4301C21.3795 7.89039 21.329 8.21008 21.3627 8.49611C21.3795 8.64754 21.3964 8.78215 21.447 8.89993C21.5144 9.06818 21.6325 9.18596 21.8179 9.15231C21.9865 9.16914 22.1214 9.05136 22.172 8.89993C22.2226 8.78215 22.2057 8.64754 22.2057 8.52977C22.2057 7.9577 22.2057 7.38563 22.2057 6.81356C22.2057 6.62848 22.1889 6.42657 22.0371 6.29196C21.7842 6.00593 21.4133 6.14053 21.1772 6.19101V4.97957C21.329 5.04687 21.5313 5.08052 21.8348 5.04687C22.054 4.9964 22.172 4.76084 22.1889 4.5421L22.172 3.01098C22.1214 2.52304 21.329 2.53986 21.329 3.09511C21.3121 3.49892 21.3121 3.7513 21.3627 4.15512H20.115C20.1824 3.97004 20.2162 3.66717 20.2162 3.38114C20.3005 2.33795 20.1487 1.69858 21.3627 1.5135Z" fill="white"/>
<path fill-rule="evenodd" clip-rule="evenodd" d="M34.4128 2.70844C34.3622 2.80939 34.3622 2.92717 34.3453 3.02812V8.68152C34.3622 9.11898 34.6319 9.45549 35.0872 9.21994C35.2727 9.06851 35.2727 8.7993 35.2895 8.58056V3.0786C35.2895 2.89352 35.3064 2.84304 35.2221 2.70844C35.0535 2.4224 34.5814 2.38875 34.4128 2.70844ZM34.4802 1.51382C34.9186 1.51382 35.3738 1.48017 35.7616 1.68208C36.6215 2.11954 36.4698 3.19638 36.4866 4.00401V8.61422C36.4023 9.6574 36.1663 10.1958 35.0029 10.2799C33.8226 10.3136 33.2156 9.99391 33.1482 8.78247V3.0786C33.1988 2.18684 33.4517 1.59795 34.4802 1.51382Z" fill="white"/>
<path fill-rule="evenodd" clip-rule="evenodd" d="M25.9824 3.56745L25.5609 7.33638C25.8812 7.33638 26.2184 7.33638 26.5388 7.33638L26.0667 3.56745H25.9824ZM24.819 1.58203H27.2301C27.0278 2.06997 27.1289 2.25505 27.1626 2.77665L27.9382 8.8002C28.0057 9.27132 28.0225 9.77609 28.3429 10.1631H26.7243C26.7917 10.0116 26.8086 9.92752 26.7917 9.75926L26.64 8.36274H25.4091L25.2911 9.79291C25.2742 9.97799 25.3754 10.0621 25.4428 10.1631H23.8411C24.0265 9.87704 24.1277 9.35545 24.1951 8.83385L24.9033 2.57474C24.9539 2.20458 24.9539 1.86807 24.819 1.58203Z" fill="white"/>
<path fill-rule="evenodd" clip-rule="evenodd" d="M3.45646 5.55273C1.53433 5.63686 0 7.11751 0 8.96833V21.1164C0 22.9504 1.53433 24.4479 3.45646 24.5152V5.55273Z" fill="#DD2B1C"/>
<path fill-rule="evenodd" clip-rule="evenodd" d="M11.2292 24.514C13.1682 24.4635 14.7363 22.9492 14.7363 21.1152V8.96713C14.7363 7.11631 13.1682 5.61884 11.2292 5.56836V24.514Z" fill="#DD2B1C"/>
<path fill-rule="evenodd" clip-rule="evenodd" d="M9.03739 9.74225V9.80955C8.53157 10.7013 6.25537 10.6172 5.71582 9.80955V0.639612C6.22164 -0.252144 8.49785 -0.168016 9.03739 0.639612V9.74225Z" fill="white"/>
<path fill-rule="evenodd" clip-rule="evenodd" d="M9.03764 29.1094V29.1767C8.53181 30.0685 6.25561 29.9844 5.71606 29.1767V20.0068C6.22189 19.115 8.49809 19.1992 9.03764 20.0068V29.1094Z" fill="white"/>
</g>
<defs>
<clipPath id="clip0_3358_72143">
<rect width="95.7692" height="30" fill="white"/>
</clipPath>
</defs>
</svg>
