<svg width="154" height="48" viewBox="0 0 154 48" fill="none" xmlns="http://www.w3.org/2000/svg">
<g clip-path="url(#clip0_3550_93744)">
<path fill-rule="evenodd" clip-rule="evenodd" d="M32.4537 20.0026C33.5924 19.9757 34.5143 19.9757 35.6259 20.0026V22.7755C35.5988 24.3369 35.6259 25.8983 35.6259 27.4866C36.141 27.5135 36.6562 27.5135 37.1713 27.4866C37.5238 27.4059 37.6322 27.029 37.6322 26.7328V22.1832V20.0565L40.8586 20.0295C40.5062 20.4872 40.235 21.5102 40.3435 22.2909C40.3706 23.7715 40.3435 25.2253 40.3706 26.7059C40.3706 27.0828 40.3977 27.4597 40.235 27.8097C40.1266 28.1327 39.8283 28.3481 39.5843 28.5635C39.5572 28.6981 39.7199 28.725 39.7741 28.7788C40.3164 29.1019 40.5875 29.7211 40.6146 30.3133C40.6417 31.794 40.4248 35.3475 40.7502 36.6128C40.7773 36.9089 40.8315 37.232 40.94 37.5012C41.0213 37.7704 41.184 37.9858 41.2382 38.255C40.0995 38.255 38.9878 38.255 37.8491 38.255L37.7949 38.2011C37.7678 35.8859 37.7949 33.5708 37.7949 31.2556C37.7135 30.8248 37.7678 30.3133 37.3882 30.0172C36.9002 29.6672 36.2495 29.8018 35.6801 29.7749C35.6801 31.9286 35.653 34.0823 35.6801 36.2359C35.653 36.9359 35.8428 37.6358 36.2224 38.255L32.291 38.2011C32.8062 37.4743 32.9417 36.5859 32.9417 35.7513C32.9417 31.2286 32.9417 26.7059 32.9417 22.1832C32.9688 21.4563 32.8333 20.6756 32.4537 20.0026Z" fill="#DD2B1C"/>
<path fill-rule="evenodd" clip-rule="evenodd" d="M69.3006 19.9479C70.5477 19.921 71.7949 19.921 73.0421 19.9479C72.6896 21.0517 72.527 20.9171 72.4998 22.29V27.5396H74.5062C74.5333 26.0859 74.5062 24.6322 74.5333 23.1784C74.5333 22.5054 74.5875 21.8055 74.4249 21.1324C74.3706 20.7286 74.208 20.3787 74.0453 20.0018C75.2382 20.0018 76.4312 20.0018 77.6242 20.0018C77.3259 20.6209 77.1632 21.294 77.1632 21.967C77.1632 22.3977 77.1632 22.8554 77.1632 23.2861V35.3736C77.1904 36.2082 77.0819 37.1504 77.597 37.8773C77.6784 37.9849 77.7597 38.1196 77.8411 38.2272H77.7868C76.4854 38.2542 75.2111 38.2272 73.9097 38.2272C74.4249 37.4734 74.5333 36.5581 74.5333 35.6697V29.6933H72.527C72.4999 31.7393 72.527 33.7853 72.527 35.8313C72.4999 36.6658 72.6625 37.5273 73.1506 38.2272C71.8491 38.2272 70.5748 38.2272 69.2734 38.2272C69.8699 37.3388 69.7886 36.7466 69.8428 35.7505L69.8157 22.3708C69.7072 21.1863 69.653 20.9978 69.3006 19.9479Z" fill="#DD2B1C"/>
<path fill-rule="evenodd" clip-rule="evenodd" d="M88.2796 19.9746C89.4726 19.9746 90.6656 19.9746 91.8585 19.9746C91.7501 20.2438 91.6416 20.4861 91.5874 20.7553C91.5874 20.7822 91.5603 20.863 91.5603 20.8899C91.3163 21.4822 91.3976 22.1283 91.3976 22.7475C91.3976 26.8664 91.3976 30.9853 91.3976 35.1042C91.3976 35.7503 91.3163 36.4233 91.5332 37.0425C91.5603 37.2309 91.6145 37.3924 91.6958 37.5809C91.7772 37.7963 91.9127 38.0116 92.0212 38.227C90.7198 38.227 89.3913 38.227 88.0898 38.227C88.605 37.6347 88.7405 36.8271 88.7405 36.0733C88.7405 31.5775 88.7405 27.0817 88.7405 22.5859C88.7405 22.1014 88.7677 21.6168 88.6592 21.1322C88.5779 20.7284 88.4152 20.3515 88.2796 19.9746Z" fill="#DD2B1C"/>
<path fill-rule="evenodd" clip-rule="evenodd" d="M102.648 19.9746H99.2048L96.114 30.8507V22.0475C96.114 21.3476 96.2766 20.6476 96.5749 20.0015H93.24C93.484 20.5938 93.6738 21.2399 93.6467 21.886V35.3734C93.6467 36.3425 93.6738 37.3655 93.2129 38.2539C94.2703 38.2808 95.2192 38.2539 96.2766 38.2539L99.6657 26.3818V37.1502C99.6115 37.554 99.4488 37.9309 99.2319 38.2539H102.838C102.269 37.527 102.187 36.5848 102.133 35.6964V22.209C102.187 21.0784 102.241 20.9707 102.648 19.9746Z" fill="#DD2B1C"/>
<path fill-rule="evenodd" clip-rule="evenodd" d="M45.4417 22.4517C45.4688 24.9016 45.4417 27.3514 45.4688 29.7742C45.9297 29.8819 46.4449 29.855 46.9058 29.6935C47.3396 29.532 47.5836 29.0743 47.5565 28.6166C47.5565 27.0552 47.5565 25.5207 47.5565 23.9593C47.5565 23.394 47.6107 22.5864 46.9871 22.3171C46.9058 22.2633 46.8245 22.2095 46.716 22.2095C46.4178 21.9941 46.0111 22.0749 45.6586 22.0749C45.4688 22.0749 45.4146 22.2902 45.4417 22.4517ZM42.4593 20.0019C43.6252 19.975 44.791 20.0019 45.9569 19.975C46.4449 19.9481 46.96 20.0558 47.4481 20.0558C47.9632 20.1635 48.5055 20.2981 48.9664 20.5673C49.4544 20.8634 49.7526 21.3749 49.9424 21.9133C50.2136 22.9094 50.2136 23.9862 50.1864 25.0092C50.1864 26.1938 50.1864 27.3783 50.1864 28.5359C50.1864 28.9935 50.1051 29.4512 50.0509 29.9088C49.9424 30.5011 49.5629 30.9857 49.1019 31.3357C48.3699 31.7664 47.5294 31.901 46.6889 31.9279C46.2551 31.9279 45.8484 31.8741 45.4417 31.9818C45.4417 33.247 45.4417 34.4854 45.4417 35.7507C45.4417 36.2353 45.5502 36.7198 45.6315 37.2044C45.7128 37.5813 45.9026 37.9044 46.1195 38.2274C44.8452 38.2543 43.5438 38.2543 42.2695 38.2274C42.4593 37.9044 42.622 37.5544 42.7305 37.2044C42.9202 36.5045 42.8931 35.7776 42.8931 35.0507C42.8931 30.7703 42.8931 26.4899 42.8931 22.2095C42.8931 21.4557 42.7033 20.7019 42.4593 20.0019Z" fill="#DD2B1C"/>
<path fill-rule="evenodd" clip-rule="evenodd" d="M82.6127 36.1018C82.5856 33.5443 82.6398 31.7675 82.6398 29.21C83.5345 28.9946 84.6732 29.1831 84.619 30.3138V35.1595C84.5648 35.5364 84.3208 35.9133 83.9141 36.021C83.5074 36.1556 83.0465 36.1287 82.6127 36.1018ZM79.5218 38.2554C80.7961 38.2824 82.0433 38.2554 83.3176 38.2554C85.6493 38.2824 87.3303 37.5017 87.3303 34.8634C87.3303 32.9789 87.3845 31.8752 87.3845 29.9907C87.3845 28.1063 86.0831 27.2179 84.375 27.0563H82.6669V21.8337C82.7482 20.8107 82.9922 20.2992 83.2363 19.9492H79.332C79.7387 20.7299 79.9014 20.7838 79.9556 21.7529V36.8017C79.9014 37.3401 79.7387 37.8247 79.5218 38.2554Z" fill="#DD2B1C"/>
<path fill-rule="evenodd" clip-rule="evenodd" d="M100.344 15.3457C100.235 16.1264 99.3947 16.7725 98.1475 16.7725C96.9003 16.7725 96.1954 16.0995 96.0598 15.3457L95.0024 15.5072C94.9753 17.6609 96.1412 18.7108 98.1475 18.7108C100.154 18.7108 101.401 17.7147 101.374 15.5072L100.344 15.3457Z" fill="#DD2B1C"/>
<path fill-rule="evenodd" clip-rule="evenodd" d="M54.3069 24.1754L53.4122 32.2247C54.1171 32.2247 54.822 32.2247 55.4998 32.2247L54.4696 24.1754H54.3069ZM51.8125 19.9219H56.991C56.5301 20.9718 56.7741 21.3756 56.8555 22.4524L58.5365 35.3476C58.6991 36.3706 58.6991 37.4205 59.4041 38.2819H55.9065C56.0692 37.9858 56.0963 37.7704 56.0692 37.4205L55.7439 34.4323H53.0868L52.8428 37.4743C52.8157 37.8781 53.0055 38.0666 53.1682 38.2819H49.752C50.1586 37.6628 50.3484 36.559 50.484 35.4283L52.0023 22.0486C52.1108 21.2679 52.1108 20.5411 51.8125 19.9219Z" fill="#DD2B1C"/>
<path fill-rule="evenodd" clip-rule="evenodd" d="M63.4441 19.7324H64.854C66.3723 19.8132 67.2941 20.4324 67.6195 21.913C67.7279 22.613 67.7822 24.1475 67.7822 24.9012C67.7822 25.4666 67.9719 26.0319 68.2973 26.5165H64.6371C64.854 26.1665 65.0167 25.7627 65.0167 25.3589C65.0438 24.6051 65.0438 23.8244 65.0167 23.0706C64.9353 21.6169 63.4441 21.8053 63.2001 22.5322C63.0917 22.7476 63.0917 23.1245 63.0917 23.5283V34.862C63.0917 35.2389 63.1188 35.6696 63.3899 35.9657C63.6339 36.2349 64.0406 36.208 64.3931 36.1811C64.854 36.0196 64.9896 35.5081 65.0167 35.1043C65.0438 34.4043 65.0438 33.7044 65.0167 33.0044C65.0167 32.2506 64.9896 31.8738 64.7184 31.2815H68.1346C67.9719 31.7122 67.8364 32.6275 67.8093 33.1121C67.7008 34.5928 68.0804 36.4503 66.8061 37.581C66.2638 38.1194 65.586 38.3348 64.854 38.4963C64.2846 38.5232 63.7153 38.5232 63.173 38.4963C61.3293 38.2271 60.5973 37.0426 60.3533 35.4004C60.3262 33.9736 60.3262 32.5199 60.3262 31.0931V23.286C60.3533 22.8014 60.2991 22.4245 60.4888 21.8053C60.8142 20.3516 61.9529 19.7324 63.4441 19.7324Z" fill="#DD2B1C"/>
<path fill-rule="evenodd" clip-rule="evenodd" d="M131.118 22.2103C131.009 22.4256 131.009 22.6679 130.982 22.9102V35.0246C131.036 35.9669 131.606 36.6937 132.582 36.1553C132.961 35.8053 132.988 35.24 133.015 34.7554V22.9641C133.015 22.5602 133.043 22.4526 132.88 22.1564C132.5 21.5911 131.47 21.5103 131.118 22.2103ZM131.28 19.6528C132.202 19.6528 133.205 19.5989 134.073 20.0027C135.916 20.9181 135.618 23.2602 135.618 24.9831V34.8631C135.428 37.0975 134.94 38.2551 132.419 38.4167C129.87 38.4974 128.569 37.8244 128.406 35.1861V22.9371C128.488 21.1065 129.057 19.8143 131.28 19.6528Z" fill="#DD2B1C"/>
<path fill-rule="evenodd" clip-rule="evenodd" d="M113.981 22.0483L113.927 28.267C113.683 28.267 112.002 28.617 111.975 27.4324V22.7751C112.029 22.3982 112.354 22.0752 112.734 22.0483H113.981ZM117.072 19.9484H114.334C113.141 19.9484 112.056 19.8677 110.917 20.1907C110.484 20.3253 110.131 20.6484 109.887 21.0253C109.453 21.6983 109.399 22.5328 109.399 23.2866C109.399 24.3096 109.399 26.0595 109.399 27.0825C109.399 27.5401 109.453 28.0247 109.589 28.4554C109.697 28.8054 110.023 29.0208 110.267 29.2631C109.209 30.2053 109.291 30.3399 109.182 31.7398C109.155 33.4897 109.209 34.4857 109.155 36.2087C109.101 36.8278 108.938 37.6355 108.559 38.1739L111.893 38.2008C111.893 35.9933 111.893 34.5126 111.893 32.3051C111.921 31.336 111.704 30.4207 112.951 30.4207H113.954L114.008 35.2126C114.008 36.2356 113.954 37.2586 113.52 38.2008C114.767 38.2277 115.987 38.2277 117.235 38.2008C116.991 37.7162 116.774 37.2317 116.72 36.6932L116.665 21.9675C116.611 21.2406 116.774 20.5945 117.072 19.9484Z" fill="#DD2B1C"/>
<path fill-rule="evenodd" clip-rule="evenodd" d="M140.525 22.0758L140.471 22.1027C140.417 22.3719 140.444 22.6411 140.444 22.9103C140.444 25.0909 140.444 27.2985 140.444 29.479C140.417 29.6137 140.525 29.7752 140.661 29.7752C141.095 29.8021 141.529 29.8021 141.935 29.6406C142.342 29.479 142.586 29.0483 142.586 28.6176C142.586 27.0023 142.586 25.414 142.586 23.7987C142.559 23.3949 142.613 22.9642 142.423 22.6142C142.288 22.345 142.017 22.1566 141.718 22.1027C141.312 22.0489 140.905 21.9681 140.525 22.0758ZM137.408 19.9221C138.655 19.8952 139.902 19.9221 141.149 19.9221C142.179 19.9221 143.264 20.0298 144.131 20.5951C144.619 20.9182 144.891 21.4835 145.053 22.022C145.135 22.695 145.243 23.368 145.216 24.041C145.216 25.4678 145.216 26.8677 145.216 28.2945C145.216 28.806 145.216 29.3175 145.08 29.8021C144.836 30.6636 144.186 31.4443 143.291 31.6596C142.749 31.8212 142.179 31.9019 141.637 31.875C141.312 31.875 140.959 31.8212 140.634 31.9019C140.444 31.9558 140.471 32.1711 140.471 32.3327C140.471 33.5441 140.471 34.7555 140.471 35.9401C140.471 36.7477 140.688 37.5284 141.095 38.2283C139.848 38.2553 138.573 38.2553 137.326 38.2283C137.624 37.6899 137.841 37.0707 137.868 36.4516C137.923 36.2093 137.977 35.967 137.977 35.6978C137.977 31.6596 137.977 27.6215 137.977 23.5834C137.977 22.8834 138.031 22.1566 137.841 21.4835C137.814 20.8913 137.624 20.4067 137.408 19.9221Z" fill="#DD2B1C"/>
<path fill-rule="evenodd" clip-rule="evenodd" d="M149.282 36.0744C149.255 33.5169 149.309 31.7402 149.309 29.1827C150.204 28.9673 151.343 29.1558 151.289 30.2864V35.1322C151.234 35.5091 150.963 35.886 150.584 35.9937C150.15 36.1283 149.716 36.1014 149.282 36.0744ZM146.164 38.2281C147.439 38.255 148.686 38.2281 149.96 38.2281C152.292 38.255 153.973 37.4743 153.973 34.8361C153.973 32.9516 154.027 31.8478 154.027 29.9634C154.027 28.0789 152.726 27.1905 151.018 27.029H149.309V21.8063C149.391 20.7833 149.635 20.2718 149.879 19.9219H145.975C146.381 20.7026 146.544 20.7564 146.598 21.7256V36.7744C146.544 37.3128 146.381 37.7705 146.164 38.2281Z" fill="#DD2B1C"/>
<path fill-rule="evenodd" clip-rule="evenodd" d="M118.59 20.0022C119.729 19.9753 120.651 20.0022 121.763 20.0022V22.7751C121.735 24.3365 121.763 25.8979 121.763 27.4862C122.278 27.5131 122.793 27.5131 123.308 27.4862C123.66 27.4054 123.769 27.0286 123.769 26.7324V22.1828V20.056L126.995 20.0291C126.643 20.4868 126.372 21.5098 126.48 22.2905C126.507 23.7711 126.48 25.2249 126.507 26.7055C126.507 27.0824 126.534 27.4593 126.372 27.8093C126.263 28.1323 125.965 28.3477 125.721 28.563C125.694 28.6977 125.857 28.7246 125.911 28.7784C126.453 29.1015 126.724 29.7206 126.724 30.3129C126.751 31.7936 126.534 35.3471 126.86 36.6124C126.887 36.9085 126.941 37.2316 127.05 37.5008C127.131 37.77 127.294 37.9854 127.348 38.2546C126.209 38.2546 125.097 38.2546 123.986 38.2546L123.932 38.2007C123.905 35.8855 123.932 33.5703 123.932 31.2551C123.85 30.8244 123.905 30.3129 123.525 30.0168C123.037 29.6668 122.386 29.8014 121.817 29.7745C121.817 31.9282 121.79 34.0818 121.817 36.2355C121.79 36.9354 121.979 37.6354 122.359 38.2546L118.428 38.2007C118.943 37.4739 119.078 36.5855 119.078 35.7509C119.078 31.2282 119.078 26.7055 119.078 22.1828C119.078 21.429 118.943 20.6752 118.59 20.0022Z" fill="#DD2B1C"/>
<path fill-rule="evenodd" clip-rule="evenodd" d="M48.6665 9.79879V14.6176C49.1003 14.7253 49.6154 14.7253 49.995 14.4561C50.2932 14.1869 50.239 13.7292 50.2119 13.3524C50.2119 12.437 50.2119 11.4948 50.2119 10.5795C50.2119 10.2834 50.0763 9.9334 49.751 9.82571C49.4256 9.74495 49.0461 9.77187 48.6665 9.79879ZM48.6936 4.19924V8.18354C48.7207 8.18354 48.7478 8.18354 48.7478 8.18354C49.1274 8.21046 49.5341 8.2643 49.8594 8.07585C50.0763 7.94125 50.1034 7.64512 50.1034 7.42975C50.1306 6.75673 50.1034 6.05678 50.1034 5.38376C50.1034 5.11455 50.1306 4.81842 50.0221 4.54921C49.9408 4.36076 49.751 4.22616 49.5612 4.25308C49.2901 4.1454 48.9647 4.19924 48.6936 4.19924ZM46.3348 2.61091C47.1753 2.58398 48.0429 2.61091 48.8834 2.58398C49.751 2.58398 51.0253 2.58398 51.6489 3.33777C51.8929 3.6339 52.0284 3.98387 52.0827 4.36077V7.48359C52.0556 7.77972 51.9471 8.07585 51.7844 8.31814C51.6218 8.56043 51.3777 8.72195 51.1608 8.93732C51.3777 9.12577 51.6489 9.26037 51.8387 9.50266C52.0827 9.82571 52.1911 10.2295 52.1911 10.6333V13.7562C52.2182 14.4023 52.2725 15.5599 51.5675 15.9368C50.8626 16.3675 49.995 16.2867 49.1816 16.3137L46.1992 16.2867C46.5517 15.6945 46.6601 15.3176 46.633 14.5907C46.633 11.2256 46.633 7.86049 46.633 4.46845C46.6059 3.68774 46.633 3.36469 46.3348 2.61091Z" fill="#110101"/>
<path fill-rule="evenodd" clip-rule="evenodd" d="M60.0002 14.6717L61.7354 4.44179C61.871 3.79569 61.7896 3.14959 61.7625 2.47656H64.4196C64.284 3.23035 64.4467 4.01106 64.5551 4.76484L66.1819 14.6717H67.1037C67.1037 15.4794 67.1037 16.2062 67.1037 17.0139C66.7241 16.637 66.1819 16.5293 65.6667 16.5293C62.6843 16.5293 63.8773 16.5293 60.8678 16.5293C60.5424 16.5293 60.2171 16.5024 59.8917 16.5831C59.6206 16.637 59.3766 16.7446 59.1055 16.8523C59.1055 16.0985 59.1055 15.4255 59.1055 14.6717H60.0002ZM64.284 14.6717L63.0097 7.10696L61.871 14.6717H64.284Z" fill="#110101"/>
<path fill-rule="evenodd" clip-rule="evenodd" d="M34.352 2.42355C35.0027 2.36971 35.7619 2.36971 36.3855 2.55816C37.47 2.88121 37.5784 3.635 37.5784 4.65799V7.67313C37.5784 8.18463 37.226 8.58845 36.7922 8.77689C36.7922 8.80381 36.7922 8.88458 36.7922 8.9115C37.47 9.20763 37.6327 9.50376 37.714 10.2037V13.515C37.6869 15.1841 37.4158 16.4494 35.6534 16.4494C35.2739 16.4494 34.5418 16.4763 34.1623 16.4494C32.6439 16.1532 32.4813 15.0225 32.5084 13.6496C32.5084 13.2188 32.427 12.7073 32.3457 12.3574H34.4605C34.3792 12.6266 34.2978 13.1381 34.352 13.5957C34.3792 13.838 34.4063 14.0534 34.4876 14.2418C34.5961 14.511 34.7858 14.6995 35.0841 14.6457C35.3552 14.6726 35.5721 14.4841 35.6534 14.2418C35.7348 14.0534 35.7077 13.838 35.7077 13.6496C35.7077 12.7343 35.7077 11.819 35.7077 10.9036C35.7077 10.6075 35.6806 10.2845 35.4365 10.0691C35.0299 9.61144 34.4334 9.82681 34.0538 9.90757V7.96926C34.2978 8.07695 34.6232 8.13079 35.1112 8.07695C35.4637 7.99619 35.6534 7.61929 35.6806 7.26932L35.6534 4.81952C35.5721 4.03881 34.2978 4.06573 34.2978 4.95412C34.2707 5.60022 34.2707 6.00404 34.352 6.65014H32.3457C32.4542 6.35401 32.5084 5.86943 32.5084 5.41178C32.6439 3.74268 32.3999 2.71968 34.352 2.42355Z" fill="#110101"/>
<path fill-rule="evenodd" clip-rule="evenodd" d="M55.3362 4.33467C55.2549 4.4962 55.2548 4.68464 55.2277 4.84617V13.8916C55.2548 14.5915 55.6887 15.13 56.4207 14.7531C56.7189 14.5108 56.7189 14.08 56.7461 13.7301V4.92693C56.7461 4.6308 56.7732 4.55004 56.6376 4.33467C56.3665 3.87702 55.6073 3.82317 55.3362 4.33467ZM55.4446 2.42329C56.1496 2.42329 56.8816 2.36945 57.5052 2.6925C58.888 3.39244 58.6439 5.11538 58.6711 6.40758V13.7839C58.5355 15.453 58.1559 16.3145 56.2851 16.4491C54.3872 16.5029 53.4112 15.9914 53.3027 14.0531V4.92693C53.3841 3.50012 53.7908 2.55789 55.4446 2.42329Z" fill="#110101"/>
<path fill-rule="evenodd" clip-rule="evenodd" d="M41.7812 5.70792L41.1034 11.7382C41.6185 11.7382 42.1608 11.7382 42.6759 11.7382L41.9168 5.70792H41.7812ZM39.9104 2.53125H43.7875C43.4622 3.31196 43.6249 3.60809 43.6791 4.44264L44.9263 14.0803C45.0347 14.8341 45.0618 15.6417 45.577 16.2609H42.9742C43.0826 16.0186 43.1097 15.884 43.0826 15.6148L42.8386 13.3804H40.8594L40.6696 15.6687C40.6425 15.9648 40.8051 16.0994 40.9136 16.2609H38.3379C38.6361 15.8033 38.7988 14.9687 38.9073 14.1342L40.046 4.11958C40.1273 3.52732 40.1273 2.98891 39.9104 2.53125Z" fill="#110101"/>
<path fill-rule="evenodd" clip-rule="evenodd" d="M5.5581 8.88477C2.46725 9.01937 0 11.3884 0 14.3497V33.7866C0 36.721 2.46725 39.117 5.5581 39.2246V8.88477Z" fill="#DD2B1C"/>
<path fill-rule="evenodd" clip-rule="evenodd" d="M18.0566 39.2231C21.1746 39.1424 23.6961 36.7195 23.6961 33.7851V14.3482C23.6961 11.3869 21.1746 8.99092 18.0566 8.91016V39.2231Z" fill="#DD2B1C"/>
<path fill-rule="evenodd" clip-rule="evenodd" d="M14.5326 15.5864V15.6941C13.7192 17.1209 10.059 16.9863 9.19141 15.6941V1.02221C10.0048 -0.404602 13.665 -0.269997 14.5326 1.02221V15.5864Z" fill="#110101"/>
<path fill-rule="evenodd" clip-rule="evenodd" d="M14.5326 46.5747V46.6824C13.7192 48.1092 10.059 47.9746 9.19141 46.6824V32.0105C10.0048 30.5837 13.665 30.7183 14.5326 32.0105V46.5747Z" fill="#110101"/>
</g>
<defs>
<clipPath id="clip0_3550_93744">
<rect width="154" height="48" fill="white"/>
</clipPath>
</defs>
</svg>
