<svg width="41" height="55" viewBox="0 0 41 55" fill="none" xmlns="http://www.w3.org/2000/svg">
<path fill-rule="evenodd" clip-rule="evenodd" d="M36.6999 33.0658C39.3952 29.5953 41 25.2356 41 20.5011C41 9.17867 31.8218 0 20.5 0C9.17816 0 0 9.17867 0 20.5011C0 25.3681 1.69584 29.8389 4.52882 33.3549L20.75 54.0012L36.6999 33.0658Z" fill="#DD2B1C"/>
<path fill-rule="evenodd" clip-rule="evenodd" d="M17.5801 14.0938C16.1453 14.1558 15 15.2484 15 16.614V25.5778C15 26.931 16.1453 28.036 17.5801 28.0856V14.0938Z" fill="white"/>
<path fill-rule="evenodd" clip-rule="evenodd" d="M23.3828 28.0889C24.8302 28.0516 26.0007 26.9342 26.0007 25.581V16.6172C26.0007 15.2516 24.8302 14.1466 23.3828 14.1094V28.0889Z" fill="white"/>
<path fill-rule="evenodd" clip-rule="evenodd" d="M21.747 17.1871V17.2368C21.3694 17.8948 19.6703 17.8327 19.2676 17.2368V10.4705C19.6452 9.81251 21.3443 9.87458 21.747 10.4705V17.1871Z" fill="white"/>
<path fill-rule="evenodd" clip-rule="evenodd" d="M21.7451 31.484V31.5336C21.3675 32.1917 19.6684 32.1296 19.2656 31.5336V24.7674C19.6432 24.1094 21.3423 24.1715 21.7451 24.7674V31.484Z" fill="white"/>
</svg>
