<svg width="72" height="54" viewBox="0 0 72 54" fill="none" xmlns="http://www.w3.org/2000/svg">
<path d="M64.4756 36.4612H15.2432V10.6875H64.4756V36.4612ZM15.8918 35.8087H63.8269V11.34H15.8918V35.8087Z" fill="white"/>
<path d="M60.7139 40.2452H11.4814V14.4062H15.8921V15.0587H12.1301V39.5927H60.0652V36.4607H60.7139V40.2452Z" fill="white"/>
<path d="M57.0166 43.9652H7.78418V18.1914H12.1329V18.8439H8.43283V43.3127H56.368V40.2459H57.0166V43.9652Z" fill="white"/>
<path d="M50.9835 33.5892H28.7348C24.3889 33.5892 20.8213 30.0004 20.8213 25.6287V21.4527C20.8213 17.0809 24.3889 13.4922 28.7348 13.4922H50.9835C55.3294 13.4922 58.897 17.0809 58.897 21.4527V25.6939C58.8321 30.0657 55.3294 33.5892 50.9835 33.5892ZM28.7348 14.2099C24.7132 14.2099 21.4699 17.4724 21.4699 21.5179V25.6939C21.4699 29.7394 24.7132 33.0019 28.7348 33.0019H50.9835C55.0051 33.0019 58.2483 29.7394 58.2483 25.6939V21.5179C58.2483 17.4724 55.0051 14.2099 50.9835 14.2099H28.7348Z" fill="white"/>
<path d="M39.438 29.085H38.7894V24.7132H36.584V24.0607H38.7894V18.4492H41.9029C43.5894 18.4492 45.0164 19.8847 45.0164 21.5812C45.0164 23.2777 43.5894 24.7132 41.9029 24.7132H39.438V29.085ZM39.438 24.0607H41.9029C43.2651 24.0607 44.3678 22.9515 44.3678 21.5812C44.3678 20.211 43.2651 19.1017 41.9029 19.1017H39.438V24.0607Z" fill="#DD2B1C"/>
<path d="M42.0326 26.4102H36.584V27.0627H42.0326V26.4102Z" fill="#DD2B1C"/>
<path d="M39.1138 18.4492H37.0381V19.1017H39.1138V18.4492Z" fill="#DD2B1C"/>
</svg>
