<svg width="72" height="54" viewBox="0 0 72 54" fill="none" xmlns="http://www.w3.org/2000/svg">
<g clip-path="url(#clip0_6751_369234)">
<path d="M35.791 52.5131L35.6613 52.4479C35.4667 52.3826 15.4883 44.0306 15.0343 25.4996C14.7748 14.2766 15.0343 6.51189 15.0343 6.44664V6.12039H15.3586C22.4937 6.70764 29.1748 5.01114 35.6613 1.03089L35.791 0.900391L35.9856 1.03089C42.4721 5.01114 49.0883 6.70764 56.2235 6.18564H56.5478V6.51189C56.5478 6.57714 56.8072 14.2766 56.5478 25.5649C56.1586 44.0306 36.1153 52.3826 35.9207 52.4479L35.791 52.5131ZM15.6829 6.83814C15.618 8.46939 15.4234 15.5816 15.6829 25.4996C16.0721 42.8561 34.1694 51.0776 35.791 51.7954C37.4775 51.0776 55.5099 42.8561 55.8991 25.4996C56.1586 15.5816 55.964 8.46939 55.8991 6.83814C48.8289 7.29489 42.2126 5.66364 35.791 1.68339C29.3694 5.59839 22.7532 7.29489 15.6829 6.83814Z" fill="white"/>
<path d="M35.7909 47.4248L35.6612 47.3595C35.5315 47.2943 19.445 40.6388 19.1207 25.7618C18.9261 16.7573 19.1207 10.5585 19.1207 10.4933V10.167H19.445C25.1531 10.6238 30.472 9.25353 35.6612 6.05628L35.8558 5.92578L36.0504 6.05628C41.2396 9.25353 46.5585 10.6238 52.2666 10.167H52.5909V10.4933C52.5909 10.5585 52.7855 16.7573 52.5909 25.7618C52.2017 40.704 36.1801 47.3595 35.9855 47.4248H35.7909ZM19.7045 10.8195C19.6396 12.255 19.5099 17.9318 19.7045 25.6965C20.0936 39.5295 34.299 46.1198 35.7909 46.707C37.2828 46.0545 51.4882 39.4643 51.8774 25.6965C52.072 17.9318 51.9423 12.255 51.8774 10.8195C46.2342 11.211 40.9801 9.84078 35.7909 6.70878C30.6666 9.84078 25.4126 11.211 19.7045 10.8195Z" fill="white"/>
<path d="M35.8561 21.6477C35.4021 21.6477 35.0129 21.5824 34.5589 21.3867L34.3643 21.3214V13.0347L34.5589 12.9694C35.4021 12.5779 36.3102 12.5779 37.1534 12.9694L37.348 13.0347V21.3214L37.1534 21.3867C36.6994 21.5824 36.2453 21.6477 35.8561 21.6477ZM35.0129 20.8647C35.5967 21.0604 36.1156 21.0604 36.6994 20.8647V13.4914C36.1156 13.2957 35.5967 13.2957 35.0129 13.4914V20.8647Z" fill="white"/>
<path d="M35.8561 38.093C35.4021 38.093 35.0129 38.0277 34.5589 37.832L34.3643 37.7015V29.48L34.5589 29.4147C35.4021 29.0232 36.3102 29.0232 37.1534 29.4147L37.348 29.48V37.7015L37.1534 37.7667C36.6994 37.9625 36.2453 38.093 35.8561 38.093ZM35.0129 37.2447C35.5967 37.4405 36.1156 37.4405 36.6994 37.2447V29.8715C36.1156 29.6757 35.5967 29.6757 35.0129 29.8715V37.2447Z" fill="white"/>
<path d="M32.7423 33.6523H32.4179C30.7963 33.6523 29.499 32.3473 29.499 30.7161V20.2761C29.499 18.6448 30.7963 17.3398 32.4179 17.3398H32.7423V33.6523ZM32.0936 18.0576C30.9909 18.1881 30.1477 19.1668 30.1477 20.3413V30.7813C30.1477 31.9558 30.9909 32.8693 32.0936 33.0651V18.0576Z" fill="#DD2B1C"/>
<path d="M39.1642 33.6523H38.8398V33.3261V17.3398H39.1642C40.7858 17.3398 42.0831 18.6448 42.0831 20.2761V30.7161C42.0831 32.3473 40.7858 33.6523 39.1642 33.6523ZM39.4885 18.0576V32.9998C40.5912 32.8693 41.4344 31.8906 41.4344 30.7161V20.2761C41.4344 19.1668 40.5912 18.1881 39.4885 18.0576Z" fill="#DD2B1C"/>
</g>
<defs>
<clipPath id="clip0_6751_369234">
<rect width="72" height="52.2" fill="white" transform="translate(0 0.900391)"/>
</clipPath>
</defs>
</svg>
