<svg width="72" height="54" viewBox="0 0 72 54" fill="none" xmlns="http://www.w3.org/2000/svg">
<path d="M17.179 3.63594C16.9953 4.06708 16.8195 4.53838 16.8195 5.31781C16.8195 6.39711 17.1088 6.92087 17.4193 7.48314L17.4215 7.48703C17.7529 8.08712 18.105 8.72727 18.105 9.97313C18.105 11.2386 17.7284 11.9003 17.3825 12.5078C17.3305 12.5992 17.2791 12.6895 17.2299 12.7803L16.6604 12.4678C16.7146 12.3679 16.7689 12.2721 16.8223 12.178C17.1577 11.5865 17.4564 11.0599 17.4564 9.97313C17.4564 8.89383 17.1671 8.37007 16.8566 7.80781L16.8544 7.80391C16.523 7.20383 16.1709 6.56368 16.1709 5.31781C16.1709 4.41616 16.3808 3.85296 16.5828 3.37891L17.179 3.63594Z" fill="#DD2B1C"/>
<path d="M13.3225 6.22045C13.1388 6.6516 12.9631 7.12289 12.9631 7.90233C12.9631 8.98163 13.2524 9.50539 13.5629 10.0676L13.565 10.0715C13.8965 10.6716 14.2486 11.3118 14.2486 12.5576C14.2486 13.8231 13.8719 14.4848 13.5261 15.0923C13.4741 15.1836 13.4226 15.274 13.3734 15.3648L12.804 15.0523C12.8582 14.9524 12.9125 14.8566 12.9659 14.7625C13.3013 14.171 13.6 13.6444 13.6 12.5576C13.6 11.4783 13.3107 10.9546 13.0002 10.3923L12.998 10.3884C12.6666 9.78834 12.3145 9.14819 12.3145 7.90233C12.3145 7.00067 12.5244 6.43747 12.7263 5.96342L13.3225 6.22045Z" fill="#DD2B1C"/>
<path fill-rule="evenodd" clip-rule="evenodd" d="M40.0085 23.2781C40.01 23.3357 40.0132 23.3937 40.0182 23.4519L41.2385 40.2494C41.2453 41.1557 41.9883 41.7916 42.8483 41.7916H48.3117C49.1822 41.7916 49.9046 41.1499 49.9845 40.2664L49.9849 40.2606L51.206 23.452L51.2082 23.4244C54.422 24.1199 57.0329 25.3849 59.1546 26.9809L57.9518 37.9348L58.5965 38.0064L59.7555 27.4522C62.8652 29.9938 64.8508 33.2595 66.1213 36.3903C67.2256 39.1116 67.7866 41.7256 68.0711 43.6604C68.2134 44.6273 68.2863 45.4231 68.3237 45.976C68.3381 46.1882 68.3472 46.3646 68.353 46.5011H25.4933V47.1536H68.6046L71.0625 48.3898V49.9309H19.8379V50.5834H71.7111V47.9865L69.0068 46.6263L69.0056 46.5907C69.0003 46.4383 68.9901 46.2156 68.9709 45.9317C68.9325 45.3639 68.8578 44.5509 68.7128 43.5649C68.4229 41.594 67.851 38.9264 66.7218 36.1437C64.4761 30.6098 60.0136 24.6003 51.1821 22.7518C50.9699 21.3921 49.8091 20.3195 48.376 20.3195H42.8483C41.4677 20.3195 40.3398 21.3149 40.0693 22.6034C33.4672 23.7991 29.3044 27.2705 26.7005 31.2649L27.243 31.6228C28.3116 29.9835 29.6507 28.4348 31.329 27.1066L32.4985 38.0043L33.1434 37.9342L31.9324 26.6495C34.0702 25.0998 36.7211 23.8983 40.0085 23.2781ZM40.6646 23.3977C40.5522 22.097 41.5643 20.972 42.8483 20.972H48.376C49.6599 20.972 50.672 22.097 50.5596 23.3977L50.5592 23.4022L49.3382 40.21C49.2883 40.7476 48.8543 41.1391 48.3117 41.1391H42.8483C42.2981 41.1391 41.8871 40.7463 41.8871 40.2368V40.2249L40.665 23.4022L40.6646 23.3977Z" fill="#DD2B1C"/>
<path d="M21.1903 7.90233C21.1903 7.12289 21.366 6.6516 21.5497 6.22045L20.9535 5.96342C20.7516 6.43747 20.5416 7.00067 20.5416 7.90233C20.5416 9.14819 20.8938 9.78834 21.2252 10.3884L21.2274 10.3923C21.5379 10.9546 21.8272 11.4783 21.8272 12.5576C21.8272 13.6444 21.5285 14.171 21.1931 14.7625C21.1398 14.8565 21.0853 14.9526 21.0312 15.0523L21.6006 15.3648C21.6499 15.274 21.7012 15.1838 21.7532 15.0925C22.099 14.4849 22.4758 13.8231 22.4758 12.5576C22.4758 11.3118 22.1237 10.6716 21.7922 10.0715L21.7901 10.0676C21.4796 9.50539 21.1903 8.98163 21.1903 7.90233Z" fill="#DD2B1C"/>
<path fill-rule="evenodd" clip-rule="evenodd" d="M6.17493 17.7305H28.5492L25.8162 46.9244L25.8159 46.9273C25.6064 48.9646 23.8638 50.5822 21.8296 50.5822H12.9596C10.8619 50.5822 9.18228 49.03 8.97315 46.9262L8.97303 46.9251L8.44963 41.464L5.58049 40.3449L5.57987 40.3447C3.28671 39.4624 1.59995 37.3605 1.26162 34.9138L0.362246 28.7747C0.0754381 26.9638 1.44515 25.2954 3.31812 25.2954H6.89997L6.17493 17.7305ZM8.23554 39.2302L8.37995 40.737L5.81357 39.736L5.81215 39.7354C3.73532 38.9366 2.20875 37.0306 1.90393 34.8227L1.00368 28.6776L1.00307 28.6736C0.777031 27.2525 1.84947 25.9479 3.31812 25.9479H6.96251L7.09785 27.3599H3.51129C2.81024 27.3599 2.20276 27.9751 2.28909 28.7567L2.28981 28.7633L3.19028 34.7158C3.40014 36.2569 4.44228 37.5772 5.8893 38.2015L5.89029 38.2019L8.23554 39.2302ZM8.16432 38.4872L7.16039 28.0124H3.51129C3.18562 28.0124 2.89457 28.2994 2.93315 28.6788L3.83267 34.6251C4.00922 35.9274 4.89457 37.0627 6.1458 37.6021L6.14764 37.6029L8.16432 38.4872ZM6.88912 18.383L9.61858 46.8613C9.79532 48.6367 11.2008 49.9297 12.9596 49.9297H21.8296C23.5229 49.9297 24.9938 48.5738 25.1705 46.8616L25.1707 46.8602L27.8366 18.383H6.88912Z" fill="white"/>
</svg>
