<svg width="72" height="54" viewBox="0 0 72 54" fill="none" xmlns="http://www.w3.org/2000/svg">
<path d="M59.351 52.5782H40.0861V51.9257H58.7023V28.9577H66.7456L49.5564 2.72723L32.3672 28.9577H40.4104V42.334H39.7618V29.6102H31.1348L49.5564 1.55273L67.978 29.6102H59.351V52.5782Z" fill="#DD2B1C"/>
<path d="M22.7022 28.1096C17.2536 28.1096 12.8428 23.6726 12.8428 18.1916C12.8428 17.8654 12.8428 17.5391 12.9076 17.2129L13.5563 17.2781C13.5563 17.6044 13.4914 17.9306 13.4914 18.1916C13.4914 23.2811 17.6428 27.4571 22.7022 27.4571C27.7617 27.4571 31.913 23.2811 31.913 18.1916C31.913 17.8654 31.913 17.5391 31.8482 17.2781L32.4968 17.2129C32.5617 17.5391 32.5617 17.8654 32.5617 18.1916C32.5617 23.6074 28.1509 28.1096 22.7022 28.1096Z" fill="white"/>
<path d="M40.8653 52.5775H4.54102V46.5745C4.54102 39.7233 8.30318 33.8508 13.3626 32.9373C19.5897 31.8933 25.8816 31.8933 32.1086 32.9373C37.1032 33.7855 40.8653 39.658 40.8653 46.5093V52.5775ZM5.18966 51.925H40.2167V46.5745C40.2167 39.9843 36.6491 34.438 31.9789 33.5898C25.8167 32.5458 19.5897 32.5458 13.4275 33.5898C8.75723 34.3728 5.18966 39.9843 5.18966 46.5093V51.925Z" fill="white"/>
<path d="M10.3781 43.7051H9.72949V52.2528H10.3781V43.7051Z" fill="white"/>
<path d="M35.6106 43.7051H34.9619V52.2528H35.6106V43.7051Z" fill="white"/>
<path d="M26.919 41.2258H18.4865C17.4487 41.2258 16.6055 40.3776 16.6055 39.3336V32.8086H17.2541V39.3336C17.2541 40.0513 17.8379 40.5733 18.4865 40.5733H26.8541C27.5676 40.5733 28.0865 39.9861 28.0865 39.3336V32.8086H28.7352V39.3336C28.8001 40.3776 27.9568 41.2258 26.919 41.2258Z" fill="white"/>
<path d="M13.6861 49.2499H10.0537V48.5974H13.0375V33.2637H13.6861V49.2499Z" fill="white"/>
<path d="M35.2213 49.2499H31.5889V33.2637H32.2375V48.5974H35.2213V49.2499Z" fill="white"/>
<path d="M32.0432 17.1467L31.3945 13.1665C30.9405 10.4913 29.1243 8.40325 26.6594 7.75075L24.1945 7.09825C23.2216 6.83725 22.2486 6.83725 21.2756 7.09825L18.8108 7.75075C16.3459 8.40325 14.4648 10.4913 14.0756 13.1665L13.427 17.1467L12.7783 17.0163L13.427 13.036C13.881 10.0998 15.9567 7.816 18.681 7.09825L21.1459 6.44575C22.1837 6.18475 23.2864 6.18475 24.3891 6.44575L26.854 7.09825C29.5783 7.816 31.5891 10.0998 32.1081 13.036L32.7567 17.0163L32.0432 17.1467Z" fill="white"/>
<path d="M33.016 17.8653C26.2051 15.19 19.2646 15.19 12.4538 17.8653L12.1943 17.278C19.1997 14.5375 26.27 14.5375 33.2754 17.278L33.016 17.8653Z" fill="white"/>
<path d="M23.0266 5.59766H22.3779V6.44591H23.0266V5.59766Z" fill="white"/>
</svg>
