<svg width="64" height="53" viewBox="0 0 64 53" fill="none" xmlns="http://www.w3.org/2000/svg">
<g clip-path="url(#clip0_6095_364107)">
<path fill-rule="evenodd" clip-rule="evenodd" d="M25.7183 24.3789H38.0509V33.5134H37.5275L37.4691 24.9607H26.2963L26.24 33.5154L25.6582 33.5115L25.7183 24.3789Z" fill="white"/>
<path d="M29.3821 13.4395C29.033 13.905 28.5093 14.4286 27.9857 14.7195L27.1711 15.1268L27.8693 15.7086C29.4984 17.105 31.0111 18.9086 31.3021 22.5159H32.4657C32.7566 18.9086 34.3275 17.105 35.8984 15.7086L36.5966 15.1268L35.7821 14.7195C35.2584 14.4868 34.6766 13.9632 34.3857 13.4395C35.433 13.6141 36.5966 13.6723 37.7602 13.6723H38.3421H38.9239C41.0766 13.6723 43.0548 13.7886 43.2875 14.8941C43.3457 15.0686 43.2875 15.2432 43.2875 15.4759C42.9966 15.3014 42.6475 15.1268 42.2402 15.0686C42.0075 15.0105 41.7748 15.0105 41.5421 15.0105C38.6911 15.0105 36.4802 17.4541 35.6657 19.7232C35.0257 21.5268 35.1421 23.2141 36.0148 24.4359H27.8693C28.6839 23.1559 28.8584 21.4686 28.2184 19.7232C27.4039 17.4541 25.193 15.0105 22.3421 15.0105C22.1093 15.0105 21.8766 15.0105 21.6439 15.0686C21.2366 15.1268 20.8875 15.3014 20.5966 15.4759C20.5384 15.3014 20.5384 15.0686 20.5384 14.8941C20.7711 13.7886 22.6911 13.6723 24.9021 13.6723H25.4839H26.0657C27.1711 13.6723 28.3348 13.6141 29.3821 13.4395ZM33.513 12.625C33.4548 13.4395 34.5021 14.7777 35.5493 15.2432C33.8039 16.7559 32.233 18.6759 31.8839 22.4577C31.593 18.6759 29.9639 16.7559 28.2184 15.2432C29.2657 14.7777 30.313 13.4395 30.2548 12.625C29.0911 13.0323 27.5202 13.0905 25.9493 13.0905C25.5421 13.0905 25.193 13.0905 24.7857 13.0905C22.3421 13.0905 20.1311 13.2068 19.8402 14.7777C19.7239 15.3595 20.0148 16.2905 20.3057 16.5232C20.3639 16.3486 20.6548 15.7086 21.5857 15.5923C21.8184 15.5341 21.993 15.5341 22.2257 15.5341C26.5311 15.5341 29.9057 22.1086 26.5893 24.8432C26.5311 24.9014 26.5893 24.9595 26.6475 24.9595H37.0621C37.1202 24.9595 37.1784 24.9014 37.1202 24.8432C33.8039 22.1086 37.1784 15.5341 41.4839 15.5341C41.7166 15.5341 41.8911 15.5341 42.1239 15.5923C43.0548 15.7086 43.3457 16.3486 43.4039 16.5232C43.6948 16.2905 43.9857 15.3595 43.8693 14.7777C43.5784 13.2068 41.3675 13.0905 38.9239 13.0905C38.5166 13.0905 38.1675 13.0905 37.7602 13.0905C36.2475 13.0905 34.6766 13.0323 33.513 12.625Z" fill="white"/>
<path d="M8.61084 15.418C8.90175 16.1162 9.42539 16.8725 10.2399 17.5707" stroke="white" stroke-miterlimit="10"/>
<path d="M9.13477 21.6445C9.6584 22.0518 10.7057 22.4591 11.6366 22.4591" stroke="white" stroke-miterlimit="10"/>
<path d="M10.4727 26.5898C11.9272 26.9971 12.9163 26.5898 12.9163 26.5898" stroke="white" stroke-miterlimit="10"/>
<path d="M55.1564 15.418C54.8655 16.1162 54.3419 16.8725 53.5273 17.5707" stroke="white" stroke-miterlimit="10"/>
<path d="M54.5746 21.6445C54.0509 22.0518 53.0037 22.4591 52.0728 22.4591" stroke="white" stroke-miterlimit="10"/>
<path d="M53.2947 26.5898C51.8402 26.9971 50.8511 26.5898 50.8511 26.5898" stroke="white" stroke-miterlimit="10"/>
<path fill-rule="evenodd" clip-rule="evenodd" d="M32.3872 35.4887L32.7704 36.6839L33.3245 36.5062L32.9606 35.3716C33.1584 35.3143 33.3415 35.2425 33.5098 35.1599C33.9407 34.9484 34.269 34.6688 34.4921 34.3908C34.7062 34.1242 34.8508 33.824 34.8508 33.5678C34.8508 33.3488 34.7689 33.1496 34.5845 33.0301C34.4183 32.9223 34.2217 32.915 34.0605 32.938C33.8776 32.9641 33.6828 33.0371 33.5042 33.1393C33.4869 33.0891 33.4691 33.0395 33.4517 32.9911L33.4401 32.9587C33.366 32.7522 33.2951 32.5493 33.2525 32.3334C33.1766 31.9477 33.1892 31.5119 33.5046 30.995C33.7848 30.9597 34.0331 31.0084 34.19 31.125C34.3351 31.2327 34.4636 31.4451 34.3893 31.8909L34.9632 31.9865C35.0634 31.385 34.901 30.9283 34.537 30.6579C34.2685 30.4585 33.9299 30.3911 33.6059 30.4035C33.587 30.3329 33.57 30.2627 33.5543 30.193C33.5597 30.1931 33.5652 30.1932 33.5708 30.1932C33.6673 30.1932 33.7425 30.1508 33.7715 30.1337C33.8105 30.1106 33.8459 30.0833 33.8734 30.0604C33.9272 30.0155 33.9786 29.9641 34.0069 29.9358L34.016 29.9266L34.0224 29.9194C34.2648 29.6424 34.425 29.2759 34.4431 28.9132C34.4616 28.5442 34.3303 28.1604 33.9684 27.9172C33.7748 27.7815 33.5223 27.7791 33.3287 27.7994C33.1174 27.8214 32.8904 27.8808 32.6892 27.9453C32.4944 28.0078 32.3134 28.0786 32.1783 28.135C32.1521 28.0881 32.1245 28.0374 32.0981 27.9866C32.0612 27.9154 32.0299 27.8501 32.0081 27.7973C32.033 27.7683 32.0598 27.7349 32.0854 27.6983C32.1477 27.6093 32.2326 27.4614 32.2326 27.2842C32.2326 27.1494 32.1739 26.9997 32.0816 26.8842C31.9818 26.7596 31.8171 26.6442 31.5926 26.6442C31.4043 26.6442 31.2123 26.7149 31.0669 26.8603C30.9307 26.9964 30.85 27.1831 30.8378 27.4005H30.5677L30.5329 27.4092C30.4973 27.4181 30.4586 27.4286 30.4175 27.4404L29.8918 25.8008L29.3377 25.9784L29.8697 27.6374C29.7562 27.686 29.6419 27.7404 29.5333 27.7997C29.3611 27.8936 29.189 28.0073 29.056 28.1403C28.9268 28.2694 28.7999 28.4522 28.7999 28.6805C28.7999 29.0945 29.0964 29.3894 29.39 29.5687C29.6792 29.7455 30.0358 29.8572 30.3535 29.8957C30.3593 29.9017 30.3658 29.9088 30.373 29.9171C30.3384 29.975 30.2971 30.0433 30.2539 30.1135C30.2175 30.1727 30.1802 30.2324 30.1445 30.288C30.0163 30.1771 29.8702 30.0542 29.7319 29.956C29.6108 29.8701 29.4732 29.786 29.3332 29.738C29.196 29.691 29.0037 29.6619 28.8247 29.7692L28.8119 29.777L28.7999 29.786C28.6003 29.9356 28.5089 30.1584 28.5089 30.3896C28.5089 30.614 28.593 30.8438 28.7323 31.0528L28.7368 31.0595L28.7417 31.066C28.8608 31.2248 28.8845 31.3873 28.7831 31.5563L28.5188 31.9969H29.0326C29.2123 31.9969 29.3598 31.9937 29.4768 31.991C29.4428 32.1435 29.4357 32.2934 29.4296 32.421C29.4284 32.4472 29.4272 32.4725 29.4258 32.4966C29.412 32.7377 29.386 32.9534 29.2521 33.1795C29.1071 33.3948 28.9385 33.5284 28.796 33.6256C28.7733 33.6411 28.7429 33.6609 28.7117 33.6814C28.6665 33.7109 28.6195 33.7416 28.5913 33.762C28.562 33.7832 28.5208 33.8148 28.4851 33.8555C28.4507 33.895 28.3926 33.9758 28.3926 34.0914C28.3926 34.5896 28.7138 34.8947 29.0416 35.0352C29.2041 35.1048 29.3773 35.1396 29.5361 35.1432C29.6374 35.1454 29.7469 35.1352 29.8495 35.1037C30.8348 35.487 31.6825 35.5765 32.3872 35.4887ZM32.7829 34.8172C32.9557 34.7682 33.1125 34.7068 33.2535 34.6375C33.6081 34.4635 33.8689 34.2377 34.0385 34.0266C34.2171 33.8041 34.2689 33.6316 34.2689 33.5678C34.2689 33.5398 34.2659 33.5243 34.2633 33.5164C34.2515 33.5123 34.2157 33.5035 34.1428 33.514C33.958 33.5404 33.7085 33.6669 33.5437 33.8317L33.144 34.2314L33.0511 33.6738C33.0274 33.5319 32.9701 33.3719 32.8942 33.1602L32.8924 33.155C32.8191 32.9506 32.7337 32.7099 32.6817 32.4458C32.577 31.9143 32.6099 31.2995 33.0595 30.6103C32.9909 30.3658 32.9448 30.1278 32.9055 29.9246C32.8966 29.8783 32.8879 29.8336 32.8795 29.7912C32.8465 29.6565 32.8119 29.4367 32.8301 29.236C32.8392 29.1359 32.8641 29.0081 32.9365 28.8975C33.0201 28.7698 33.159 28.6805 33.338 28.6805C33.5519 28.6805 33.6599 28.8389 33.6998 28.9407C33.7378 29.0376 33.7453 29.1443 33.7453 29.226C33.7453 29.2511 33.7446 29.2767 33.7431 29.3025C33.8134 29.1663 33.8552 29.0204 33.862 28.8842C33.8726 28.6726 33.8011 28.5049 33.6421 28.3989L33.6382 28.3963L33.6344 28.3936C33.6344 28.3936 33.6305 28.3909 33.6204 28.3874C33.6099 28.3837 33.5942 28.3796 33.5721 28.3766C33.5268 28.3704 33.4659 28.37 33.3892 28.378C33.235 28.3941 33.0512 28.4402 32.8669 28.4993C32.6848 28.5577 32.5132 28.6253 32.3863 28.6787C32.3231 28.7052 32.2717 28.728 32.2363 28.744C32.2187 28.752 32.2051 28.7583 32.1961 28.7625L32.1861 28.7672L32.1839 28.7682L31.9474 28.8813L31.8103 28.6584L31.8098 28.6576L31.8086 28.6557L31.8043 28.6487L31.7889 28.6232C31.7758 28.6015 31.7574 28.5705 31.7357 28.5333C31.6926 28.4592 31.6355 28.3583 31.5816 28.2544C31.5368 28.168 31.4898 28.0711 31.4556 27.9823H30.6408C30.6263 27.9862 30.6108 27.9903 30.5952 27.9947L32.7829 34.8172ZM30.0482 28.1942C29.9678 28.2301 29.8878 28.269 29.8119 28.3104C29.664 28.3911 29.5453 28.4738 29.4674 28.5517C29.3856 28.6334 29.3817 28.6761 29.3817 28.6805C29.3817 28.7901 29.4633 28.9317 29.6934 29.0723C29.8992 29.1981 30.1674 29.2848 30.408 29.3162L30.0482 28.1942ZM30.7573 30.4056L32.2059 34.9231C31.599 34.9788 30.8511 34.8845 29.9569 34.5202L29.8222 34.4653L29.6975 34.5402C29.6975 34.5401 29.6967 34.5406 29.6948 34.5415C29.693 34.5423 29.6903 34.5435 29.6867 34.5448C29.6793 34.5475 29.6689 34.5506 29.6553 34.5533C29.6279 34.559 29.5919 34.5625 29.549 34.5615C29.4624 34.5596 29.3629 34.5398 29.2708 34.5004C29.1235 34.4373 29.0199 34.3388 28.9862 34.1968L29.0073 34.1832C29.0359 34.1648 29.0713 34.1421 29.1237 34.1063C29.2999 33.9862 29.5368 33.8013 29.7401 33.4964L29.7439 33.4907L29.7475 33.4847C29.9596 33.1311 29.9915 32.7958 30.0066 32.5298L30.0102 32.466C30.0236 32.2256 30.031 32.0916 30.0958 31.9736C30.114 31.9455 30.1378 31.9047 30.1534 31.8567C30.1715 31.8007 30.1919 31.6892 30.1227 31.5774C30.06 31.4761 29.9633 31.4415 29.9201 31.4292C29.8713 31.4152 29.8219 31.4105 29.7842 31.4083C29.7082 31.4038 29.6058 31.4061 29.4911 31.4087L29.4269 31.4102C29.4444 31.157 29.356 30.9184 29.2126 30.7242C29.1221 30.5866 29.0908 30.4695 29.0908 30.3896C29.0908 30.3395 29.1021 30.3055 29.1197 30.281C29.1263 30.2826 29.1346 30.285 29.1447 30.2885C29.2065 30.3096 29.2907 30.3564 29.3951 30.4305C29.5413 30.5342 29.6836 30.6582 29.8213 30.7782C29.8852 30.834 29.9481 30.8888 30.01 30.9404L30.2141 31.1104L30.4019 30.9226C30.4551 30.8694 30.5181 30.7785 30.5692 30.7019C30.6266 30.6158 30.6905 30.5142 30.7494 30.4184C30.7521 30.4142 30.7547 30.4099 30.7573 30.4056ZM31.4197 27.5145L31.451 27.5457C31.4683 27.518 31.4912 27.4911 31.5215 27.4673C31.5481 27.4401 31.5807 27.4047 31.6088 27.3646C31.6259 27.3401 31.6377 27.319 31.6446 27.3022C31.6471 27.2961 31.6486 27.2915 31.6495 27.2883L31.648 27.2841C31.6435 27.2721 31.6362 27.2589 31.6272 27.2477C31.6185 27.2367 31.611 27.2314 31.6067 27.229C31.6038 27.2275 31.6003 27.226 31.5926 27.226C31.5482 27.226 31.5074 27.2425 31.4783 27.2717C31.4519 27.2981 31.418 27.3519 31.418 27.4587C31.418 27.4735 31.4181 27.4856 31.4186 27.4982C31.4189 27.5043 31.4193 27.5097 31.4197 27.5145ZM34.2607 33.5103C34.2602 33.5097 34.2599 33.5095 34.2598 33.5096C34.2596 33.5098 34.2603 33.5115 34.2624 33.5137C34.2617 33.5121 34.2611 33.511 34.2607 33.5103ZM29.0975 30.2776C29.0973 30.2776 29.0975 30.2776 29.0975 30.2776V30.2776ZM29.6101 31.6529C29.6101 31.6529 29.6099 31.6533 29.6094 31.6541L29.6101 31.6529Z" fill="#DD2B1C"/>
<path fill-rule="evenodd" clip-rule="evenodd" d="M31.8253 0.691406L33.931 2.79717C34.6018 2.84768 35.2276 3.08685 35.5861 3.61602C35.9686 4.18064 35.9817 4.97795 35.5868 5.98035L35.5845 5.98616L35.582 5.99187C35.4572 6.27269 35.171 6.76837 34.926 7.17911C34.8015 7.38778 34.6845 7.57982 34.5986 7.71964C34.5685 7.76859 34.5422 7.81117 34.5208 7.84587C34.8139 9.03468 35.7631 9.73707 36.6838 10.0398C36.6559 9.98071 36.631 9.92258 36.6129 9.86936C36.3376 9.13247 36.3389 8.51575 36.6289 8.07117C36.8935 7.66537 37.3474 7.48053 37.8389 7.44943L39.2725 5.42925L40.7062 7.44943C41.1976 7.48053 41.6515 7.66537 41.9162 8.07117C42.2054 8.51463 42.2075 9.12937 41.9342 9.86381C41.8877 10.0194 41.7948 10.201 41.694 10.3719C42.0654 10.2076 42.5073 9.97532 42.8891 9.67494C43.3075 9.34569 43.6252 8.95718 43.7294 8.51345C43.8302 8.08384 43.7445 7.54189 43.2301 6.86504L43.1378 6.74365L43.1851 6.59871C43.4204 5.87809 43.7111 5.40883 44.1092 5.2322C44.5379 5.04198 44.9499 5.24326 45.2662 5.48242C45.5674 5.71011 45.8702 6.03892 46.1489 6.34163L46.2119 6.40993C46.5212 6.74525 46.7976 7.0351 47.0517 7.20065C47.1601 7.26918 47.3426 7.32343 47.6016 7.37109C47.7267 7.39411 47.86 7.4141 48.0003 7.43472L48.0396 7.44048C48.1663 7.45906 48.2981 7.47839 48.4271 7.50045C48.707 7.54833 49.0038 7.61358 49.2472 7.73198C49.4958 7.85294 49.7277 8.04994 49.797 8.37351L49.7987 8.38127L49.7999 8.3891C49.861 8.77561 49.7142 9.06376 49.5274 9.29593C49.4383 9.40673 49.3346 9.51162 49.2391 9.60817L49.2367 9.61064C49.1379 9.71059 49.0443 9.80529 48.957 9.90902C48.786 10.1123 48.6484 10.3401 48.5968 10.6504C48.5446 10.9645 48.5758 11.3925 48.7969 12.0005L49.1309 12.9191L48.349 12.3326C48.2462 12.2556 48.0642 12.1372 47.8572 12.032C47.6464 11.9249 47.4334 11.8437 47.2632 11.821C47.0883 11.7977 47.0477 11.8427 47.0335 11.8648C46.9978 11.9201 46.9472 12.1009 47.0603 12.553L47.1506 12.9145H46.7781C46.7068 12.9145 46.6414 12.8954 46.5938 12.8776C46.5421 12.8583 46.4897 12.8324 46.4391 12.8027C46.3379 12.7434 46.2293 12.6607 46.1287 12.5602C45.9331 12.3646 45.7308 12.0622 45.7308 11.6926C45.7308 10.9921 46.2128 10.4935 46.5957 10.0974L46.627 10.0651C47.0541 9.62272 47.3599 9.28561 47.3599 8.84174C47.3599 8.20188 46.8657 7.84656 46.2457 7.68303C45.9442 7.60353 45.646 7.58127 45.4345 7.59395C45.414 7.59518 45.395 7.5967 45.3773 7.59843C45.5638 8.34234 45.5797 9.21883 45.0224 9.93654C44.4074 10.7285 43.1703 11.2272 41.0181 11.2272H38.9533L38.9591 11.2255H24.7497L24.7554 11.2272H22.6907C20.5385 11.2272 19.3014 10.7285 18.6864 9.93653C18.129 9.21883 18.145 8.34234 18.3315 7.59843C18.3138 7.5967 18.2947 7.59518 18.2742 7.59395C18.0627 7.58127 17.7645 7.60353 17.4631 7.68303C16.843 7.84656 16.3489 8.20188 16.3489 8.84174C16.3489 9.28561 16.6547 9.62272 17.0818 10.0651L17.113 10.0974C17.496 10.4935 17.978 10.9921 17.978 11.6926C17.978 12.0622 17.7756 12.3646 17.5801 12.5602C17.4795 12.6607 17.3708 12.7434 17.2697 12.8027C17.2191 12.8324 17.1667 12.8583 17.115 12.8776C17.0674 12.8954 17.002 12.9145 16.9307 12.9145H16.5581L16.6485 12.553C16.7615 12.1009 16.7109 11.9201 16.6753 11.8648C16.661 11.8427 16.6205 11.7977 16.4455 11.821C16.2753 11.8437 16.0624 11.9249 15.8516 12.032C15.6446 12.1372 15.4626 12.2556 15.3598 12.3326L14.5778 12.9191L14.9119 12.0005C15.1334 11.3914 15.1682 10.9622 15.1196 10.647C15.0716 10.3362 14.9385 10.1089 14.7718 9.90692C14.6864 9.80343 14.5939 9.70865 14.496 9.60894L14.484 9.59674C14.3926 9.50377 14.2937 9.4032 14.2074 9.29783C14.0207 9.06977 13.8665 8.78702 13.9069 8.40401L13.9085 8.38864L13.9117 8.37351C13.9811 8.04994 14.213 7.85294 14.4616 7.73198C14.7049 7.61358 15.0018 7.54833 15.2817 7.50045C15.4106 7.4784 15.5424 7.45907 15.669 7.4405L15.7084 7.43472C15.8487 7.4141 15.9821 7.39411 16.1072 7.37109C16.3661 7.32343 16.5487 7.26918 16.6571 7.20065C16.9112 7.0351 17.1875 6.74525 17.4969 6.40993L17.5598 6.34162C17.8386 6.03892 18.1414 5.7101 18.4425 5.48242C18.7588 5.24326 19.1709 5.04198 19.5996 5.2322C19.9977 5.40883 20.2883 5.87809 20.5236 6.59871L20.5709 6.74365L20.4787 6.86504C19.9643 7.54189 19.8786 8.08384 19.9794 8.51345C20.0835 8.95718 20.4013 9.34569 20.8197 9.67494C21.1485 9.93368 21.522 10.1419 21.8566 10.2997C21.7724 10.1507 21.6981 9.99761 21.6581 9.8638C21.3849 9.12937 21.3869 8.51463 21.6761 8.07117C21.9408 7.66537 22.3947 7.48053 22.8861 7.44943L24.3198 5.42925L25.7535 7.44943C26.2449 7.48053 26.6988 7.66537 26.9635 8.07117C27.252 8.51365 27.2547 9.12665 26.9833 9.85893C26.9669 9.92177 26.9472 9.9841 26.9241 10.0459C27.865 9.7561 28.78 9.08295 29.0716 7.84994C29.0506 7.81709 29.0251 7.7772 28.996 7.73151C28.9099 7.59582 28.7924 7.40864 28.6675 7.20288C28.4225 6.79931 28.1329 6.29883 28.0061 5.98176L28.0055 5.98035C27.6108 4.97838 27.623 4.17906 28.0153 3.61339C28.3827 3.08359 29.0242 2.84634 29.7198 2.79682L31.8253 0.691406ZM22.7779 10.6437H25.8623L26.1234 10.2955C26.2795 10.0874 26.376 9.88937 26.423 9.70135L26.427 9.68527L26.4329 9.66976C26.6794 9.01236 26.6219 8.61258 26.4761 8.389C26.3318 8.16772 26.0398 8.02645 25.5998 8.02645H25.4495L24.3198 6.43456L23.1901 8.02645H23.0398C22.5998 8.02645 22.3078 8.16772 22.1635 8.389C22.0177 8.61258 21.9602 9.01236 22.2067 9.66976L22.2108 9.68073L22.2141 9.69199C22.258 9.84577 22.4065 10.1011 22.5691 10.3451C22.6463 10.4608 22.7201 10.5646 22.7748 10.6396L22.7779 10.6437ZM26.9487 10.6437H36.6715C35.5347 10.3184 34.2567 9.45164 33.9258 7.85266L33.9022 7.73845L33.964 7.63954L33.9736 7.62413L34.0014 7.57936C34.0256 7.54046 34.0604 7.48422 34.1028 7.41507C34.1878 7.27672 34.3035 7.08694 34.4263 6.88106C34.674 6.4659 34.9383 6.00546 35.0478 5.76116C35.4067 4.84703 35.3323 4.27881 35.1044 3.94233C34.8724 3.59981 34.4153 3.39878 33.7908 3.37163L33.6777 3.36671L31.8253 1.51422L29.9725 3.36693L29.8592 3.37165C29.2023 3.39902 28.7312 3.60206 28.4934 3.94497C28.2603 4.28103 28.1852 4.84876 28.5465 5.76637C28.6526 6.03122 28.9155 6.4903 29.1648 6.90093C29.2872 7.10244 29.4024 7.28617 29.4872 7.41957C29.5295 7.48623 29.5642 7.54023 29.5882 7.57748L29.6158 7.62025L29.623 7.63125L29.6902 7.7343L29.6669 7.85077C29.3377 9.49664 28.1085 10.3271 26.9487 10.6437ZM37.6482 10.6437H40.8145C40.8155 10.6423 40.8165 10.641 40.8175 10.6396C40.8722 10.5646 40.9461 10.4608 41.0232 10.3451C41.1858 10.1011 41.3343 9.84577 41.3783 9.69199L41.3815 9.68073L41.3856 9.66976C41.6321 9.01236 41.5747 8.61258 41.4289 8.389C41.2845 8.16772 40.9925 8.02645 40.5525 8.02645H40.4023L39.2725 6.43456L38.1428 8.02645H37.9925C37.5525 8.02645 37.2605 8.16772 37.1162 8.389C36.9704 8.61258 36.9129 9.01236 37.1595 9.66976L37.1613 9.6748L37.163 9.67991C37.1834 9.74089 37.23 9.83679 37.2969 9.96307C37.3166 10.0002 37.338 10.04 37.36 10.0809C37.4065 10.1672 37.4557 10.2587 37.4964 10.34L37.6482 10.6437ZM15.793 8.01036C15.8641 7.99991 15.9361 7.98924 16.0076 7.97797C15.8591 8.21111 15.7671 8.49596 15.7671 8.84174C15.7671 9.54231 16.2491 10.0409 16.632 10.4369L16.6633 10.4693C17.0904 10.9117 17.3962 11.2488 17.3962 11.6926C17.3962 11.7916 17.3597 11.8941 17.2968 11.9916C17.2859 11.8215 17.2439 11.673 17.1643 11.5496C16.9677 11.2445 16.63 11.2094 16.3686 11.2443C16.1305 11.276 15.8801 11.3716 15.6633 11.476C15.7298 11.1287 15.7359 10.8265 15.6946 10.5583C15.6262 10.1145 15.432 9.79277 15.2205 9.53656C15.1169 9.41096 15.0075 9.29938 14.9109 9.20113L14.9076 9.19776C14.8092 9.09766 14.7268 9.01379 14.6576 8.92929C14.5288 8.77184 14.4715 8.64343 14.4839 8.48171C14.5053 8.40303 14.5662 8.32813 14.7162 8.25514C14.8802 8.17536 15.107 8.12061 15.3798 8.07394C15.5015 8.05312 15.6264 8.0348 15.7542 8.01605L15.793 8.01036ZM18.309 7.01317C18.1345 7.00271 17.9249 7.01055 17.7027 7.04221C17.7781 6.96292 17.8522 6.88288 17.9245 6.80446L17.9755 6.74916C18.2672 6.43274 18.536 6.14119 18.7934 5.94651C19.0735 5.73476 19.2432 5.7106 19.3636 5.76401C19.5042 5.82638 19.7095 6.0416 19.9228 6.63937C19.4078 7.36839 19.271 8.04171 19.413 8.64639C19.5597 9.27176 19.9911 9.76325 20.4599 10.1322C20.6389 10.273 20.8274 10.3992 21.0152 10.5113C20.0175 10.3271 19.4516 9.97325 19.1459 9.57967C18.7023 9.00848 18.7316 8.25448 18.9542 7.53093L18.9585 7.51686L18.9614 7.50243C18.9904 7.3578 18.9217 7.24529 18.8566 7.18356C18.7985 7.12838 18.73 7.09749 18.6796 7.0792C18.5744 7.041 18.4431 7.0212 18.309 7.01317ZM43.786 6.63937C43.9993 6.0416 44.2046 5.82638 44.3451 5.76401C44.4655 5.7106 44.6353 5.73476 44.9153 5.94651C45.1728 6.14116 45.4415 6.43263 45.7331 6.749L45.7842 6.80446C45.8566 6.88288 45.9307 6.96292 46.0061 7.04221C45.7838 7.01055 45.5743 7.00271 45.3997 7.01317C45.2657 7.0212 45.1344 7.041 45.0291 7.0792C44.9788 7.09749 44.9103 7.12838 44.8522 7.18356C44.7871 7.24529 44.7184 7.3578 44.7473 7.50243L44.7502 7.51686L44.7546 7.53093C44.9772 8.25448 45.0064 9.00848 44.5628 9.57967C44.2572 9.97325 43.6913 10.3271 42.6936 10.5113C42.8813 10.3992 43.0699 10.273 43.2489 10.1322C43.7177 9.76325 44.149 9.27176 44.2958 8.64639C44.4377 8.04171 44.301 7.36839 43.786 6.63937ZM47.9417 8.84174C47.9417 8.49596 47.8497 8.21111 47.7011 7.97797C47.7727 7.98924 47.8447 7.99991 47.9158 8.01036L47.9545 8.01605C48.0824 8.0348 48.2073 8.05312 48.329 8.07394C48.6018 8.12061 48.8286 8.17536 48.9926 8.25514C49.1468 8.33018 49.2068 8.40726 49.2265 8.48837C49.2498 8.6504 49.1997 8.77517 49.0741 8.93119C49.0064 9.01531 48.9239 9.0995 48.824 9.20052L48.8166 9.208C48.7219 9.30375 48.6142 9.41273 48.5118 9.53446C48.2974 9.78937 48.0968 10.1107 48.0229 10.5549C47.9781 10.8243 47.9817 11.1279 48.0471 11.4768C47.8299 11.372 47.5788 11.2761 47.3401 11.2443C47.0787 11.2094 46.7411 11.2445 46.5444 11.5496C46.4649 11.673 46.4229 11.8215 46.4119 11.9916C46.3491 11.8941 46.3126 11.7916 46.3126 11.6926C46.3126 11.2488 46.6184 10.9117 47.0455 10.4693L47.0767 10.4369C47.4597 10.0409 47.9417 9.54231 47.9417 8.84174ZM45.2207 7.62891L45.2227 7.62804C45.2214 7.6287 45.2207 7.62891 45.2207 7.62891Z" fill="white"/>
<path fill-rule="evenodd" clip-rule="evenodd" d="M9.7432 7.83983L9.53529 7.42825L9.25335 7.79312C8.23095 9.11622 7.5658 10.6869 7.5055 12.6165L7.50536 12.621V12.6255C7.50536 13.164 7.56412 13.7894 7.81776 14.3647C7.9075 14.6037 7.98981 14.809 8.06279 14.9825C7.65862 14.7328 7.26281 14.3932 6.90607 14.0008L6.62048 13.6866L6.43062 14.0663C5.75326 15.4211 5.69434 16.7815 6.1821 18.2448C6.54836 19.3436 7.21819 20.3163 8.12528 21.1036L8.6543 21.5974C7.98284 21.8002 7.27773 21.7568 6.56023 21.4877L6.1356 21.3285L6.16792 21.7808C6.22838 22.6273 6.41169 23.4894 6.96499 24.4116L6.96622 24.4136C7.57367 25.4076 8.5237 26.1986 9.59568 26.66C9.30572 26.7631 8.97076 26.861 8.60358 26.9457L8.29184 27.0177L8.39301 27.3212C8.42872 27.4283 8.48029 27.5314 8.52138 27.6135L8.52516 27.6211C8.57077 27.7123 8.60437 27.7807 8.62574 27.8448L8.63228 27.8644L8.64152 27.8829C9.43078 29.4614 11.0997 30.4377 12.8404 30.4855C12.5792 30.789 12.2224 31.0422 11.7879 31.2792L11.3827 31.5002L11.7569 31.7705C12.7481 32.4864 13.9277 32.8498 15.1959 32.9605C15.0626 33.1606 14.8671 33.3733 14.6035 33.571L14.0925 33.9543L15.5295 34.2622L15.5304 34.2624C18.7457 34.9765 22.0234 32.964 22.7519 29.7405C23.1523 29.7709 23.7008 29.8789 24.234 30.1259C24.8777 30.424 25.481 30.9152 25.7953 31.7009L26.1817 33.1641V26.1823L25.9818 26.3105C24.8586 26.6475 23.7399 26.7019 22.9697 26.5928C21.4611 26.3213 20.3635 25.1465 20.3635 23.6801C20.3635 22.8382 20.7308 22.0997 21.3156 21.5681L21.6197 21.2916L21.2578 21.0967C16.0408 18.2875 12.5839 13.4634 9.7432 7.83983ZM8.92162 15.4486L8.92038 15.4464L8.91387 15.4345C8.90779 15.4233 8.89828 15.4056 8.88557 15.381C8.86013 15.3318 8.82187 15.2554 8.77261 15.1498C8.67409 14.9387 8.53154 14.6111 8.35956 14.1525L8.35653 14.1444L8.35301 14.1365C8.14485 13.6681 8.08752 13.1351 8.08718 12.6301C8.13847 11.0163 8.64199 9.67723 9.43905 8.52427C12.2005 13.8922 15.5929 18.5806 20.6433 21.4225C20.1109 22.0254 19.7817 22.8051 19.7817 23.6801C19.7817 25.4702 21.1254 26.8545 22.8724 27.1665L22.8774 27.1674L22.8824 27.1681C23.6518 27.278 24.7003 27.2393 25.7744 26.9707V30.5568C25.4004 30.1206 24.9401 29.8117 24.4785 29.5979C23.7442 29.2578 22.9889 29.1492 22.5163 29.1492H22.2735L22.23 29.388C21.6788 32.42 18.642 34.3579 15.6557 33.6943L15.6536 33.6938L15.3972 33.6389C15.6552 33.3621 15.8342 33.0681 15.9268 32.7903L16.049 32.4237L15.6629 32.4076C14.4746 32.3581 13.3912 32.0925 12.4761 31.5475C12.9641 31.2315 13.382 30.8463 13.6419 30.3265L13.8524 29.9055H12.9744C11.3948 29.9055 9.87734 29.0362 9.1704 27.6396C9.14374 27.5643 9.11003 27.4915 9.07857 27.4273C9.70416 27.2612 10.2429 27.0555 10.617 26.8418L11.3531 26.4211L10.135 26.2471C9.04174 25.8577 8.06137 25.0893 7.4633 24.1112C7.06098 23.4404 6.87655 22.8069 6.79185 22.1719C7.64469 22.3972 8.50233 22.3451 9.31565 21.9655L9.70617 21.7833L8.51448 20.671L8.51043 20.6675C7.67414 19.9427 7.06544 19.055 6.73407 18.0608C6.33742 16.8709 6.34182 15.785 6.77925 14.706C7.31813 15.2285 7.93953 15.6563 8.577 15.8688L9.29934 16.1096L8.92162 15.4486Z" fill="white"/>
<path fill-rule="evenodd" clip-rule="evenodd" d="M54.1712 7.4249L54.4557 7.79312C55.4781 9.11622 56.1433 10.6869 56.2036 12.6165L56.2037 12.621V12.6255C56.2037 13.164 56.145 13.7894 55.8913 14.3647C55.8016 14.6037 55.7193 14.809 55.6463 14.9825C56.0505 14.7328 56.4463 14.3932 56.803 14.0008L57.0886 13.6866L57.2785 14.0663C57.9558 15.4211 58.0147 16.7815 57.527 18.2448C57.1607 19.3436 56.4909 20.3163 55.5838 21.1036L55.0548 21.5974C55.7262 21.8002 56.4314 21.7568 57.1489 21.4877L57.5735 21.3285L57.5412 21.7808C57.4807 22.6273 57.2974 23.4894 56.7441 24.4116L56.7429 24.4136C56.1021 25.462 55.0803 26.2847 53.9362 26.7328C54.2521 26.8518 54.6288 26.9655 55.0473 27.0621L55.3591 27.134L55.2579 27.4375C55.2222 27.5446 55.1706 27.6477 55.1295 27.7299L55.1257 27.7375C55.0801 27.8287 55.0465 27.8971 55.0252 27.9612L55.0186 27.9808L55.0094 27.9993C54.2201 29.5778 52.5512 30.554 50.8105 30.6019C51.0717 30.9054 51.4285 31.1586 51.863 31.3956L52.2682 31.6166L51.8941 31.8868C50.9028 32.6027 49.7232 32.9662 48.455 33.0769C48.5883 33.2769 48.7838 33.4897 49.0474 33.6874L49.5585 34.0707L48.1153 34.3799C45.1279 34.9774 41.8063 32.9067 41.1283 29.7394C40.2404 29.7999 38.4433 30.2667 37.8181 31.7096V32.0005H37.5272V26.1823L37.8437 26.2524C38.9668 26.5893 40.0855 26.6437 40.8557 26.5346C42.3643 26.2631 43.4619 25.0883 43.4619 23.6219C43.4619 22.7801 43.0947 22.0415 42.5099 21.5099L42.2044 21.2322L42.5686 21.0379C47.7261 18.2873 51.1826 13.4644 53.9648 7.84197L54.1712 7.4249ZM54.7875 15.4485L54.7887 15.4464L54.7952 15.4345C54.8013 15.4233 54.8108 15.4056 54.8235 15.381C54.849 15.3318 54.8872 15.2554 54.9365 15.1498C55.035 14.9387 55.1775 14.6111 55.3495 14.1525L55.3526 14.1444L55.3561 14.1365C55.5642 13.6681 55.6216 13.1351 55.6219 12.6301C55.5707 11.018 55.0681 9.67998 54.2725 8.52783C51.565 13.8925 48.1769 18.5769 43.1831 21.3654C43.715 21.9682 44.0437 22.7475 44.0437 23.6219C44.0437 25.412 42.7001 26.7963 40.9531 27.1083L40.9481 27.1092L40.9431 27.1099C40.1736 27.2198 39.1252 27.1811 38.051 26.9125V30.665C39.0141 29.4105 40.593 29.1492 41.3674 29.1492H41.6138L41.6543 29.3923C42.1501 32.3669 45.2474 34.3589 47.9993 33.8098L48.0012 33.8094L48.2537 33.7552C47.9958 33.4785 47.8167 33.1845 47.7241 32.9066L47.6019 32.5401L47.988 32.524C49.1763 32.4745 50.2597 32.2089 51.1748 31.6638C50.6868 31.3479 50.2689 30.9627 50.009 30.4429L49.7985 30.0219H50.6765C52.2561 30.0219 53.7736 29.1526 54.4805 27.7559C54.5072 27.6806 54.5409 27.6079 54.5723 27.5437C53.9467 27.3775 53.408 27.1719 53.0339 26.9581L52.496 26.6507L53.5476 26.2563C54.6515 25.87 55.6429 25.0972 56.2458 24.1112C56.6481 23.4404 56.8325 22.8069 56.9172 22.1718C56.0644 22.3972 55.2068 22.3451 54.3934 21.9655L54.0029 21.7833L55.1946 20.671L55.1987 20.6675C56.0349 19.9427 56.6436 19.055 56.975 18.0608C57.3717 16.8709 57.3673 15.785 56.9298 14.706C56.391 15.2285 55.7696 15.6563 55.1321 15.8688L54.4097 16.1096L54.7875 15.4485Z" fill="white"/>
<path d="M38.1093 47.7689C37.702 46.7216 37.1202 45.9071 36.3057 45.4416L36.5966 44.918C37.5275 45.4416 38.2257 46.3725 38.6911 47.5361L38.1093 47.7689Z" fill="white"/>
<path d="M34.7929 49.3392C34.5602 48.4083 34.2111 47.5356 33.7456 46.7792L34.2692 46.4883C34.7347 47.3028 35.142 48.1756 35.3747 49.1646L34.7929 49.3392Z" fill="white"/>
<path d="M25.5998 47.7654L25.0762 47.5908C25.5416 46.369 26.2398 45.4963 27.1707 44.9727L27.4616 45.4963C26.6471 45.9036 26.0071 46.6599 25.5998 47.7654Z" fill="white"/>
<path d="M28.9163 49.3392L28.3345 49.1646C28.6254 48.1756 28.9745 47.2446 29.4399 46.4883L29.9636 46.7792C29.5563 47.5356 29.2072 48.4083 28.9163 49.3392Z" fill="white"/>
<path d="M31.8837 52.4224L31.7673 52.3642C30.6037 51.8988 29.6146 51.0842 28.8001 49.9788C28.8001 50.1533 28.7419 50.2697 28.7419 50.386V50.7933L28.3346 50.6188C27.5201 50.2697 26.0655 49.5133 25.3673 48.466C25.3673 48.5824 25.3091 48.6406 25.3091 48.6988L25.251 48.9897H25.0182C24.3201 48.8733 23.5637 48.2915 23.2146 47.6515C22.9819 47.186 22.9237 46.7788 23.0401 46.3715C23.7382 44.2769 27.1128 42.4151 30.0219 41.6588C29.3819 39.9715 28.7419 38.866 28.1601 38.5169C27.5782 38.1097 26.9382 38.1679 26.4728 38.5751C25.9491 38.9824 25.6001 39.9133 26.0073 40.9024C26.1237 41.1351 26.0655 41.3679 25.9491 41.5424C25.8328 41.7169 25.6001 41.8333 25.3673 41.8333C23.7382 41.8333 21.8182 42.3569 20.7128 43.0551C20.5382 43.4042 20.2473 43.6369 19.8401 43.9279C19.3746 44.2188 18.7928 44.3351 18.211 44.2188C17.3382 44.0442 16.6982 43.346 16.5237 42.5315C16.4655 42.0079 16.5237 41.5424 16.8146 41.1351C17.0473 40.786 17.3964 40.4951 17.8619 40.3206C18.6764 40.0297 19.6073 40.2042 20.1891 40.786C21.2946 40.9024 23.0982 40.4951 23.5637 40.2042C21.7019 37.5279 22.1673 35.7824 22.5746 35.026C23.1564 33.9206 24.4946 33.2806 25.9491 33.3388H26.2401V36.4224C26.2401 37.1788 26.8801 37.7606 27.6946 37.7606H29.6146C30.7201 37.7606 31.4764 38.5169 31.8837 38.9242C32.2328 38.4588 33.0473 37.7606 34.1528 37.7606H36.0728C36.8873 37.7606 37.5273 37.1788 37.5273 36.4224V33.4551L37.8182 33.2224C39.2728 33.1642 40.611 33.8042 41.1928 34.9097C41.6001 35.7242 42.0655 37.4115 40.2037 40.146C40.611 40.3788 42.2401 40.786 43.1128 40.7279C43.3455 40.0297 43.8691 39.3897 44.5091 38.9824C44.6837 38.866 44.8001 38.8079 44.9746 38.6915L44.5091 38.226L46.371 36.3642L48.2328 38.226L47.7091 38.7497C47.8255 38.8079 47.9419 38.866 48.1164 38.9824C49.2219 39.6224 49.8037 40.786 49.6873 42.0079C49.5128 43.4624 48.2328 44.626 46.6619 44.8006C45.3819 44.9169 44.1601 44.3933 43.4619 43.346C42.5891 42.5315 40.3782 41.8333 38.4582 41.8333C38.2255 41.8333 37.9928 41.7169 37.8764 41.5424C37.7601 41.3679 37.7601 41.1351 37.8182 40.9024C38.2255 39.9133 37.8764 39.0406 37.3528 38.5751C36.8873 38.1679 36.2473 38.1679 35.6655 38.5169C35.1419 38.866 34.4437 40.0297 33.8037 41.6588C36.7128 42.4151 40.0291 44.2769 40.7855 46.3715C40.9019 46.7206 40.8437 47.186 40.611 47.6515C40.2037 48.3497 39.5055 48.8733 38.8073 48.9897L38.4001 49.0479L38.3419 48.7569C38.3419 48.6988 38.3419 48.6406 38.2837 48.5242C37.6437 49.5715 36.1891 50.3279 35.3164 50.677L34.9091 50.8515V50.4442C34.9091 50.3279 34.9091 50.1533 34.851 50.0369C33.9201 51.2006 32.9891 52.0151 31.8837 52.4224ZM28.5673 48.6406L28.9164 49.1642C29.731 50.386 30.7201 51.2588 31.8837 51.7824C32.931 51.317 33.9201 50.4442 34.851 49.1642L35.2001 48.6988L35.3746 49.2806C35.4328 49.5133 35.491 49.8042 35.5491 50.0369C36.5964 49.5715 37.9346 48.6406 38.1091 47.7097L38.2255 46.7206L38.6328 47.5933C38.7491 47.826 38.8073 48.1751 38.8655 48.4079C39.331 48.2333 39.7964 47.8842 40.0291 47.4188C40.2037 47.1279 40.2619 46.837 40.2037 46.6624C39.5637 44.8006 36.1891 42.9388 33.3382 42.2406L33.0473 42.1824L33.1637 41.8915C33.6291 40.6697 34.2691 39.0988 35.0837 38.4006H34.1528C32.9891 38.4006 32.1746 39.6224 32.1746 39.6224L31.9419 39.9715L31.7091 39.6224C31.7091 39.6224 30.8946 38.4006 29.731 38.4006H28.8001C29.5564 39.1569 30.2546 40.6697 30.7201 41.8915L30.8364 42.1824L30.5455 42.2406C27.6946 42.9388 24.3201 44.8006 23.6801 46.6624C23.6219 46.8951 23.6801 47.1279 23.8546 47.4188C24.0873 47.8842 24.5528 48.2333 25.0182 48.4079C25.0764 48.1751 25.1928 47.826 25.251 47.5933L25.6582 46.7206L25.7746 47.7097C25.891 48.6406 27.2873 49.5715 28.3346 50.0369C28.3928 49.8042 28.451 49.5133 28.5091 49.2806L28.5673 48.6406ZM37.2946 37.8188C37.4691 37.8769 37.5855 37.9933 37.7019 38.1097C38.5164 38.8079 38.8073 40.0297 38.3419 41.0769C38.3419 41.1351 38.3419 41.1351 38.3419 41.1351H38.4001C40.4946 41.1351 42.8801 41.8915 43.8691 42.8224L43.9273 42.8806C44.5091 43.7533 45.5564 44.2188 46.6037 44.1024C47.8837 43.986 48.931 42.9969 49.1055 41.8333C49.2219 40.8442 48.7564 39.9133 47.8255 39.3315C47.5928 39.2151 47.3601 39.0988 47.1273 38.9824L46.7201 38.8079L47.4182 38.1097L46.371 37.0624L45.3237 38.1097L45.9637 38.9242L45.4982 39.0988C45.2655 39.1569 44.9746 39.3315 44.7419 39.4479C44.1019 39.7969 43.6946 40.3788 43.5201 41.0188L43.4619 41.1933H43.2873C42.4728 41.3097 39.9128 40.9024 39.5637 40.3206C39.4473 40.2042 39.4473 40.0297 39.5637 39.8551C40.9019 37.9933 41.251 36.306 40.611 35.0842C40.1455 34.3279 39.2146 33.8042 38.051 33.8042V36.3642C38.051 36.946 37.7601 37.4697 37.2946 37.8188ZM18.6764 40.6697C18.4437 40.6697 18.2691 40.7279 18.0946 40.786C17.7455 40.9024 17.5128 41.0769 17.3382 41.3679C17.1637 41.6588 17.0473 42.0079 17.1055 42.3569C17.2219 42.9388 17.6873 43.4042 18.3273 43.5788C18.7346 43.6369 19.2001 43.5788 19.5491 43.4042C19.8982 43.2297 20.131 42.9969 20.2473 42.706L20.3055 42.6479L20.3637 42.5897C21.4691 41.7751 23.6219 41.1933 25.3673 41.1933C25.4255 41.1933 25.4255 41.1933 25.4255 41.1933V41.1351C24.9601 40.0879 25.251 38.866 26.0655 38.1679C26.1819 38.0515 26.3564 37.9351 26.4728 37.8769C26.0073 37.5279 25.7164 37.0042 25.7164 36.3642V33.8042C24.611 33.8042 23.6219 34.3279 23.1564 35.2006C22.5164 36.3642 22.8655 38.0515 24.2037 39.9133C24.3201 40.0297 24.3201 40.2042 24.2037 40.3788C23.8546 40.9606 21.1782 41.426 20.0728 41.2515H19.9564L19.8982 41.1933C19.5491 40.8442 19.0837 40.6697 18.6764 40.6697Z" fill="white"/>
<path d="M10.2984 37.5264C9.77474 37.5264 9.25111 37.3518 8.84383 36.9446C8.43656 36.5373 8.14565 36.0137 8.14565 35.4318C8.08747 34.21 9.01838 33.2209 10.2402 33.1627C11.462 33.1046 12.4511 34.0355 12.5093 35.2573C12.5675 36.4791 11.6366 37.4682 10.4147 37.5264C10.3566 37.5264 10.3566 37.5264 10.2984 37.5264ZM10.2984 33.7446H10.2402C9.36747 33.8027 8.66929 34.5009 8.72747 35.3737C8.72747 35.7809 8.90202 36.1882 9.25111 36.4791C9.54202 36.77 9.94929 36.9446 10.4147 36.8864C11.2875 36.8282 11.9857 36.13 11.9275 35.2573C11.8693 34.4427 11.1711 33.7446 10.2984 33.7446Z" fill="white"/>
<path d="M11.7801 36.293L11.3965 36.7305L16.8648 41.5254L17.2484 41.0879L11.7801 36.293Z" fill="white"/>
<path d="M19.8915 43.4337L19.5078 43.8711L21.17 45.329L21.5536 44.8916L19.8915 43.4337Z" fill="white"/>
</g>
<defs>
<clipPath id="clip0_6095_364107">
<rect width="64" height="52.3636" fill="white"/>
</clipPath>
</defs>
</svg>
