<svg width="64" height="53" viewBox="0 0 64 53" fill="none" xmlns="http://www.w3.org/2000/svg">
<g clip-path="url(#clip0_6095_364110)">
<path fill-rule="evenodd" clip-rule="evenodd" d="M6.27145 14.0064L17.3825 19.4747L17.3834 19.4751C18.1623 19.8642 19.0135 19.8646 19.7924 19.4762L28.1639 15.5229L28.1658 15.5221C28.7273 15.2676 29.4003 15.2642 29.974 15.471L32.6162 16.5807L29.3752 19.1596L29.3729 19.1614C28.3822 19.9664 27.7581 21.1461 27.695 22.3961L27.3461 27.8624C27.2124 29.8727 29.6239 31.0095 31.0954 29.6049L31.0968 29.6036C32.8497 27.9091 34.3157 25.9798 35.434 23.7018L35.8169 23.3827L36.4845 26.7722C36.618 27.625 37.204 28.3409 37.9242 28.6709L51.882 35.8243L51.8846 35.8256C52.7761 36.2713 53.0731 37.3559 52.5268 38.2001L52.5233 38.2056L52.0582 38.9614C51.3727 40.0685 49.9423 40.5993 48.6742 40.1768L38.0853 36.6277L37.9004 37.1794L48.075 40.5896C48.4413 41.1147 48.4011 41.6877 48.195 42.2028L48.1933 42.2071L48.1917 42.2114C47.7776 43.3503 46.52 44.043 45.3028 43.8842L45.298 43.8836L43.4916 43.7088C41.4206 43.4785 39.4052 43.0181 37.445 42.3841L34.7716 41.4543L34.5805 42.0038L37.2568 42.9347L37.2629 42.9367C38.6331 43.38 40.0321 43.7406 41.4599 43.9992C41.7278 44.4495 41.8117 45.0749 41.6702 45.5463L41.6683 45.5528L41.6667 45.5594C41.4065 46.6 40.5925 47.1908 39.7003 47.1433L38.3668 47.0274L38.3639 47.0272C36.8732 46.9125 35.3866 46.6261 33.9602 46.1126L31.9803 45.4138L31.7866 45.9624L33.764 46.6603C34.3346 46.8657 34.9136 47.0358 35.4975 47.1741L34.4167 48.2099L34.4123 48.2142C33.6681 48.9584 32.5991 49.2833 31.5193 49.1213L31.5155 49.1208C30.4021 48.969 29.1395 48.5417 28.0138 48.0791L28.3155 47.7451C29.3512 46.6421 29.2952 44.8253 28.12 43.8392C27.4679 43.2293 26.5928 43.002 25.7715 43.1553C26.6081 42.0459 26.4778 40.4495 25.3888 39.4787C24.3343 38.4893 22.6943 38.5025 21.6429 39.5098C21.7395 38.6624 21.4359 37.777 20.7342 37.1515C19.8522 36.3238 18.5604 36.1977 17.5462 36.7681C17.7056 35.8714 17.41 34.9092 16.6619 34.2424C15.5987 33.2447 13.9401 33.2664 12.89 34.2987L0.0960125 29.8208L-0.0961914 30.37L12.4474 34.7602L11.3104 35.9427L11.3082 35.9449C10.2654 37.053 10.3321 38.8103 11.4983 39.8499C12.3446 40.644 13.568 40.7923 14.5617 40.2991C14.3057 41.2566 14.5849 42.3268 15.396 43.0499C16.1774 43.7831 17.2803 43.9657 18.227 43.6013C17.8784 44.6041 18.1385 45.7698 19.0034 46.5408C19.8127 47.3003 20.967 47.469 21.9353 47.051C21.7069 47.9927 21.9913 49.0331 22.7852 49.7408C23.8941 50.7814 25.6507 50.713 26.6891 49.5458L27.6 48.5372C28.7878 49.036 30.1848 49.5262 31.435 49.697C32.6808 49.8833 33.9371 49.5107 34.8215 48.6279L36.1842 47.3219C36.8923 47.4592 37.6055 47.5523 38.3178 47.6071L39.6591 47.7238L39.6637 47.724C40.8623 47.7906 41.9064 46.9881 42.2295 45.7069C42.3751 45.2155 42.3412 44.6284 42.1552 44.1166C42.5775 44.1828 43.0022 44.2398 43.4294 44.2873L45.2324 44.4618C46.6886 44.6494 48.2192 43.8315 48.7369 42.4146C48.9237 41.9456 49.0148 41.3842 48.8355 40.8239C50.266 41.138 51.7877 40.5037 52.5529 39.2676L53.0171 38.5133C53.7481 37.3801 53.3471 35.9073 52.1461 35.3059L52.1448 35.3052L50.8961 34.6652L64.0352 30.1935L63.8478 29.6427L50.1754 34.2959L38.1776 28.147L38.1714 28.1442C37.6164 27.8919 37.1593 27.3322 37.0586 26.6775L37.0576 26.6715L36.3263 22.9583L38.179 21.4143L37.8065 20.9674L34.9658 23.3346L34.9385 23.3907C33.8495 25.6261 32.4163 27.5188 30.6931 29.1847C29.6046 30.2226 27.828 29.3811 27.9266 27.9011L27.9267 27.9003L28.2758 22.4312L28.276 22.4272C28.3298 21.3511 28.8688 20.3212 29.7387 19.6139L35.1484 15.3094L35.149 15.3089C35.938 14.6777 37.0542 14.5139 38.0149 14.8334L48.7763 18.6144L48.7807 18.6159C49.2229 18.7633 49.6534 18.6821 50.0501 18.4838L50.0567 18.4805L57.6849 14.1714L57.3988 13.6648L49.7836 17.9665C49.4855 18.1142 49.2204 18.1485 48.9668 18.0646L38.2055 14.2837L38.2011 14.2821C37.0679 13.9044 35.7417 14.0899 34.7859 14.8543L33.0758 16.215L33.1017 16.1535L30.186 14.929L30.1793 14.9265C29.4751 14.6704 28.6392 14.6678 27.9232 14.9933L27.9193 14.9951L19.5411 18.9514L19.5353 18.9543C18.919 19.2624 18.259 19.2624 17.6427 18.9543L6.52837 13.4844L6.27145 14.0064ZM16.2662 34.6689C15.397 33.8509 14.0146 33.8995 13.1921 34.8249L13.1883 34.8291L11.7309 36.3448C10.9139 37.214 10.9629 38.5956 11.8879 39.4178L11.891 39.4205L11.894 39.4234C12.7632 40.2414 14.1456 40.1928 14.9681 39.2674L14.9719 39.2632L16.4293 37.7475C17.2462 36.8783 17.1973 35.4967 16.2723 34.6745L16.2692 34.6717L16.2662 34.6689ZM17.2643 37.734C18.0869 36.8086 19.4693 36.7599 20.3384 37.578L20.3415 37.5808L20.3445 37.5836C21.2699 38.4061 21.3186 39.7885 20.5005 40.6577L20.4965 40.6621L18.8674 42.4657L18.8658 42.4674C18.0433 43.3928 16.6609 43.4414 15.7917 42.6234L15.7887 42.6205L15.7856 42.6178C14.8603 41.7953 14.8116 40.4129 15.6297 39.5437L15.6337 39.5393L17.2628 37.7357L17.2643 37.734ZM24.9931 39.9052C24.1239 39.0872 22.7415 39.1359 21.919 40.0612L21.9176 40.0628L19.2371 43.0346C18.4191 43.9038 18.4677 45.2862 19.393 46.1087L19.3961 46.1115L19.3991 46.1143C20.2683 46.9323 21.6507 46.8837 22.4732 45.9583L22.4746 45.9567L25.1551 42.9849C25.9732 42.1157 25.9246 40.7334 24.9992 39.9108L24.9961 39.9081L24.9931 39.9052ZM24.6535 44.4249C25.4761 43.4995 26.8585 43.4509 27.7276 44.2689L27.734 44.2749L27.7408 44.2805C28.6528 45.0406 28.7117 46.4753 27.8897 47.3486L27.8857 47.353L26.2566 49.1566L26.255 49.1583C25.4325 50.0837 24.0501 50.1323 23.1809 49.3143L23.1779 49.3115L23.1748 49.3087C22.2495 48.4862 22.2008 47.1038 23.0189 46.2346L23.0229 46.2302L24.652 44.4266L24.6535 44.4249Z" fill="white"/>
<path d="M32.233 10.6041V2.69141H31.6512V10.6041H32.233Z" fill="#DD2B1C"/>
<path d="M39.2459 7.55165L34.3586 12.4389L33.9472 12.0275L38.8345 7.14025L39.2459 7.55165Z" fill="#DD2B1C"/>
<path d="M25.8224 9.08322L30.0697 11.9923L29.7409 12.4723L25.4937 9.56323L25.8224 9.08322Z" fill="#DD2B1C"/>
</g>
<defs>
<clipPath id="clip0_6095_364110">
<rect width="64" height="52.3636" fill="white" transform="translate(0 0.363281)"/>
</clipPath>
</defs>
</svg>
