<svg width="64" height="54" viewBox="0 0 64 54" fill="none" xmlns="http://www.w3.org/2000/svg">
<g clip-path="url(#clip0_6095_364104)">
<path fill-rule="evenodd" clip-rule="evenodd" d="M20.7709 1.01562H51.3746V41.0447H47.4763V44.5956H43.6944V48.3774H38.2254V47.7956H43.1126V8.40653H13.6726V47.7956H33.2799V48.3774H13.0908V7.82472H16.8726V4.0429H20.7709V1.01562ZM17.4545 7.82472H43.6944V44.0138H46.8944V4.62472H17.4545V7.82472ZM50.7928 40.4629H47.4763V4.0429H21.3528V1.59744H50.7928V40.4629Z" fill="white"/>
<path d="M36.5964 30.3384H20.1891V29.7565H36.5964V30.3384Z" fill="white"/>
<path d="M23.5056 33.4793H33.2801V32.8974H23.5056V33.4793Z" fill="white"/>
<path fill-rule="evenodd" clip-rule="evenodd" d="M28.276 17.0328V17.1884H26.4147V17.7702H28.276V21.7253C27.9037 21.3631 27.5213 21.0892 27.1663 20.8492C27.0891 20.797 27.014 20.7469 26.9411 20.6982C26.507 20.4083 26.1497 20.1697 25.8787 19.8536L25.437 20.2322C25.7646 20.6145 26.1984 20.9032 26.6284 21.1893C26.6993 21.2365 26.7702 21.2837 26.8404 21.3312C27.349 21.675 27.8709 22.0616 28.3368 22.6644L28.567 22.9623L28.7971 22.6644C29.2617 22.0632 29.7963 21.6772 30.3138 21.3322C30.3734 21.2925 30.4335 21.2529 30.4936 21.2133C30.9399 20.9193 31.3908 20.6223 31.7048 20.2226L31.2473 19.8632C30.9959 20.1832 30.6316 20.4241 30.1723 20.7279C30.1135 20.7668 30.053 20.8068 29.991 20.8481C29.6305 21.0885 29.2375 21.3637 28.8579 21.729V17.7702H30.7201V17.1884H28.8579V17.0329C29.2948 16.9069 29.6143 16.504 29.6143 16.0265C29.6143 15.4481 29.1455 14.9793 28.5671 14.9793C27.9887 14.9793 27.5198 15.4481 27.5198 16.0265C27.5198 16.5039 27.8392 16.9067 28.276 17.0328ZM28.1016 16.0265C28.1016 15.7695 28.31 15.5611 28.5671 15.5611C28.8241 15.5611 29.0325 15.7695 29.0325 16.0265C29.0325 16.2836 28.8241 16.492 28.5671 16.492C28.31 16.492 28.1016 16.2836 28.1016 16.0265Z" fill="white"/>
<path fill-rule="evenodd" clip-rule="evenodd" d="M28.567 12.5352C25.0324 12.5352 22.167 15.4005 22.167 18.9352C22.167 22.4698 25.0324 25.3352 28.567 25.3352C32.1016 25.3352 34.967 22.4698 34.967 18.9352C34.967 15.4005 32.1016 12.5352 28.567 12.5352ZM22.7488 18.9352C22.7488 15.7219 25.3537 13.117 28.567 13.117C31.7803 13.117 34.3852 15.7219 34.3852 18.9352C34.3852 22.1484 31.7803 24.7533 28.567 24.7533C25.3537 24.7533 22.7488 22.1484 22.7488 18.9352Z" fill="#DD2B1C"/>
<path fill-rule="evenodd" clip-rule="evenodd" d="M31.709 41.5715C31.709 42.8239 32.2743 43.9442 33.1636 44.6913V52.6286L34.0764 53.085L35.7877 51.6589L37.6093 53.0821L38.5163 52.6286V44.5897C39.3383 43.8446 39.8545 42.7683 39.8545 41.5715C39.8545 39.3222 38.0311 37.4988 35.7818 37.4988C33.5325 37.4988 31.709 39.3222 31.709 41.5715ZM35.7818 38.0806C33.8538 38.0806 32.2909 39.6435 32.2909 41.5715C32.2909 42.6777 32.8054 43.6637 33.6082 44.3033H33.7454V44.4073C34.3186 44.8196 35.0218 45.0624 35.7818 45.0624C36.594 45.0624 37.3414 44.785 37.9345 44.3198V44.3033H37.9554C38.7582 43.6637 39.2727 42.6777 39.2727 41.5715C39.2727 39.6435 37.7097 38.0806 35.7818 38.0806ZM33.7454 52.269V45.0994C34.3444 45.4459 35.0399 45.6442 35.7818 45.6442C36.5721 45.6442 37.3099 45.4191 37.9345 45.0295V52.269L37.6778 52.3973L35.7759 50.9114L33.9962 52.3944L33.7454 52.269Z" fill="#DD2B1C"/>
</g>
<defs>
<clipPath id="clip0_6095_364104">
<rect width="64" height="52.3636" fill="white" transform="translate(0 0.726562)"/>
</clipPath>
</defs>
</svg>
