<svg width="150" height="90" viewBox="0 0 150 90" fill="none" xmlns="http://www.w3.org/2000/svg">
<path fill-rule="evenodd" clip-rule="evenodd" d="M62.9004 1H92.7004V7.5H88.0004V50.8H84.9004V63.9H92.3004V68H102.5V57.2H112V89.4H70.6004V63.9H78.8004V50.8H68.8004V7.5H66.5169L62.9004 4.43149V1ZM63.9004 2V3.96851L66.8839 6.5H69.8004V49.8H79.8004V64.9H71.6004V88.4H111V58.2H103.5V69H91.3004V64.9H83.9004V49.8H87.0004V6.5H91.7004V2H63.9004Z" fill="white"/>
<path d="M81.6004 22.0877V1.5H82.6004V22.3123L76.4004 35.4123V50H75.4004V35.1877L81.6004 22.0877Z" fill="white"/>
<path fill-rule="evenodd" clip-rule="evenodd" d="M16.4004 11.1992V89.3992H38.9004V20.5992H50.9005V30.5992H47.4005V38.4992H42.5005V45.0992H65.4005V38.4992H60.5005V30.5992H57.0005V20.5992H69.8003V11.1992H16.4004ZM37.8003 12.1992V20.5992H37.9004V88.3992H17.4004V12.1992H37.8003ZM38.9004 19.5992H68.8003V12.1992H38.9004V19.5992ZM51.9005 20.6992H56.0005V31.5992H59.5005V39.4992H64.4005V44.0992H43.5005V39.4992H48.4005V31.5992H51.9005V20.6992Z" fill="white"/>
<path fill-rule="evenodd" clip-rule="evenodd" d="M131.7 11.1992V89.3992H118V20.5992H87.0005V11.1992H131.7ZM119 12.1992H130.7V88.3992H119V12.1992ZM118 12.1992V19.5992H88.0005V12.1992H118Z" fill="white"/>
<path d="M47.971 80H71.1007V81H48.6304L45.1603 89.097L44.2411 88.703L47.971 80Z" fill="white"/>
<path fill-rule="evenodd" clip-rule="evenodd" d="M87.0005 37.1992V47.8992H107.7V44.7635L94.3258 39.2921L92.8608 37.1992H87.0005ZM88.0005 46.8992V38.1992H92.3402L93.6751 40.1063L106.7 45.4349V46.8992H88.0005Z" fill="white"/>
<path fill-rule="evenodd" clip-rule="evenodd" d="M53.2998 62.0652C51.7766 61.8458 50.6134 60.6344 50.4044 59.0669L50.4033 59.0587L50.4025 59.0505C50.1994 57.0201 50.1992 54.8897 50.4017 52.859C50.5133 51.248 51.7801 50.0539 53.2998 49.8364V44.8008H54.2998V49.8365C55.8109 50.0546 56.9874 51.2481 57.0983 52.759C57.3006 54.8868 57.3006 57.0148 57.0983 59.1425C56.9874 60.6534 55.8109 61.847 54.2998 62.0651V64.6373C55.8109 64.8554 56.9874 66.0489 57.0983 67.5598C57.3005 69.6872 57.3006 71.8148 57.0984 73.9421C56.9875 75.5551 55.8008 76.6659 54.2998 76.8683V83.9008H53.2998V76.866C51.7766 76.6466 50.6134 75.4351 50.4044 73.8676L50.4033 73.8595L50.4025 73.8513C50.1994 71.8209 50.1992 69.6904 50.4017 67.6597C50.5133 66.0488 51.7801 64.8547 53.2998 64.6372V62.0652ZM53.2998 50.8499V54.3008H54.2998V50.8508C55.3029 51.056 56.0321 51.8679 56.1013 52.8364L56.1022 52.8482C56.2992 54.9167 56.2992 56.9849 56.1022 59.0534L56.1013 59.0652C56.0321 60.0336 55.3029 60.8455 54.2998 61.0507V57.5H53.2998V61.05C52.3044 60.8437 51.5445 60.0277 51.3967 58.9425C51.2008 56.9782 51.2011 54.9146 51.3975 52.9505L51.3983 52.9423L51.3989 52.934C51.4687 51.8874 52.2675 51.0559 53.2998 50.8499ZM56.1011 73.8683C56.0316 74.9111 55.3114 75.6692 54.2998 75.8566V72.3008H53.2998V75.8508C52.3044 75.6445 51.5445 74.8285 51.3967 73.7433C51.2008 71.779 51.2011 69.7154 51.3975 67.7513L51.3983 67.7431L51.3989 67.7348C51.4687 66.6882 52.2675 65.8567 53.2998 65.6507V69.1H54.2998V65.6516C55.3029 65.8568 56.0321 66.6687 56.1013 67.6372L56.1022 67.649C56.2992 69.7174 56.2992 71.7857 56.1022 73.8542L56.1016 73.8612L56.1011 73.8683Z" fill="#DD2B1C"/>
<path d="M9 89.3984H140.1V88.3984H9V89.3984Z" fill="#DD2B1C"/>
</svg>
