<svg width="150" height="90" viewBox="0 0 150 90" fill="none" xmlns="http://www.w3.org/2000/svg">
<path fill-rule="evenodd" clip-rule="evenodd" d="M34.3003 16.1016C34.3003 14.6777 35.3764 13.6016 36.8003 13.6016H37.2003C37.5111 13.6016 37.7424 13.676 38.0422 13.7759L38.3584 12.8272L38.3441 12.8224C38.0465 12.7232 37.6817 12.6016 37.2003 12.6016H36.8003C34.8241 12.6016 33.3003 14.1254 33.3003 16.1016V24.7994C31.6065 25.3453 29.9393 26.3484 28.3851 27.6112L28.3651 27.6274L28.1705 27.822C27.6641 28.2147 27.4004 28.7544 27.4004 29.3992V46.3992C27.4004 47.044 27.6641 47.5838 28.1705 47.9764L28.3586 48.1645L28.3711 48.1755C29.9685 49.5732 31.5811 50.4991 33.3003 51.0309V59.7984C33.3003 61.7746 34.8241 63.2984 36.8003 63.2984H37.2003C37.5827 63.2984 38.0446 63.1774 38.3584 63.0728L38.0422 62.1241C37.756 62.2195 37.4179 62.2984 37.2003 62.2984H36.8003C35.3764 62.2984 34.3003 61.2223 34.3003 59.7984V43.8984C34.3003 42.4746 35.3764 41.3984 36.8003 41.3984H37.2003C37.5111 41.3984 37.7424 41.4728 38.0422 41.5728L38.3584 40.6241L38.3441 40.6193C38.0465 40.5201 37.6817 40.3984 37.2003 40.3984H36.8003C35.1219 40.3984 33.7697 41.4977 33.4004 43.0397V32.8603C33.7697 34.4023 35.1219 35.5016 36.8003 35.5016H37.2003C37.5827 35.5016 38.0446 35.3805 38.3584 35.2759L38.0422 34.3272C37.756 34.4226 37.4179 34.5016 37.2003 34.5016H36.8003C35.3764 34.5016 34.3003 33.4254 34.3003 32.0016V16.1016ZM33.3003 45.2601V49.9795C31.8444 49.4832 30.4498 48.6632 29.0421 47.4338L28.8288 47.2205L28.8004 47.1992C28.5263 46.9936 28.4004 46.7418 28.4004 46.3992V29.3992C28.4004 29.0566 28.5263 28.8048 28.8004 28.5992L28.8288 28.5779L29.0356 28.3711C30.4217 27.2477 31.8662 26.3698 33.3003 25.8556V30.1992C32.7474 30.87 32.4004 31.6735 32.4004 32.6V43.2C32.4004 43.9846 32.6228 44.8034 33.11 45.4123L33.3003 45.2601Z" fill="#DD2B1C"/>
<path fill-rule="evenodd" clip-rule="evenodd" d="M53.4007 23.984C53.3558 24.7376 53.3315 27.5798 53.3266 30.6348C50.3491 31.2742 48.2338 32.9179 47.0464 35.4905L47.0427 35.4986C45.9003 38.0952 45.9003 41.3837 45.9004 44.8209L45.9004 44.9394C45.9004 47.4655 45.9003 50.7127 46.9054 53.483C47.4144 54.8861 48.187 56.1861 49.3615 57.2151C50.3793 58.1068 51.6789 58.7773 53.3259 59.1445L53.3257 59.7508C53.3257 63.3921 53.3501 67.0649 53.4007 67.916C53.4006 68.1827 53.4031 68.9716 53.7642 69.7084C53.9529 70.0932 54.2437 70.4737 54.6872 70.7556C55.1314 71.0379 55.6967 71.2008 56.4007 71.2008C56.9511 71.2008 57.3941 71.1181 57.768 70.9623C58.1444 70.8055 58.4223 70.5863 58.6542 70.3543L57.9471 69.6472C57.7791 69.8153 57.607 69.9461 57.3834 70.0392C57.1572 70.1335 56.8503 70.2008 56.4007 70.2008C55.8547 70.2008 55.4824 70.0761 55.2236 69.9116C54.9639 69.7466 54.786 69.5209 54.6621 69.2682C54.4054 68.7445 54.4007 68.15 54.4007 67.9008V67.8852L54.3997 67.8696C54.351 67.0896 54.3257 63.4361 54.3257 59.7508C54.3257 56.0655 54.351 52.412 54.3997 51.632L54.4007 51.6164V51.6008C54.4007 51.3516 54.4054 50.7571 54.6621 50.2334C54.786 49.9807 54.9639 49.755 55.2236 49.59C55.4824 49.4254 55.8547 49.3008 56.4007 49.3008C57.177 49.3008 57.647 49.5542 57.9471 49.8543L58.6542 49.1472C58.1543 48.6473 57.4244 48.3008 56.4007 48.3008C55.6967 48.3008 55.1314 48.4636 54.6872 48.746C54.2437 49.0278 53.9529 49.4084 53.7642 49.7932C53.4031 50.53 53.4006 51.3188 53.4007 51.5856C53.3877 51.8035 53.3765 52.2064 53.3669 52.7464C53.0187 52.3411 52.7432 51.7872 52.5321 51.0285C52.1518 49.6617 52.0004 47.6958 52.0004 44.9C52.0004 43.4952 52.0007 42.116 52.0988 40.877C52.1975 39.631 52.3921 38.5793 52.7528 37.8129L52.7614 37.7945L52.7686 37.7756C52.7954 37.704 52.8197 37.6382 52.8422 37.5773C52.9603 37.2572 53.0284 37.0727 53.1481 36.9155C53.1952 36.8537 53.2555 36.791 53.3446 36.7295C53.357 38.1239 53.3756 39.1941 53.4007 39.6144C53.4006 39.8812 53.4031 40.67 53.7642 41.4068C53.9529 41.7916 54.2437 42.1722 54.6872 42.454C55.1314 42.7364 55.6967 42.8992 56.4007 42.8992C56.9511 42.8992 57.3941 42.8165 57.768 42.6608C58.1444 42.5039 58.4223 42.2847 58.6542 42.0528L57.9471 41.3457C57.7791 41.5137 57.607 41.6445 57.3834 41.7377C57.1572 41.8319 56.8503 41.8992 56.4007 41.8992C55.8547 41.8992 55.4824 41.7746 55.2236 41.61C54.9639 41.445 54.786 41.2193 54.6621 40.9666C54.4054 40.4429 54.4007 39.8484 54.4007 39.5992V39.5836L54.3997 39.568C54.351 38.788 54.3257 35.3091 54.3257 31.7992C54.3257 28.2894 54.351 24.8105 54.3997 24.0304L54.4007 24.0148V23.9992C54.4007 23.75 54.4054 23.1555 54.6621 22.6318C54.786 22.3791 54.9639 22.1534 55.2236 21.9884C55.4824 21.8239 55.8547 21.6992 56.4007 21.6992C57.177 21.6992 57.647 21.9527 57.9471 22.2528L58.6542 21.5457C58.1543 21.0458 57.4244 20.6992 56.4007 20.6992C55.6967 20.6992 55.1314 20.8621 54.6872 21.1444C54.2437 21.4263 53.9529 21.8068 53.7642 22.1916C53.4031 22.9284 53.4006 23.7172 53.4007 23.984ZM53.3495 54.0555C52.4885 53.4829 51.9246 52.5755 51.5687 51.2965C51.149 49.7883 51.0004 47.7042 51.0004 44.9V44.8879C51.0004 43.4965 51.0004 42.0802 51.102 40.798C51.2026 39.5277 51.4058 38.337 51.839 37.4062C51.8564 37.3596 51.8738 37.3118 51.8914 37.2632C52.0061 36.9477 52.1334 36.5972 52.3527 36.3095C52.5847 36.005 52.8978 35.7854 53.3364 35.6232C53.3292 34.4426 53.3257 33.1187 53.3257 31.7992L53.3257 31.6598C50.7405 32.2688 48.9709 33.71 47.9562 35.9055C46.9093 38.2884 46.9004 41.3678 46.9004 44.9C46.9004 47.4683 46.9057 50.5517 47.8454 53.142C48.3114 54.4264 49.0013 55.5701 50.0205 56.463C50.8567 57.1955 51.9326 57.7752 53.3273 58.1178C53.3304 56.6267 53.3377 55.2043 53.3495 54.0555Z" fill="#DD2B1C"/>
<path fill-rule="evenodd" clip-rule="evenodd" d="M74.1255 39.9984C74.1255 40.782 74.1267 41.5672 74.1292 42.323C69.5311 43.5465 66.1006 47.8336 66.1006 52.8992C66.1006 57.874 69.4442 62.1582 74.1293 63.4686C74.1267 64.2263 74.1255 65.0135 74.1255 65.7992C74.1255 69.2671 74.1499 72.7656 74.2005 73.6144C74.2004 73.8801 74.2027 74.6616 74.5322 75.3923C74.704 75.7733 74.9716 76.1567 75.3866 76.4434C75.8046 76.7322 76.3383 76.8992 77.0005 76.8992C77.6627 76.8992 78.1963 76.7322 78.6144 76.4434C79.0294 76.1567 79.297 75.7733 79.4688 75.3923C79.7983 74.6616 79.8005 73.8801 79.8005 73.6144C79.8511 72.7656 79.8755 69.2671 79.8755 65.7992C79.8755 64.9911 79.8742 64.1814 79.8715 63.4039C84.52 62.2164 88.0004 57.9039 88.0004 52.8016C88.0004 47.7916 84.6093 43.482 79.8721 42.2048C79.8744 41.4855 79.8755 40.7413 79.8755 39.9984C79.8755 36.53 79.8511 33.031 79.8005 32.1829C79.7997 31.8572 79.7714 31.0762 79.4262 30.3571C79.2472 29.9841 78.9763 29.6135 78.5681 29.3374C78.1569 29.0592 77.6379 28.8984 77.0005 28.8984C76.3383 28.8984 75.8046 29.0655 75.3866 29.3542C74.9716 29.6409 74.704 30.0244 74.5322 30.4054C74.2027 31.136 74.2004 31.9176 74.2005 32.1832C74.1499 33.032 74.1255 36.5305 74.1255 39.9984ZM79.867 62.3694C83.9524 61.2084 87.0004 57.3561 87.0004 52.8016C87.0004 48.3413 84.0408 44.4882 79.868 43.2431C79.863 44.2499 79.8556 45.1758 79.8457 45.9383C82.588 47.0715 84.5004 49.6869 84.5004 52.9008C84.5004 56.0139 82.5915 58.7225 79.8458 59.863C79.855 60.5777 79.8621 61.4358 79.867 62.3694ZM79.8274 58.7744C82.013 57.7045 83.5004 55.458 83.5004 52.9008C83.5004 50.2552 82.016 48.0833 79.8273 47.0253C79.8194 47.377 79.8104 47.6466 79.8005 47.8136C79.8006 48.1209 79.8 48.9089 79.4672 49.6324C79.2936 50.0098 79.0238 50.3838 78.6075 50.6613C78.1895 50.94 77.6581 51.0984 77.0005 51.0984C76.3383 51.0984 75.8046 50.9314 75.3866 50.6426C74.9716 50.3559 74.704 49.9725 74.5322 49.5915C74.2027 48.8609 74.2004 48.0793 74.2005 47.8136C74.19 47.637 74.1806 47.3455 74.1723 46.9634C71.9526 48.0483 70.5005 50.2729 70.5005 52.7992C70.5005 55.3975 72.0164 57.5505 74.1771 58.6285C74.1841 58.3466 74.1919 58.1275 74.2005 57.984C74.2004 57.7184 74.2027 56.9368 74.5322 56.2062C74.704 55.8252 74.9716 55.4417 75.3866 55.155C75.8046 54.8662 76.3383 54.6992 77.0005 54.6992C77.6379 54.6992 78.1569 54.86 78.5681 55.1382C78.9763 55.4143 79.2472 55.7849 79.4262 56.1579C79.7714 56.877 79.7997 57.6579 79.8005 57.9837C79.8104 58.151 79.8194 58.4214 79.8274 58.7744ZM74.1571 59.7206C71.4689 58.5701 69.5005 55.9852 69.5005 52.7992C69.5005 49.7184 71.3695 47.0355 74.1544 45.8745C74.1453 45.1545 74.1384 44.2941 74.1336 43.3605C70.0988 44.5556 67.1006 48.3821 67.1006 52.8992C67.1006 57.324 70.0133 61.1512 74.1337 62.4275C74.1389 61.4084 74.1467 60.477 74.1571 59.7206ZM75.4438 30.8165C75.2048 31.3464 75.2005 31.9483 75.2005 32.1984V32.214L75.1995 32.2296C75.1508 33.0097 75.1255 36.4886 75.1255 39.9984C75.1255 43.5083 75.1508 46.9872 75.1995 47.7673L75.2005 47.7828V47.7984C75.2005 48.0486 75.2048 48.6505 75.4438 49.1804C75.5595 49.4369 75.7231 49.6597 75.955 49.8199C76.1838 49.978 76.5127 50.0984 77.0005 50.0984C77.4929 50.0984 77.824 49.9819 78.0528 49.8293C78.2834 49.6756 78.4448 49.4621 78.5587 49.2145C78.7953 48.7002 78.8005 48.1027 78.8005 47.7984V47.7828L78.8015 47.7673C78.8502 46.9872 78.8755 43.5083 78.8755 39.9984C78.8755 36.4886 78.8502 33.0097 78.8015 32.2296L78.8005 32.214V32.1984C78.8005 31.9143 78.7739 31.309 78.5247 30.7898C78.4037 30.5378 78.2372 30.3209 78.0078 30.1657C77.7816 30.0126 77.4631 29.8984 77.0005 29.8984C76.5127 29.8984 76.1838 30.0189 75.955 30.177C75.7231 30.3372 75.5595 30.56 75.4438 30.8165ZM75.2005 57.9992C75.2005 57.749 75.2048 57.1472 75.4438 56.6173C75.5595 56.3608 75.7231 56.138 75.955 55.9778C76.1838 55.8197 76.5127 55.6992 77.0005 55.6992C77.4631 55.6992 77.7816 55.8134 78.0078 55.9665C78.2372 56.1217 78.4037 56.3385 78.5247 56.5906C78.7739 57.1098 78.8005 57.715 78.8005 57.9992V58.0148L78.8015 58.0304C78.8502 58.8105 78.8755 62.2894 78.8755 65.7992C78.8755 69.3091 78.8502 72.788 78.8015 73.568L78.8005 73.5836V73.5992C78.8005 73.8494 78.7962 74.4513 78.5572 74.9812C78.4415 75.2377 78.2778 75.4605 78.046 75.6207C77.8171 75.7787 77.4883 75.8992 77.0005 75.8992C76.5127 75.8992 76.1838 75.7787 75.955 75.6207C75.7231 75.4605 75.5595 75.2377 75.4438 74.9812C75.2048 74.4513 75.2005 73.8494 75.2005 73.5992V73.5836L75.1995 73.568C75.1508 72.788 75.1255 69.3091 75.1255 65.7992C75.1255 62.2894 75.1508 58.8105 75.1995 58.0304L75.2005 58.0148V57.9992Z" fill="#DD2B1C"/>
<path fill-rule="evenodd" clip-rule="evenodd" d="M18 1V75.6H37.7002V83.0008H58.3002V82.0008H38.7002V9.30078H83.9773L90.0283 16.035L90.7721 15.3666L84.4231 8.30078H71.3227L64.722 1H18ZM69.9746 8.30078L64.278 2H19V74.6H37.7002V8.30078H69.9746Z" fill="white"/>
<path d="M102.4 44.8008H95.2002V43.8008H102.4V44.8008Z" fill="white"/>
<path d="M95.2002 50.6016H107V49.6016H95.2002V50.6016Z" fill="white"/>
<path d="M105.1 56.1992H95.2002V55.1992H105.1V56.1992Z" fill="white"/>
<path d="M95.2002 61.8008H107V60.8008H95.2002V61.8008Z" fill="white"/>
<path fill-rule="evenodd" clip-rule="evenodd" d="M57.7998 15.1992H104.522L116.7 28.7071V89.8992H57.7998V15.1992ZM58.7998 16.1992V88.8992H115.7V29.0913L104.077 16.1992H58.7998Z" fill="white"/>
</svg>
