<svg width="150" height="90" viewBox="0 0 150 90" fill="none" xmlns="http://www.w3.org/2000/svg">
<path d="M45.1999 23.0992L44.4999 23.7992L40.0999 19.7992L44.4999 15.6992L45.1999 16.3992L42.1277 19.3008H108.072L105 16.3992L105.7 15.6992L110 19.7992L105.7 23.7992L105 23.0992L108.053 20.3008H42.1471L45.1999 23.0992Z" fill="#DD2B1C"/>
<path d="M38.3997 19.8008V21.2445H39.3997V19.8008H38.3997Z" fill="#DD2B1C"/>
<path d="M38.3997 24.132V27.0195H39.3997V24.132H38.3997Z" fill="#DD2B1C"/>
<path d="M38.3997 29.907V32.7945H39.3997V29.907H38.3997Z" fill="#DD2B1C"/>
<path d="M38.3997 35.682V38.5695H39.3997V35.682H38.3997Z" fill="#DD2B1C"/>
<path d="M38.3997 41.457V42.9008H39.3997V41.457H38.3997Z" fill="#DD2B1C"/>
<path d="M110.6 19.8008V21.2445H111.6V19.8008H110.6Z" fill="#DD2B1C"/>
<path d="M110.6 24.132V27.0195H111.6V24.132H110.6Z" fill="#DD2B1C"/>
<path d="M110.6 29.907V32.7945H111.6V29.907H110.6Z" fill="#DD2B1C"/>
<path d="M110.6 35.682V38.5695H111.6V35.682H110.6Z" fill="#DD2B1C"/>
<path d="M110.6 41.457V42.9008H111.6V41.457H110.6Z" fill="#DD2B1C"/>
<path d="M5.66203 44.3873C6.46882 43.8873 7.38435 43.5425 8.38408 43.4056L8.24847 42.4149C7.10425 42.5715 6.05616 42.9665 5.13527 43.5372L5.66203 44.3873Z" fill="#DD2B1C"/>
<path d="M11.2939 43.5851C11.7497 43.699 12.2174 43.8545 12.6952 44.0559C13.144 44.2699 13.5614 44.5211 13.9455 44.8038L14.5383 43.9985C14.1002 43.676 13.6247 43.3903 13.1145 43.148L13.1046 43.1433L13.0946 43.1391C12.5676 42.9163 12.0475 42.7426 11.5363 42.615L11.2939 43.5851Z" fill="#DD2B1C"/>
<path d="M2.28253 49.0211C2.53298 48.0741 2.96071 47.1727 3.5363 46.3783L2.72654 45.7916C2.07882 46.6855 1.59778 47.6991 1.31576 48.7655L2.28253 49.0211Z" fill="#DD2B1C"/>
<path d="M15.9114 46.9562C16.4185 47.7963 16.7542 48.7285 16.898 49.6976L17.8871 49.5508C17.7238 48.4504 17.3428 47.3925 16.7675 46.4394L15.9114 46.9562Z" fill="#DD2B1C"/>
<path d="M3.06793 54.6464C2.53419 53.7885 2.21716 52.864 2.09065 51.9252L1.09961 52.0588C1.24425 53.1321 1.60748 54.192 2.21885 55.1746L3.06793 54.6464Z" fill="#DD2B1C"/>
<path d="M16.7476 52.6062C16.6289 53.0709 16.4633 53.5325 16.2483 53.9851C16.0333 54.4377 15.7805 54.8583 15.4957 55.2452L16.301 55.838C16.6236 55.3999 16.9092 54.9244 17.1516 54.4141C17.3943 53.9032 17.5819 53.3808 17.7165 52.8536L16.7476 52.6062Z" fill="#DD2B1C"/>
<path d="M5.06449 56.7711C5.44334 57.0497 5.86203 57.3112 6.32279 57.5519C6.77275 57.765 7.23148 57.9293 7.69337 58.0473L7.44593 59.0162C6.91871 58.8816 6.39635 58.694 5.8854 58.4513L5.87703 58.4473L5.86881 58.443C5.36131 58.1785 4.89615 57.8886 4.47209 57.5767L5.06449 56.7711Z" fill="#DD2B1C"/>
<path d="M13.3434 57.2111C12.5033 57.7182 11.571 58.0539 10.602 58.1977L10.7488 59.1868C11.8491 59.0235 12.9071 58.6425 13.8602 58.0672L13.3434 57.2111Z" fill="#DD2B1C"/>
<path d="M98.1599 67.7593L97.1474 66.7531L97.8523 66.0438L98.8648 67.05L98.1599 67.7593Z" fill="#DD2B1C"/>
<path d="M102.21 71.7843L100.185 69.7718L100.89 69.0625L102.915 71.075L102.21 71.7843Z" fill="#DD2B1C"/>
<path d="M106.26 75.8093L104.235 73.7968L104.94 73.0875L106.965 75.1L106.26 75.8093Z" fill="#DD2B1C"/>
<path d="M110.31 79.8343L108.285 77.8218L108.99 77.1125L111.015 79.125L110.31 79.8343Z" fill="#DD2B1C"/>
<path d="M113.347 82.8531L112.335 81.8468L113.04 81.1375L114.052 82.1438L113.347 82.8531Z" fill="#DD2B1C"/>
<path d="M103.5 86.8984H125V85.8984H103.5V86.8984Z" fill="#DD2B1C"/>
<path d="M84.6325 4.02775L83.5663 2.97266L74.6029 12.0304L70.9359 8.27615L69.8629 9.32426L74.5959 14.17L84.6325 4.02775Z" fill="white"/>
<path fill-rule="evenodd" clip-rule="evenodd" d="M38.7144 59.1986C40.2513 63.2906 42.8586 67.3629 46.5223 71.2282L46.9182 71.7231L46.928 71.7339C47.9271 72.844 49.2644 73.3994 50.6996 73.3994H98.9996C100.457 73.3994 101.778 72.7278 102.753 71.753L102.773 71.7334L103.179 71.2257C106.81 67.297 109.405 63.2578 110.947 59.1986H140.6C145.28 59.1986 149 55.3707 149 50.7986C149 46.1225 145.276 42.3986 140.6 42.3986H110.854C109.403 38.3357 106.803 34.2964 103.077 30.3705L102.681 29.8757L102.671 29.8649C101.672 28.7548 100.335 28.1994 98.8996 28.1994H50.6996C49.2424 28.1994 47.9209 28.871 46.9461 29.8459L46.9265 29.8654L46.5204 30.3731C42.8893 34.3013 40.2948 38.34 38.7527 42.3986H10.5996V43.3986H59.1996C63.3235 43.3986 66.5996 46.6748 66.5996 50.7986C66.5996 54.9225 63.3235 58.1986 59.1996 58.1986H10.5996V59.1986H38.7144ZM47.6723 30.5339L47.2788 31.0258L47.2667 31.0389C43.8062 34.7799 41.3306 38.595 39.8253 42.3986H53.845C55.5944 41.2002 57.6467 40.5002 59.8995 40.5002H89.6995C91.9524 40.5002 94.0046 41.2002 95.754 42.3986H109.79C108.37 38.5999 105.892 34.7862 102.337 31.0438L102.322 31.0284L101.918 30.5234C101.119 29.6405 100.06 29.1994 98.8996 29.1994H50.6996C49.5656 29.1994 48.495 29.7197 47.6723 30.5339ZM55.8513 42.3986H59.1996C63.8758 42.3986 67.5996 46.1225 67.5996 50.7986C67.5996 55.4748 63.8758 59.1986 59.1996 59.1986H55.9464C57.1861 59.7787 58.5472 60.0994 59.9996 60.0994H89.7996C91.2082 60.0994 92.5631 59.7861 93.7881 59.1986H90.8995C86.2234 59.1986 82.4995 55.4748 82.4995 50.7986C82.4995 46.1225 86.2234 42.3986 90.8995 42.3986H93.7477C92.5094 41.82 91.15 41.5002 89.6995 41.5002H59.8995C58.449 41.5002 57.0896 41.82 55.8513 42.3986ZM53.9417 59.1986H39.7853C41.2866 63.0356 43.7747 66.8791 47.2623 70.5553L47.2769 70.5706L47.6807 71.0754C48.4805 71.9583 49.5394 72.3994 50.6996 72.3994H98.9996C100.134 72.3994 101.204 71.8792 102.027 71.065L102.42 70.5731L102.433 70.5599C105.893 66.8184 108.369 63.0028 109.875 59.1986H95.5053L95.5829 59.3114C93.8996 60.4687 91.9009 61.0994 89.7996 61.0994H59.9996C57.7453 61.0994 55.6918 60.3985 53.9417 59.1986ZM90.8995 43.3986C86.7757 43.3986 83.4995 46.6748 83.4995 50.7986C83.4995 54.9225 86.7757 58.1986 90.8995 58.1986H140.6C144.719 58.1986 148 54.8266 148 50.7986C148 46.6748 144.723 43.3986 140.6 43.3986H90.8995Z" fill="white"/>
<path d="M141.33 76.6321L131.306 86.6562L126.475 81.9383L127.524 80.8652L131.293 84.5473L140.269 75.5714L141.33 76.6321Z" fill="white"/>
</svg>
