<svg width="32" height="32" viewBox="0 0 32 32" fill="none" xmlns="http://www.w3.org/2000/svg">
<path d="M14.4 11.2541H13.1333V10.2031H14.4V11.2541Z" fill="white"/>
<path d="M16 11.2541H17.2667V10.2031H16V11.2541Z" fill="white"/>
<path d="M20.1334 11.2541H18.8667V10.2031H20.1334V11.2541Z" fill="white"/>
<path fill-rule="evenodd" clip-rule="evenodd" d="M15.4653 3.46875H12.6743V8.00391H10.6743V12.0703H9.12538V8.9375H6.40771V13.5391H2.94141V17.7312C2.94155 17.7514 2.94286 17.7716 2.94536 17.7919L3.45626 21.9358C3.11444 21.7723 2.7045 21.6055 2 21.6055V22.6565C2.53736 22.6565 2.78559 22.7776 3.09352 22.9279L3.11128 22.9366C3.48682 23.1198 3.91997 23.3231 4.73333 23.3231C5.5131 23.3231 5.932 23.1188 6.29708 22.9407L6.30539 22.9366C6.61318 22.7865 6.88003 22.6565 7.46667 22.6565C8.00402 22.6565 8.25226 22.7776 8.56019 22.9279L8.57794 22.9366C8.95348 23.1198 9.38664 23.3231 10.2 23.3231C10.9798 23.3231 11.3987 23.1188 11.7638 22.9407L11.7721 22.9366C12.0799 22.7865 12.3467 22.6565 12.9333 22.6565C13.4707 22.6565 13.7189 22.7776 14.0269 22.9279L14.0446 22.9366C14.4202 23.1198 14.8533 23.3231 15.6667 23.3231C16.4464 23.3231 16.8653 23.1188 17.2304 22.9407L17.2387 22.9366C17.5465 22.7865 17.8134 22.6565 18.4 22.6565C18.9374 22.6565 19.1856 22.7776 19.4935 22.9279L19.5113 22.9366C19.8868 23.1198 20.32 23.3231 21.1333 23.3231C21.9131 23.3231 22.332 23.1188 22.6971 22.9407L22.7054 22.9366C23.0132 22.7865 23.28 22.6565 23.8667 22.6565C24.404 22.6565 24.6523 22.7776 24.9602 22.9279L24.9779 22.9366C25.3535 23.1198 25.7866 23.3231 26.6 23.3231C27.3798 23.3231 27.7987 23.1188 28.1638 22.9407L28.1721 22.9366C28.4799 22.7865 28.7467 22.6565 29.3333 22.6565V21.6055C28.52 21.6055 28.0868 21.8088 27.7113 21.992L27.6935 22.0007C27.5455 22.0729 27.4113 22.1384 27.2522 22.187L29.6414 13.1959C29.6831 13.0393 29.6501 12.8722 29.5521 12.7432C29.4541 12.6141 29.3021 12.5375 29.1401 12.5355L23.7401 12.4688C23.5749 12.4668 23.4184 12.5425 23.3175 12.6733L22.6746 13.5067L22.7307 8.00391H16.7325L15.4653 3.46875ZM26.1506 22.2403L28.4524 13.578L23.9894 13.5229L22.3497 15.6486C22.2502 15.7775 22.0965 15.8531 21.9336 15.8531H19.0837L17.7061 17.9495C17.6094 18.0966 17.4455 18.1856 17.2694 18.1864L4.06082 18.2502L4.55614 22.2678C4.61186 22.2707 4.67078 22.2721 4.73333 22.2721C5.27069 22.2721 5.51892 22.151 5.82685 22.0007L5.84461 21.992C6.22015 21.8088 6.6533 21.6055 7.46667 21.6055C8.24643 21.6055 8.66534 21.8098 9.03042 21.9879L9.03873 21.992C9.34652 22.1421 9.61336 22.2721 10.2 22.2721C10.7374 22.2721 10.9856 22.151 11.2935 22.0007L11.3113 21.992C11.6868 21.8088 12.12 21.6055 12.9333 21.6055C13.7131 21.6055 14.132 21.8098 14.4971 21.9879L14.5054 21.992C14.8132 22.1421 15.08 22.2721 15.6667 22.2721C16.204 22.2721 16.4523 22.151 16.7602 22.0007L16.7779 21.992C17.1535 21.8088 17.5866 21.6055 18.4 21.6055C19.1798 21.6055 19.5987 21.8098 19.9638 21.9879L19.9721 21.992C20.2799 22.1421 20.5467 22.2721 21.1333 22.2721C21.6707 22.2721 21.9189 22.151 22.2269 22.0007L22.2446 21.992C22.6201 21.8088 23.0533 21.6055 23.8667 21.6055C24.6464 21.6055 25.0653 21.8098 25.4304 21.9879L25.4387 21.992C25.6546 22.0973 25.8504 22.1927 26.1506 22.2403ZM3.99241 14.5901H6.40771V15.5963H7.45871V13.1213H13.5331V12.0703H11.7253V9.05491H21.6689L21.6103 14.8021H18.8002C18.6233 14.8021 18.4582 14.8911 18.3611 15.039L16.9825 17.1368L3.99241 17.1995V14.5901ZM7.45871 12.0703H8.07438V9.9885H7.45871V12.0703ZM15.6412 8.00391L14.6677 4.51975H13.7253V8.00391H15.6412Z" fill="white"/>
<path fill-rule="evenodd" clip-rule="evenodd" d="M23.5412 27.4667V17H24.5922V27.4667H23.5412Z" fill="#DD2B1C"/>
</svg>
