<svg width="32" height="32" viewBox="0 0 32 32" fill="none" xmlns="http://www.w3.org/2000/svg">
<path fill-rule="evenodd" clip-rule="evenodd" d="M9.40213 17.4766L25.9333 17.5432C25.9337 17.5432 25.9341 17.5432 25.9345 17.5432C27.6242 17.5438 28.9922 18.9122 28.9922 20.6021C28.9922 22.2923 27.6236 23.6609 25.9333 23.6609L25.9313 23.6609L8.86462 23.5942L8.86873 22.5432L25.9333 22.6099C25.9337 22.6099 25.934 22.6099 25.9344 22.6099C27.0437 22.6093 27.9412 21.7115 27.9412 20.6021C27.9412 19.4923 27.0431 18.5942 25.9333 18.5942L25.9312 18.5942L9.39789 18.5276L9.40213 17.4766Z" fill="#DD2B1C"/>
<path fill-rule="evenodd" clip-rule="evenodd" d="M14.5678 4.76562L18.8031 6.15303L20.0387 8.00654L24.3425 10.6024L25.2438 15.6885L25.7857 15.7427C25.9784 15.762 26.1449 15.8857 26.2189 16.0647L27.0189 17.7361C27.0189 17.7361 26.5857 17.6066 26.3001 17.5661C26.0676 17.5331 25.7001 17.5261 25.7001 17.5261L25.3681 16.7572L23.8102 16.6014L22.4704 17.1437L21.4501 17.5161H21.1305H20.6817H20.4532L19.3367 16.9266L17.9917 16.193L16.4152 16.9967L15.4501 17.4961H14.8387H14.2847H13.9001L13.2416 16.9703L12.1985 16.188L10.2846 17.6098L9.32637 25.537H25.786L25.5334 23.6461C25.5334 23.6461 25.8348 23.6565 26.0274 23.6461C26.2128 23.6361 26.5001 23.5961 26.5001 23.5961L26.8497 25.537H27.8667V26.588H3.4249L4.42263 15.5417L7.80315 10.7413L9.25945 7.2046L14.5678 4.76562ZM8.26772 25.537L9.70752 13.6259L14.4561 10.4846L22.4195 13.1153L23.2412 15.6979L23.5362 15.5785C23.6152 15.5465 23.7008 15.5342 23.7857 15.5427L24.1572 15.5799L23.3909 11.2559L19.2946 8.7851L18.1303 7.0386L14.6322 5.89267L10.0739 7.98703L8.73019 11.2503L5.44404 15.9166L4.5751 25.537H8.26772ZM22.2642 16.0934L21.5806 13.9451L14.6107 11.6425L10.6926 14.2344L10.4585 16.1714L11.8867 15.1104C12.0734 14.9717 12.3292 14.9723 12.5153 15.1119L14.6532 16.7153L17.7614 15.1308C17.9159 15.052 18.0994 15.0545 18.2517 15.1376L20.9667 16.6185L22.2642 16.0934Z" fill="white"/>
<path fill-rule="evenodd" clip-rule="evenodd" d="M24.0746 20.6648C24.0746 19.8591 24.7277 19.206 25.5334 19.206C26.3391 19.206 26.9923 19.8591 26.9923 20.6648C26.9923 21.4705 26.3391 22.1237 25.5334 22.1237C24.7277 22.1237 24.0746 21.4705 24.0746 20.6648ZM25.5334 20.257C25.3082 20.257 25.1256 20.4396 25.1256 20.6648C25.1256 20.8901 25.3082 21.0727 25.5334 21.0727C25.7587 21.0727 25.9413 20.8901 25.9413 20.6648C25.9413 20.4396 25.7587 20.257 25.5334 20.257Z" fill="white"/>
<path fill-rule="evenodd" clip-rule="evenodd" d="M18.8 19.206C17.9943 19.206 17.3412 19.8591 17.3412 20.6648C17.3412 21.4705 17.9943 22.1237 18.8 22.1237C19.6057 22.1237 20.2589 21.4705 20.2589 20.6648C20.2589 19.8591 19.6057 19.206 18.8 19.206ZM18.3922 20.6648C18.3922 20.4396 18.5748 20.257 18.8 20.257C19.0253 20.257 19.2079 20.4396 19.2079 20.6648C19.2079 20.8901 19.0253 21.0727 18.8 21.0727C18.5748 21.0727 18.3922 20.8901 18.3922 20.6648Z" fill="white"/>
<path fill-rule="evenodd" clip-rule="evenodd" d="M10.808 20.6648C10.808 19.8591 11.4611 19.206 12.2668 19.206C13.0725 19.206 13.7257 19.8591 13.7257 20.6648C13.7257 21.4705 13.0725 22.1237 12.2668 22.1237C11.4611 22.1237 10.808 21.4705 10.808 20.6648ZM12.2668 20.257C12.0416 20.257 11.859 20.4396 11.859 20.6648C11.859 20.8901 12.0416 21.0727 12.2668 21.0727C12.4921 21.0727 12.6747 20.8901 12.6747 20.6648C12.6747 20.4396 12.4921 20.257 12.2668 20.257Z" fill="white"/>
</svg>
