<svg width="32" height="32" viewBox="0 0 32 32" fill="none" xmlns="http://www.w3.org/2000/svg">
<path d="M16.9998 11.0198H27.3332V9.96875H16.9998V11.0198Z" fill="#DD2B1C"/>
<path d="M4.6665 11.0237H14.9998V9.97266H4.6665V11.0237Z" fill="#DD2B1C"/>
<path fill-rule="evenodd" clip-rule="evenodd" d="M4.6665 9.05881H14.4745V11.7921H15.4744V12.2092C14.6344 12.443 14.0077 13.2209 14.0077 14.1297C14.0077 14.5353 14.0906 14.909 14.3525 15.2748C14.584 15.7021 14.9886 15.9474 15.4076 16.0553V16.963H10.4334V18.4963H8.3667V25.6297H15.5737L17.1737 23.6297H23.8334V18.0297H21.9983L20.865 16.963H16.4586V16.055C17.038 15.9047 17.5366 15.5061 17.7586 14.9142L16.7745 14.5452C16.7171 14.6982 16.607 14.8315 16.4586 14.9255V14.1974H15.4076V14.9184C15.3442 14.8712 15.2977 14.817 15.2699 14.7613L15.2487 14.7189L15.2203 14.681C15.1035 14.5253 15.0587 14.3771 15.0587 14.1297C15.0587 13.6199 15.4901 13.1885 15.9999 13.1885H16.5254V11.7921H17.3922V9.05881H27.2664V8.00781H18.4047C19.0167 7.39052 19.3922 6.54165 19.3922 5.59946C19.3922 3.70923 17.8236 2.14062 15.9333 2.14062C14.0431 2.14062 12.4745 3.70923 12.4745 5.59946C12.4745 6.54887 12.8245 7.38912 13.4164 8.00781H4.6665V9.05881ZM15.9333 3.19162C14.6236 3.19162 13.5255 4.28968 13.5255 5.59946C13.5255 6.41968 13.8854 7.10878 14.4745 7.54414V6.46665C14.4745 5.64309 15.1098 5.00781 15.9333 5.00781C16.7569 5.00781 17.3922 5.64309 17.3922 6.46665V7.49934C17.9713 7.06716 18.3412 6.37994 18.3412 5.59946C18.3412 4.28968 17.2431 3.19162 15.9333 3.19162ZM11.4334 17.963V19.4963H9.3667V24.6297H15.0931L16.6931 22.6297H22.8334V19.0297H21.6017L20.4684 17.963H11.4334ZM15.9333 6.05881C15.6902 6.05881 15.5255 6.22354 15.5255 6.46665V10.7411H16.3412V6.46665C16.3412 6.22354 16.1764 6.05881 15.9333 6.05881Z" fill="white"/>
</svg>
