<svg width="32" height="32" viewBox="0 0 32 32" fill="none" xmlns="http://www.w3.org/2000/svg">
<path d="M24.3413 15.2656V19.799H25.3923V15.2656H24.3413Z" fill="#DD2B1C"/>
<path d="M20.8745 20.8654V16.332H21.9255V20.8654H20.8745Z" fill="#DD2B1C"/>
<path d="M17.4077 17.1992V21.7325H18.4587V17.1992H17.4077Z" fill="#DD2B1C"/>
<path d="M13.9414 18.0664V22.5997H14.9924V18.0664H13.9414Z" fill="#DD2B1C"/>
<path d="M7.75773 2.03234C7.79604 2.64522 8.01092 3.41093 8.67627 3.93448C9.34656 4.46192 10.3539 4.64958 11.7665 4.36707L11.7752 4.36525C12.6473 4.17496 13.171 4.21813 13.4713 4.32746C13.7416 4.42586 13.8568 4.58557 13.9126 4.76712C13.9766 4.97521 13.9668 5.23915 13.9074 5.49609C13.8786 5.6202 13.8411 5.73062 13.8046 5.81602C13.7719 5.89246 13.748 5.93038 13.7424 5.93929C13.7413 5.94093 13.7409 5.94159 13.7412 5.94131L14.5248 6.59354C14.6816 6.40535 14.8219 6.06643 14.9006 5.72583C14.9829 5.37027 15.023 4.90921 14.887 4.4673C14.7429 3.99886 14.4081 3.58357 13.82 3.36947C13.2629 3.16662 12.5213 3.1595 11.5623 3.36821C10.311 3.61771 9.6527 3.40553 9.30672 3.13328C8.9554 2.85684 8.80361 2.42254 8.77525 1.96875L7.75773 2.03234Z" fill="white"/>
<path fill-rule="evenodd" clip-rule="evenodd" d="M28.9826 5.94667L24.4858 5.9872V14.7619L23.5139 14.9988V5.95134H18.9526V14.0847H16.7507L16.2164 7.74067H12.5785L12.111 14.0847H4.5245L2.81934 18.1622V25.9794H28.9123L28.9826 5.94667ZM27.9265 13.9233L25.5139 14.5113V7.00608L27.9508 6.98411L27.9265 13.9233ZM10.5058 19.251L27.9227 15.006L27.902 20.9135L11.915 24.8313L10.5058 19.251ZM15.8407 24.9513H27.8878L27.8982 21.9965L15.8407 24.9513ZM9.45775 19.3932L10.8613 24.9513H7.65869V19.3932H9.45775ZM18.9526 16.1105L9.796 18.3422H6.60769V24.9513H3.84744V18.3685L5.20894 15.1128H18.9526V16.1105ZM22.4858 15.2494L19.9807 15.8599V6.97944H22.4858V15.2494ZM13.1648 14.0847H15.6959L15.2502 8.79167H13.5549L13.1648 14.0847Z" fill="white"/>
</svg>
