<svg width="32" height="26" viewBox="0 0 32 26" fill="none" xmlns="http://www.w3.org/2000/svg">
<path fill-rule="evenodd" clip-rule="evenodd" d="M13.8079 0.46875H16.9256V2.7569L17.5923 7.42357V10.1367H22.0591V13.4023H22.6747V11.1367H23.4745V8.58182L26.0367 4.33594H27.1922V9.5281H26.1412V6.19698L24.5255 8.87437V11.1367H25.3257V13.4023H26.392V16.6482L24.9254 18.4482V19.7135L26.2615 23.9648C26.4662 24.028 26.6402 24.1021 26.8072 24.1732L26.8141 24.1761C27.1734 24.329 27.4992 24.4674 28.2 24.4674C28.8516 24.4674 29.1592 24.3365 29.517 24.1841L29.5359 24.1761C29.9599 23.9956 30.4341 23.8008 31.3333 23.8008V24.8518C30.6326 24.8518 30.3067 24.9903 29.9474 25.1432L29.9406 25.1461C29.525 25.3229 29.0655 25.5184 28.2 25.5184C27.3008 25.5184 26.8266 25.3236 26.4026 25.1432L26.3836 25.1351C26.0259 24.9828 25.7182 24.8518 25.0667 24.8518C24.3659 24.8518 24.0401 24.9903 23.6808 25.1432L23.6739 25.1461C23.2583 25.3229 22.7989 25.5184 21.9333 25.5184C21.0341 25.5184 20.5599 25.3236 20.1359 25.1432L20.117 25.1351C19.7592 24.9828 19.4516 24.8518 18.8 24.8518C18.0992 24.8518 17.7734 24.9903 17.4141 25.1432L17.4072 25.1461C16.9917 25.3229 16.5322 25.5184 15.6667 25.5184C14.7674 25.5184 14.2933 25.3236 13.8692 25.1432L13.8503 25.1351C13.4926 24.9828 13.1849 24.8518 12.5333 24.8518C11.8326 24.8518 11.5067 24.9903 11.1474 25.1432L11.1406 25.1461C10.725 25.3229 10.2655 25.5184 9.4 25.5184C8.50078 25.5184 8.0266 25.3236 7.60257 25.1432L7.58364 25.1351C7.22589 24.9828 6.91822 24.8518 6.26667 24.8518C5.56589 24.8518 5.24007 24.9903 4.88076 25.1432L4.8739 25.1461C4.45834 25.3229 3.99888 25.5184 3.13333 25.5184C2.23411 25.5184 1.75993 25.3236 1.3359 25.1432L1.31698 25.1351C0.959227 24.9828 0.651554 24.8518 0 24.8518V23.8008C0.865548 23.8008 1.325 23.9963 1.74056 24.1732L1.74743 24.1761C2.10674 24.329 2.43255 24.4674 3.13333 24.4674C3.78489 24.4674 4.09256 24.3364 4.45031 24.1841L4.46924 24.1761C4.61195 24.1153 4.76034 24.053 4.92871 23.997L6.27457 19.7147V18.4463L4.87434 16.7279L3.37544 12.9182H2.6665V11.8672H8.54139V10.1367H13.0746V7.41988L13.8079 2.75321V0.46875ZM6.09125 23.8034C6.14788 23.8017 6.20632 23.8008 6.26667 23.8008C7.13222 23.8008 7.59167 23.9963 8.00723 24.1732L8.0141 24.1761C8.3734 24.329 8.69922 24.4674 9.4 24.4674C10.0516 24.4674 10.3592 24.3364 10.717 24.1841L10.7359 24.1761C11.1599 23.9956 11.6341 23.8008 12.5333 23.8008C13.3989 23.8008 13.8583 23.9963 14.2739 24.1732L14.2808 24.1761C14.6401 24.329 14.9659 24.4674 15.6667 24.4674C16.3182 24.4674 16.6259 24.3364 16.9836 24.1841L17.0026 24.1761C17.4266 23.9956 17.9008 23.8008 18.8 23.8008C19.6656 23.8008 20.125 23.9963 20.5406 24.1732L20.5474 24.1761C20.9067 24.329 21.2326 24.4674 21.9333 24.4674C22.5849 24.4674 22.8926 24.3364 23.2503 24.1841L23.2692 24.1761C23.6933 23.9956 24.1674 23.8008 25.0667 23.8008C25.0807 23.8008 25.0945 23.8008 25.1083 23.8009L24.0145 20.3205H7.18585L6.09125 23.8034ZM16.5413 7.49826V10.1367H14.1256V7.50195L14.5316 4.91819H16.1727L16.5413 7.49826ZM16.0225 3.86719L15.8746 2.83159V1.51975H14.8589V2.83529L14.6968 3.86719H16.0225ZM24.2747 12.1877V13.4023H23.7257V12.1877H24.2747ZM4.50486 12.9182L5.69125 15.9336H8.54139V12.9182H4.50486ZM6.43923 16.9846H24.7622L23.8744 18.0742V19.2695H7.32557V18.0724L6.43923 16.9846ZM25.341 14.4533V15.9336H22.0591V14.4533H25.341ZM21.0081 11.1877V15.9336H9.59239V11.1877H21.0081Z" fill="white"/>
</svg>
