<svg width="32" height="32" viewBox="0 0 32 32" fill="none" xmlns="http://www.w3.org/2000/svg">
<path fill-rule="evenodd" clip-rule="evenodd" d="M5.53353 4.03906C4.50692 4.03906 3.6747 4.87129 3.6747 5.8979C3.6747 6.9245 4.50692 7.75673 5.53353 7.75673C6.56013 7.75673 7.39236 6.9245 7.39236 5.8979C7.39236 4.87129 6.56013 4.03906 5.53353 4.03906ZM4.7257 5.8979C4.7257 5.45174 5.08737 5.09006 5.53353 5.09006C5.97968 5.09006 6.34136 5.45174 6.34136 5.8979C6.34136 6.34405 5.97968 6.70573 5.53353 6.70573C5.08737 6.70573 4.7257 6.34405 4.7257 5.8979Z" fill="white"/>
<path d="M11.598 6.42209H9V5.37109H12.7255V6.78093L11.3049 8.20151L10.5617 7.45834L11.598 6.42209Z" fill="white"/>
<path d="M29.3998 24.4375H7.7921V17.9572H13.6666V16.9062H7.7921V11.0333H6.7411V24.4375H2.6665V25.4885H29.3998V24.4375Z" fill="white"/>
<path d="M13.2002 10.6252H15.7982L14.7619 11.6615L15.5051 12.4046L16.9257 10.9841V9.57422H13.2002V10.6252Z" fill="white"/>
<path d="M19.8125 14.758H17.2666V13.707H20.9921V15.0423L19.5809 16.5278L18.8189 15.8039L19.8125 14.758Z" fill="white"/>
<path fill-rule="evenodd" clip-rule="evenodd" d="M6.76199 4.40958C6.03388 3.68147 4.7666 3.68147 4.03849 4.40958C3.31038 5.1377 3.31038 6.40498 4.03849 7.13309L19.1052 22.1998C19.5359 22.6305 20.1168 22.8315 20.6146 22.7818L20.7192 23.8276C19.8836 23.9111 18.9979 23.5789 18.362 22.9429L3.29532 7.87626C2.15677 6.73771 2.15677 4.80497 3.29532 3.66642C4.43388 2.52786 6.3666 2.52786 7.50516 3.66642L22.5718 18.7331C22.8119 18.9732 23.0568 19.2979 23.2215 19.7095L22.2457 20.0998C22.1436 19.8448 21.9886 19.6362 21.8287 19.4763L6.76199 4.40958Z" fill="#DD2B1C"/>
<path fill-rule="evenodd" clip-rule="evenodd" d="M22.4078 15.9062V19.3729H20.1411V25.4906H26.3064L29.3948 20.0321L29.3154 15.9062H22.4078ZM23.4588 19.3711V16.9572H28.2845L28.3309 19.3711H23.4588ZM23.4588 20.4221V20.4239H21.1921V24.4396H25.6935L27.9665 20.4221H23.4588Z" fill="white"/>
</svg>
