<svg width="32" height="32" viewBox="0 0 32 32" fill="none" xmlns="http://www.w3.org/2000/svg">
<path fill-rule="evenodd" clip-rule="evenodd" d="M17.6317 11.0705C16.5797 10.5445 15.2871 10.5445 14.2351 11.0705L14.2206 11.0775L3.55398 16.0108L3.11279 15.0569L13.7724 10.1268C15.1167 9.45764 16.7507 9.45773 18.0949 10.1271L28.6885 15.0574L28.245 16.0103L17.645 11.0769L17.6317 11.0705Z" fill="#DD2B1C"/>
<path fill-rule="evenodd" clip-rule="evenodd" d="M19.5097 5.52496V2.14062H12.5254V5.52496H15.4744V6.26054C14.2439 6.49829 13.341 7.55967 13.341 8.86951C13.341 9.42234 13.4964 10.0109 13.851 10.4579C14.3449 11.1126 15.0953 11.5283 15.9999 11.5283C17.0904 11.5283 18.0006 10.8579 18.4116 9.95363L17.4548 9.51872C17.1992 10.0812 16.6427 10.4773 15.9999 10.4773C15.4407 10.4773 14.9931 10.2291 14.6869 9.82088L14.682 9.81431L14.6769 9.8079C14.5018 9.58903 14.392 9.24731 14.392 8.86951C14.392 7.95974 15.0901 7.26167 15.9999 7.26167H16.5254V5.52496H19.5097ZM18.4587 3.19163V4.47396H13.5764V3.19163H18.4587Z" fill="white"/>
<path d="M15.9331 15.5365V10.2031" stroke="#DD2B1C" stroke-width="1.051" stroke-miterlimit="10" stroke-linejoin="round"/>
<path d="M14 10.6031C14.4667 10.4031 15 10.2698 15.5333 10.2031" stroke="#DD2B1C" stroke-width="1.051" stroke-miterlimit="10" stroke-linejoin="round"/>
<path d="M23.6748 17.1406V22.7406H24.7258V17.1406H23.6748Z" fill="white"/>
<path d="M19.5415 22.7406V17.1406H20.5925V22.7406H19.5415Z" fill="white"/>
<path d="M11.208 17.1406V22.7406H12.259V17.1406H11.208Z" fill="white"/>
<path d="M7.00781 22.7406V17.1406H8.05881V22.7406H7.00781Z" fill="white"/>
<path d="M15.3413 17.1406V22.7406H16.3923V17.1406H15.3413Z" fill="white"/>
<path fill-rule="evenodd" clip-rule="evenodd" d="M2.80811 25.0083V14.875H3.85911V15.0175H27.9414V14.875H28.9924V25.0083H27.9414V24.7989H3.85911V25.0083H2.80811ZM3.85911 23.7479V16.0685H27.9414V23.7479H3.85911Z" fill="white"/>
</svg>
