<svg width="114" height="84" viewBox="0 0 114 84" fill="none" xmlns="http://www.w3.org/2000/svg">
<g clip-path="url(#clip0_4490_291270)">
<path fill-rule="evenodd" clip-rule="evenodd" d="M21.0727 20.1746H51.1755L61.3323 56.2704L61.3351 56.2826C62.3477 60.7225 62.893 65.2403 62.9711 69.7581L62.9711 69.7606L63.3718 84.2631H8.84224L9.2431 69.7519C9.39872 65.2391 9.94337 60.7262 10.8771 56.2908L10.8807 56.2739L21.0727 20.1746ZM21.8725 21.1746L11.8522 56.5136C10.9327 60.8861 10.3961 65.3353 10.2426 69.7847L10.2425 69.7864L9.87025 83.2631H62.3438L61.9714 69.783L61.9713 69.7778C61.8946 65.3321 61.3585 60.8864 60.3629 56.5172L50.418 21.1746H21.8725Z" fill="white"/>
<path fill-rule="evenodd" clip-rule="evenodd" d="M28.958 22.7904V24.1584L26.4987 26.5828C26.103 27.0511 25.8597 27.6284 25.8597 28.1741V28.1832L24.7 59.8816C24.7033 60.7628 25.2033 61.5766 26.0106 61.9598L29.6185 63.188L29.2962 64.1347L25.6378 62.8892L25.6141 62.8783C24.4271 62.3305 23.7 61.145 23.7 59.8729V59.8638L24.8597 28.1645C24.8625 27.3282 25.2313 26.5247 25.7532 25.9158L25.7676 25.899L28.958 22.7904Z" fill="white"/>
<path fill-rule="evenodd" clip-rule="evenodd" d="M28.958 58.2499V47.5806H29.958V58.2499H28.958Z" fill="white"/>
<path fill-rule="evenodd" clip-rule="evenodd" d="M28.958 28.3269V21.1746H29.958V28.3269H28.958Z" fill="white"/>
<path fill-rule="evenodd" clip-rule="evenodd" d="M42.8746 58.2499V47.5806H43.8746V58.2499H42.8746Z" fill="white"/>
<path fill-rule="evenodd" clip-rule="evenodd" d="M42.8746 28.3269V21.1746H43.8746V28.3269H42.8746Z" fill="white"/>
<path fill-rule="evenodd" clip-rule="evenodd" d="M46.1787 26.6608L43.8746 24.4023V23L46.9096 25.9768L46.9241 25.9937C47.4451 26.6016 47.8135 27.4033 47.8176 28.2379L49.5185 59.9374V59.9509C49.5185 61.2229 48.7914 62.4084 47.6044 62.9562L47.57 62.9721L43.5131 64.1423L43.236 63.1815L47.218 62.0329C48.0182 61.6482 48.5137 60.8395 48.5185 59.9636L46.8176 28.2654V28.252C46.8176 27.7064 46.5743 27.1291 46.1787 26.6608Z" fill="white"/>
<path fill-rule="evenodd" clip-rule="evenodd" d="M29.6114 67.7957H10.3367L10.4034 66.7957H29.6114V67.7957Z" fill="white"/>
<path fill-rule="evenodd" clip-rule="evenodd" d="M61.9067 67.7957H43.2175V66.7957H61.8509L61.9067 67.7957Z" fill="white"/>
<path fill-rule="evenodd" clip-rule="evenodd" d="M22.2545 1H49.7225L50.625 16.0712H21.4844L22.2545 1ZM23.2063 2L22.5599 15.0712H49.4941L48.776 2H23.2063Z" fill="white"/>
<path fill-rule="evenodd" clip-rule="evenodd" d="M22.4727 16.0712L22.066 20.1746H21.0727L21.4844 16.0712H22.4727Z" fill="white"/>
<path fill-rule="evenodd" clip-rule="evenodd" d="M50.625 16.0712L51.1755 20.1746H50.168L49.5938 16.0712H50.625Z" fill="white"/>
<path fill-rule="evenodd" clip-rule="evenodd" d="M36.0292 21.1746C36.3054 21.1746 36.5297 21.1746 36.5297 21.1746V28.9472C36.5297 29.2233 36.3058 29.4472 36.0297 29.4472C35.7535 29.4472 35.5297 29.2233 35.5297 28.9472V21.1746C35.5297 21.1746 35.7531 21.1746 36.0292 21.1746Z" fill="white"/>
<path fill-rule="evenodd" clip-rule="evenodd" d="M28.958 28.6006H43.8767L43.7951 47.3056H39.3181V46.3778H33.3598V47.3056H28.958V28.6006ZM32.3598 46.3056V45.3778H40.3181V46.3056H42.7994L42.8724 29.6006H29.958V46.3056H32.3598Z" fill="#DD2B1C"/>
<path fill-rule="evenodd" clip-rule="evenodd" d="M76 84.2613H0V83.2613H76V84.2613Z" fill="white"/>
<path fill-rule="evenodd" clip-rule="evenodd" d="M14.5357 70.4289H20.1023V71.4289H14.5357V70.4289Z" fill="white"/>
<path fill-rule="evenodd" clip-rule="evenodd" d="M53.0388 70.4289H58.5282V71.4289H53.0388V70.4289Z" fill="white"/>
<path fill-rule="evenodd" clip-rule="evenodd" d="M29.0335 58.5992H33.8992V60.0682H39.007V58.6765H43.8764L43.7954 69.9232V69.9251C43.7944 70.6643 43.1844 71.2737 42.445 71.2737H30.3839C29.6439 71.2737 29.0335 70.6632 29.0335 69.9232V58.5992ZM30.0335 59.5992V69.9232C30.0335 70.1109 30.1962 70.2737 30.3839 70.2737H42.445C42.6327 70.2737 42.7954 70.1109 42.7954 69.9232V69.9196L42.8691 59.6765H40.007V61.0682H32.8992V59.5992H30.0335Z" fill="#DD2B1C"/>
<path fill-rule="evenodd" clip-rule="evenodd" d="M37.5411 28.9011C37.7364 29.0963 37.7364 29.4129 37.5411 29.6082L29.887 37.2623C29.6918 37.4576 29.3752 37.4576 29.1799 37.2623C28.9847 37.0671 28.9847 36.7505 29.1799 36.5552L36.834 28.9011C37.0293 28.7058 37.3459 28.7058 37.5411 28.9011Z" fill="#DD2B1C"/>
<path fill-rule="evenodd" clip-rule="evenodd" d="M43.4956 30.8339C43.6908 31.0292 43.6908 31.3458 43.4956 31.5411L29.9656 45.0711C29.7703 45.2663 29.4537 45.2663 29.2584 45.0711C29.0632 44.8758 29.0632 44.5592 29.2584 44.364L42.7885 30.8339C42.9837 30.6387 43.3003 30.6387 43.4956 30.8339Z" fill="#DD2B1C"/>
<path fill-rule="evenodd" clip-rule="evenodd" d="M43.5717 38.1788C43.7669 38.3741 43.7669 38.6907 43.5717 38.8859L36.4587 45.9988C36.2635 46.1941 35.9469 46.1941 35.7516 45.9988C35.5564 45.8036 35.5564 45.487 35.7516 45.2917L42.8646 38.1788C43.0598 37.9835 43.3764 37.9835 43.5717 38.1788Z" fill="#DD2B1C"/>
</g>
<defs>
<clipPath id="clip0_4490_291270">
<rect width="114" height="84" fill="white"/>
</clipPath>
</defs>
</svg>
