<svg width="64" height="132" viewBox="0 0 64 132" fill="none" xmlns="http://www.w3.org/2000/svg">
<path fill-rule="evenodd" clip-rule="evenodd" d="M31.0902 52.3259C30.3213 49.0889 28.9026 45.2667 24.9148 44.0162L25.425 44.1954V43.1289C29.9802 44.5573 31.2914 48.8459 32.0631 52.0948C32.4623 53.7752 32.6543 56.5726 32.6543 59.3394C32.6543 62.107 32.4621 64.9206 32.0637 66.6347C30.9878 71.2562 28.999 74.3083 25.4953 75.5091V74.4077C28.574 73.3525 30.0648 70.8103 31.0897 66.4081C31.4614 64.8087 31.6543 62.0883 31.6543 59.3394C31.6543 56.5898 31.4613 53.8883 31.0902 52.3259ZM26.4635 53.4443C26.1793 52.0165 25.8141 50.9565 25.3412 50.2423L25.425 50.3744L25.4147 53.3128L25.1225 52.1889L24.8304 51.398L24.5074 50.7944C24.8739 51.3479 25.2085 52.2591 25.4843 53.6472L25.4859 53.6554L25.4878 53.6636C25.7536 54.8009 25.8948 57.0411 25.8948 59.3394C25.8948 61.6356 25.7539 63.8946 25.4874 65.0697C25.2169 66.2267 24.8825 67.0287 24.5566 67.6193L24.795 67.1484L25.0303 66.5898L25.2496 65.9521L25.4234 65.3268L25.4745 65.6484L25.4953 66.0071L25.4953 67.9857L25.4321 68.1025C25.8063 67.4244 26.172 66.5349 26.4616 65.2958L26.4623 65.2927C26.7558 63.9999 26.8948 61.6423 26.8948 59.3394C26.8948 57.0428 26.7566 54.7059 26.4635 53.4443Z" fill="#DD2B1C"/>
<path fill-rule="evenodd" clip-rule="evenodd" d="M19.543 32.3984V53.0544C19.543 54.2928 20.6118 55.3038 21.984 55.3038C23.3562 55.3038 24.425 54.2928 24.425 53.0544V32.3984H25.425V48.5988V53.0544C25.425 54.9178 23.8329 56.3038 21.984 56.3038C20.1351 56.3038 18.543 54.9178 18.543 53.0544V32.3984H19.543Z" fill="#DD2B1C"/>
<path fill-rule="evenodd" clip-rule="evenodd" d="M22.0543 63.5664C20.7231 63.5664 19.6133 64.6788 19.6133 66.0273V90.2787H18.6133V66.0273C18.6133 64.1329 20.1644 62.5664 22.0543 62.5664C23.9442 62.5664 25.4953 64.1329 25.4953 66.0273V90.2787H24.4953V66.0273C24.4953 64.6788 23.3856 63.5664 22.0543 63.5664Z" fill="#DD2B1C"/>
<path fill-rule="evenodd" clip-rule="evenodd" d="M33.2045 76.7383H51.3963V77.7383H33.5954L23.6555 86.9115L22.9773 86.1766L33.2045 76.7383Z" fill="white"/>
<path fill-rule="evenodd" clip-rule="evenodd" d="M35.793 55.0234H53.9144V56.0234H36.1833L30.5848 61.1786L29.9074 60.443L35.793 55.0234Z" fill="white"/>
<path fill-rule="evenodd" clip-rule="evenodd" d="M28.9345 37.1172H47.1233V38.1172H29.3195L23.3001 43.5575L22.6296 42.8156L28.9345 37.1172Z" fill="white"/>
<path fill-rule="evenodd" clip-rule="evenodd" d="M33.7208 30.8072L30.2899 35.1249L27.5828 32.3994L28.2922 31.6947L30.2067 33.6221L32.9379 30.185L33.7208 30.8072Z" fill="white"/>
<path fill-rule="evenodd" clip-rule="evenodd" d="M43.8337 34.5195H34.7305V33.5195H43.8337V34.5195Z" fill="white"/>
<path fill-rule="evenodd" clip-rule="evenodd" d="M50.3457 52.5703H41.3125V51.5703H50.3457V52.5703Z" fill="white"/>
<path fill-rule="evenodd" clip-rule="evenodd" d="M49.1543 74.4922H40.1211V73.4922H49.1543V74.4922Z" fill="white"/>
<path fill-rule="evenodd" clip-rule="evenodd" d="M40.7562 48.5988L37.602 53.6002L34.5691 50.2167L35.3137 49.5493L37.4626 51.9466L39.9104 48.0653L40.7562 48.5988Z" fill="white"/>
<path fill-rule="evenodd" clip-rule="evenodd" d="M39.3442 70.5398L35.8663 75.6327L33.2073 72.0355L34.0115 71.4411L35.834 73.9067L38.5183 69.9758L39.3442 70.5398Z" fill="white"/>
<path fill-rule="evenodd" clip-rule="evenodd" d="M3 17.3086H13.2227V18.3086H4V99.2979H59.2998V18.3086H50.0052V17.3086H60.2998V100.298H3V17.3086Z" fill="white"/>
<path fill-rule="evenodd" clip-rule="evenodd" d="M23.8664 12.0954C23.8664 9.8485 25.6976 8 27.9376 8H35.2902C37.5302 8 39.3615 9.8485 39.3615 12.0954V14.4153H50.0052V22.5356H13.2227V14.4153H23.8664V12.0954ZM27.9376 9C26.2563 9 24.8664 10.3944 24.8664 12.0954V15.4153H14.2227V21.5356H49.0052V15.4153H38.3615V12.0954C38.3615 10.3944 36.9716 9 35.2902 9H27.9376Z" fill="white"/>
<path fill-rule="evenodd" clip-rule="evenodd" d="M35.0111 13.7227H28.2188V12.7227H35.0111V13.7227Z" fill="white"/>
<path fill-rule="evenodd" clip-rule="evenodd" d="M13.0157 52.4123C13.7845 49.1754 15.2033 45.3531 19.1911 44.1026L18.8919 43.1484C14.3367 44.5769 12.8144 48.9324 12.0428 52.1812C11.6436 53.8617 11.4515 56.6591 11.4515 59.4259C11.4515 62.1935 11.6437 65.007 12.0422 66.7211C13.1181 71.3427 15.5858 74.5514 19.0895 75.7522L19.4137 74.8062C16.335 73.751 14.041 70.8967 13.0162 66.4945C12.6444 64.8952 12.4515 62.1747 12.4515 59.4259C12.4515 56.6763 12.6446 53.9748 13.0157 52.4123ZM17.6424 53.5307C17.9266 52.103 18.2917 51.043 18.7647 50.3288L19.543 50.9062C19.1765 51.4597 18.8974 52.3456 18.6216 53.7337L18.62 53.7419L18.6181 53.75C18.3523 54.8873 18.211 57.1276 18.211 59.4259C18.211 61.722 18.352 63.9811 18.6184 65.1562C18.889 66.3132 19.2234 67.1152 19.5493 67.7058L18.6738 68.1889C18.2996 67.5109 17.9339 66.6213 17.6443 65.3822L17.6436 65.3791C17.3501 64.0864 17.211 61.7288 17.211 59.4259C17.211 57.1293 17.3493 54.7924 17.6424 53.5307Z" fill="#DD2B1C"/>
</svg>
