<svg width="114" height="84" viewBox="0 0 114 84" fill="none" xmlns="http://www.w3.org/2000/svg">
<path fill-rule="evenodd" clip-rule="evenodd" d="M0 25H65V62.1423H64V26H1V70.2823H57.3009V71.2823H0V25Z" fill="white"/>
<path fill-rule="evenodd" clip-rule="evenodd" d="M63.9994 70.2812L64 62.1423H65L64.9994 71.2812H57.3009V70.2812H63.9994Z" fill="white"/>
<path fill-rule="evenodd" clip-rule="evenodd" d="M48.8808 83.9578V66.608H49.8808V83.9578H48.8808Z" fill="#DD2B1C"/>
<path fill-rule="evenodd" clip-rule="evenodd" d="M54.2098 77.8363V66.4618H55.2098V77.8363H54.2098Z" fill="#DD2B1C"/>
<path fill-rule="evenodd" clip-rule="evenodd" d="M13.0253 31.766H52.3324V32.766H13.0253V31.766Z" fill="white"/>
<path fill-rule="evenodd" clip-rule="evenodd" d="M47.1513 42.7013H18.2109V41.7013H47.1513V42.7013Z" fill="white"/>
<path fill-rule="evenodd" clip-rule="evenodd" d="M5.9027 59.2649V35.6519H6.9027V59.2649H5.9027Z" fill="white"/>
<path fill-rule="evenodd" clip-rule="evenodd" d="M59.3195 53.5776V35.2919H60.3195V53.5776H59.3195Z" fill="white"/>
<path fill-rule="evenodd" clip-rule="evenodd" d="M45.6395 64.802H13.8915V63.802H45.6395V64.802Z" fill="white"/>
<path fill-rule="evenodd" clip-rule="evenodd" d="M21.7318 54.7741C21.9027 53.0397 21.4816 51.778 20.7062 51.0148C19.9302 50.2512 18.8693 50.0604 17.9463 50.3444C17.0204 50.6293 16.2314 51.3909 15.978 52.5118C15.7257 53.6279 16.0183 55.0236 17.076 56.5912L17.0776 56.5937C17.5303 57.2561 17.9618 57.8305 18.3749 58.3255C18.0771 58.5056 17.7672 58.6608 17.4552 58.7948C16.6716 59.1312 15.8957 59.3225 15.3125 59.4295C15.022 59.4827 14.7818 59.5146 14.6158 59.533C14.5329 59.5422 14.4686 59.548 14.4261 59.5515C14.4048 59.5533 14.389 59.5544 14.379 59.5551L14.3684 59.5558L14.3665 59.5559C14.3665 59.5559 14.367 59.5602 14.3948 60.0551C14.4229 60.5543 14.4233 60.5543 14.4233 60.5543L14.4255 60.5542L14.4306 60.5539L14.4474 60.5528C14.4617 60.5518 14.4819 60.5503 14.5077 60.5482C14.5592 60.544 14.633 60.5372 14.7262 60.5269C14.9122 60.5062 15.176 60.4712 15.4929 60.4131C16.1246 60.2973 16.9774 60.0882 17.8497 59.7137C18.2486 59.5424 18.656 59.3342 19.05 59.0818C19.9353 60.0025 20.7348 60.5446 21.4795 60.8049C22.7959 61.2652 23.8305 60.812 24.6456 60.2863C24.8474 60.1562 25.0399 60.019 25.2194 59.8896C25.2461 59.8704 25.2724 59.8514 25.2983 59.8327C25.4506 59.7227 25.5921 59.6206 25.7319 59.5263C26.0653 59.3015 26.3279 59.1651 26.562 59.1214C26.7651 59.0835 26.9759 59.1094 27.2394 59.2945C27.5245 59.4948 27.8734 59.8849 28.2895 60.5957L29.1525 60.0905C28.7047 59.3255 28.2685 58.7954 27.8143 58.4763C27.3385 58.142 26.8558 58.0493 26.3784 58.1384C25.9319 58.2218 25.5269 58.4584 25.1728 58.6973C25.0185 58.8013 24.8623 58.9141 24.7107 59.0235C24.6853 59.0419 24.66 59.0602 24.6348 59.0783C24.4565 59.2068 24.282 59.3309 24.1036 59.446C23.3978 59.9011 22.7002 60.1724 21.8096 59.861C21.2694 59.6721 20.6257 59.2588 19.8577 58.478C20.8241 57.6333 21.5859 56.4428 21.7318 54.7741ZM19.187 57.7375C20.0046 57.0259 20.6176 56.0444 20.7359 54.6845L20.7364 54.6786C20.8886 53.1389 20.4999 52.2149 20.0048 51.7276C19.5096 51.2404 18.8382 51.1162 18.2404 51.3002C17.6455 51.4832 17.1252 51.9724 16.9534 52.7323C16.7806 53.4967 16.9467 54.6113 17.9041 56.0307C18.3625 56.7013 18.7894 57.2652 19.187 57.7375Z" fill="white"/>
<path fill-rule="evenodd" clip-rule="evenodd" d="M49.1733 49.6684C48.5087 50.4122 47.526 50.8982 46.4685 50.9796L46.4646 50.9799C44.6702 51.1036 43.3757 52.777 43.6828 54.4966L43.6849 54.5085C43.8493 55.5767 43.5984 56.5617 43.0365 57.4446L43.031 57.4533L43.0251 57.4617C42.0491 58.8648 42.5299 60.908 44.0806 61.7781C45.0044 62.283 45.6498 63.1888 45.9686 64.1452L45.9721 64.1555L45.9751 64.1659C46.4662 65.885 48.306 66.755 49.9835 66.0726C50.9692 65.6625 52.0419 65.6625 53.0276 66.0726C54.6893 66.7485 56.5402 65.8294 57.036 64.094L57.039 64.0835L57.0425 64.0732C57.3604 63.1193 58.0034 62.2157 58.9235 61.71C60.4857 60.7667 60.958 58.7916 59.9164 57.3212L59.9148 57.3189C59.3337 56.4887 59.0917 55.4218 59.2543 54.3645L59.2562 54.3526C59.5612 52.6444 58.2807 51.0324 56.4745 50.9079L56.4674 50.9074C55.4716 50.8244 54.5007 50.3317 53.7797 49.6107L53.771 49.6021C52.5365 48.3058 50.4948 48.2902 49.1733 49.6684ZM54.4908 48.9077C52.8471 47.1869 50.145 47.2022 48.4442 48.9839L48.4381 48.9904L48.4322 48.997C47.9454 49.5447 47.2039 49.9196 46.3937 49.9824C44.0158 50.1476 42.2888 52.3572 42.6973 54.6661C42.8187 55.4644 42.6392 56.2028 42.198 56.8996C40.8791 58.807 41.5503 61.5072 43.5942 62.6518L43.5991 62.6545C44.2549 63.0122 44.7589 63.6853 45.0167 64.4518C45.682 66.7562 48.1562 67.8969 50.3624 66.9981L50.366 66.9966C51.1068 66.6879 51.9043 66.6879 52.6451 66.9966L52.6487 66.9981C54.8706 67.9033 57.3337 66.6682 57.9944 64.3798C58.2522 63.6133 58.7562 62.9402 59.412 62.5825L59.421 62.5776L59.4298 62.5723C61.4602 61.3541 62.1366 58.7269 60.7333 56.7443C60.3081 56.1362 60.1183 55.3342 60.2419 54.5221C60.6522 52.2025 58.9124 50.0758 56.5472 49.9105C55.8179 49.8488 55.0643 49.4794 54.4908 48.9077Z" fill="#DD2B1C"/>
<path fill-rule="evenodd" clip-rule="evenodd" d="M51.5411 52.9235C48.9545 52.9235 46.8577 55.0203 46.8577 57.6069C46.8577 60.1934 48.9545 62.2902 51.5411 62.2902C54.1276 62.2902 56.2244 60.1934 56.2244 57.6069C56.2244 55.0203 54.1276 52.9235 51.5411 52.9235ZM45.8577 57.6069C45.8577 54.468 48.4022 51.9235 51.5411 51.9235C54.6799 51.9235 57.2244 54.468 57.2244 57.6069C57.2244 60.7457 54.6799 63.2902 51.5411 63.2902C48.4022 63.2902 45.8577 60.7457 45.8577 57.6069Z" fill="#DD2B1C"/>
</svg>
