<svg width="114" height="84" viewBox="0 0 114 84" fill="none" xmlns="http://www.w3.org/2000/svg">
<g clip-path="url(#clip0_4490_291272)">
<path fill-rule="evenodd" clip-rule="evenodd" d="M1.07828 82.9093V53.2714H0.0782835V83.9093H22.7375V53.2714H21.7375V82.9093H1.07828Z" fill="white"/>
<path fill-rule="evenodd" clip-rule="evenodd" d="M38.5759 42.5166H28.5556V41.5166H38.5759V42.5166Z" fill="white"/>
<path fill-rule="evenodd" clip-rule="evenodd" d="M52.9138 42.5166H42.8935V41.5166H52.9138V42.5166Z" fill="white"/>
<path fill-rule="evenodd" clip-rule="evenodd" d="M67.1734 42.5166H57.1531V41.5166H67.1734V42.5166Z" fill="white"/>
<path fill-rule="evenodd" clip-rule="evenodd" d="M81.7402 42.5166H71.7199V41.5166H81.7402V42.5166Z" fill="white"/>
<path fill-rule="evenodd" clip-rule="evenodd" d="M10.6244 37.1476C10.8703 37.1318 11.1183 37.1237 11.3682 37.1237C11.6079 37.1237 11.8459 37.1311 12.0821 37.1456L12.0207 38.1437C11.805 38.1305 11.5874 38.1237 11.3682 38.1237C11.1397 38.1237 10.9131 38.1311 10.6886 38.1455L10.6244 37.1476ZM13.4986 37.3216C13.9711 37.4106 14.4332 37.5286 14.883 37.6739L14.5757 38.6255C14.1657 38.4931 13.7444 38.3855 13.3135 38.3043L13.4986 37.3216ZM7.71185 37.7224C8.17826 37.5645 8.65831 37.4361 9.14977 37.3392L9.34314 38.3204C8.89504 38.4087 8.45747 38.5258 8.03239 38.6696L7.71185 37.7224ZM16.2117 38.1978C16.6448 38.4011 17.0629 38.6309 17.4638 38.8851L16.9284 39.7297C16.5628 39.4979 16.1816 39.2884 15.7868 39.1031L16.2117 38.1978ZM5.04881 39.0351C5.45994 38.7602 5.89014 38.5114 6.33704 38.2911L6.77927 39.188C6.37187 39.3888 5.97961 39.6157 5.60466 39.8664L5.04881 39.0351ZM18.6195 39.724C18.9869 40.0276 19.3347 40.3538 19.6611 40.7007L18.9328 41.3859C18.635 41.0694 18.3176 40.7718 17.9825 40.4948L18.6195 39.724ZM2.81728 40.9927C3.14456 40.6197 3.49592 40.2683 3.86897 39.941L4.52846 40.6927C4.18812 40.9913 3.86757 41.3119 3.56899 41.6522L2.81728 40.9927ZM20.5726 41.7998C20.8523 42.1836 21.1086 42.5857 21.3396 43.0041L20.4642 43.4874C20.2535 43.1058 20.0196 42.7389 19.7644 42.3888L20.5726 41.7998ZM1.16733 43.4608C1.38768 43.0139 1.63649 42.5837 1.9114 42.1725L2.74268 42.7284C2.49197 43.1033 2.2651 43.4956 2.06423 43.903L1.16733 43.4608ZM21.95 44.295C22.125 44.7345 22.2736 45.1876 22.394 45.6524L21.426 45.9031C21.3161 45.4791 21.1805 45.0658 21.021 44.6649L21.95 44.295ZM0.215505 46.2735C0.312366 45.782 0.440805 45.302 0.598636 44.8356L1.54587 45.1561C1.40203 45.5812 1.28495 46.0188 1.19663 46.4669L0.215505 46.2735ZM22.6652 47.0536C22.6956 47.2884 22.719 47.5254 22.7352 47.7645L21.7374 47.8319C21.7227 47.6133 21.7013 47.3967 21.6735 47.1823L22.6652 47.0536ZM0 48.4919C0 48.242 0.0080266 47.994 0.0238456 47.7481L1.02178 47.8123C1.00734 48.0369 1 48.2635 1 48.4919C1 48.7203 1.00734 48.9469 1.02178 49.1715L0.0238457 49.2357C0.00802666 48.9897 0 48.7417 0 48.4919ZM22.7363 48.3185H21.7363V48.2616L22.7363 48.2607V48.3185ZM22.7363 48.4919C22.7363 48.7417 22.7283 48.9897 22.7125 49.2357L21.7145 49.1715C21.729 48.9469 21.7363 48.7203 21.7363 48.4919V48.435L22.7363 48.4341V48.4919ZM22.5208 50.7103C22.4239 51.2017 22.2955 51.6818 22.1377 52.1482L21.1904 51.8276C21.3343 51.4026 21.4514 50.965 21.5397 50.5169L22.5208 50.7103ZM0.598637 52.1482C0.440805 51.6818 0.312366 51.2017 0.215505 50.7103L1.19663 50.5169C1.28495 50.965 1.40203 51.4026 1.54587 51.8276L0.598637 52.1482ZM1.9114 54.8112C1.63649 54.4001 1.38768 53.9699 1.16733 53.523L2.06423 53.0808C2.2651 53.4882 2.49197 53.8804 2.74268 54.2554L1.9114 54.8112ZM21.569 53.523C21.3486 53.9699 21.0998 54.4001 20.8249 54.8112L19.9936 54.2554C20.2443 53.8804 20.4712 53.4882 20.6721 53.0808L21.569 53.523ZM3.86897 57.0428C3.49592 56.7155 3.14456 56.3641 2.81728 55.9911L3.56899 55.3316C3.86757 55.6719 4.18812 55.9925 4.52846 56.291L3.86897 57.0428ZM19.919 55.9911C19.5918 56.3641 19.2404 56.7155 18.8673 57.0428L18.2079 56.291C18.5482 55.9925 18.8687 55.6719 19.1673 55.3316L19.919 55.9911ZM6.33704 58.6927C5.89014 58.4724 5.45994 58.2235 5.04882 57.9486L5.60466 57.1174C5.97961 57.3681 6.37187 57.5949 6.77927 57.7958L6.33704 58.6927ZM17.6875 57.9486C17.2764 58.2235 16.8462 58.4724 16.3993 58.6927L15.957 57.7958C16.3644 57.5949 16.7567 57.3681 17.1316 57.1174L17.6875 57.9486ZM9.14977 59.6445C8.65831 59.5477 8.17826 59.4192 7.71185 59.2614L8.0324 58.3142C8.45747 58.458 8.89504 58.5751 9.34314 58.6634L9.14977 59.6445ZM15.0245 59.2614C14.558 59.4192 14.078 59.5477 13.5865 59.6445L13.3932 58.6634C13.8413 58.5751 14.2788 58.458 14.7039 58.3142L15.0245 59.2614ZM11.3682 59.86C11.1183 59.86 10.8703 59.852 10.6244 59.8362L10.6886 58.8383C10.9131 58.8527 11.1397 58.86 11.3682 58.86C11.5966 58.86 11.8232 58.8527 12.0477 58.8383L12.1119 59.8362C11.866 59.852 11.618 59.86 11.3682 59.86Z" fill="#DD2B1C"/>
<path fill-rule="evenodd" clip-rule="evenodd" d="M27.2458 15.6925C27.0454 15.6925 26.8483 15.7054 26.6554 15.7304L26.5269 14.7387C26.7624 14.7082 27.0024 14.6925 27.2458 14.6925H27.5734V15.6925H27.2458ZM28.5562 15.6925H28.2286V14.6925H28.5562C28.7997 14.6925 29.0396 14.7082 29.2751 14.7387L29.1467 15.7304C28.9537 15.7054 28.7567 15.6925 28.5562 15.6925ZM31.3045 16.6213C30.994 16.3831 30.6515 16.1845 30.2845 16.033L30.6662 15.1087C31.1152 15.2941 31.5339 15.5369 31.9133 15.828L31.3045 16.6213ZM25.5175 16.033C25.1505 16.1845 24.8081 16.3831 24.4976 16.6213L23.8888 15.828C24.2681 15.5369 24.6868 15.2941 25.1359 15.1087L25.5175 16.033ZM32.7259 18.4743C32.5743 18.1073 32.3758 17.7649 32.1375 17.4544L32.9309 16.8456C33.2219 17.2249 33.4648 17.6436 33.6502 18.0927L32.7259 18.4743ZM23.6645 17.4544C23.4263 17.7649 23.2277 18.1073 23.0762 18.4743L22.1519 18.0927C22.3373 17.6436 22.5801 17.2249 22.8712 16.8456L23.6645 17.4544ZM22.7736 19.6122C22.7486 19.8051 22.7357 20.0022 22.7357 20.2027V20.9118H21.7357V20.2027C21.7357 19.9592 21.7514 19.7192 21.7819 19.4837L22.7736 19.6122ZM33.0663 20.2027C33.0663 20.0022 33.0534 19.8051 33.0284 19.6122L34.0201 19.4837C34.0506 19.7192 34.0663 19.9592 34.0663 20.2027H33.0663ZM22.7357 22.33V23.7483H21.7357V22.33H22.7357ZM22.7357 25.1665V26.5848H21.7357V25.1665H22.7357ZM22.7357 28.0031V29.4213H21.7357V28.0031H22.7357ZM22.7357 30.8396V32.2578H21.7357V30.8396H22.7357ZM22.7357 33.6761V35.0943H21.7357V33.6761H22.7357ZM22.7357 36.5126V37.9308H21.7357V36.5126H22.7357ZM22.7357 39.3491V40.7674H21.7357V39.3491H22.7357ZM22.7357 42.1856V43.6039H21.7357V42.1856H22.7357ZM22.7357 45.0221V46.4404H21.7357V45.0221H22.7357ZM22.7357 47.8586V48.5678H21.7357V47.8586H22.7357Z" fill="#DD2B1C"/>
<path fill-rule="evenodd" clip-rule="evenodd" d="M82.4357 15.6925C82.2352 15.6925 82.0381 15.7054 81.8452 15.7304L81.7168 14.7387C81.9523 14.7082 82.1922 14.6925 82.4357 14.6925H82.7633V15.6925H82.4357ZM83.746 15.6925H83.4184V14.6925H83.746C83.9895 14.6925 84.2295 14.7082 84.4649 14.7387L84.3365 15.7304C84.1436 15.7054 83.9465 15.6925 83.746 15.6925ZM86.4943 16.6213C86.1838 16.3831 85.8414 16.1845 85.4744 16.033L85.856 15.1087C86.3051 15.2941 86.7238 15.5369 87.1031 15.828L86.4943 16.6213ZM80.7074 16.033C80.3404 16.1845 79.9979 16.3831 79.6874 16.6213L79.0786 15.828C79.458 15.5369 79.8767 15.2941 80.3257 15.1087L80.7074 16.033ZM87.9157 18.4743C87.7642 18.1073 87.5656 17.7649 87.3274 17.4544L88.1207 16.8456C88.4118 17.2249 88.6546 17.6436 88.84 18.0927L87.9157 18.4743ZM78.8544 17.4544C78.6161 17.7649 78.4175 18.1073 78.266 18.4743L77.3417 18.0927C77.5271 17.6436 77.7699 17.2249 78.061 16.8456L78.8544 17.4544ZM88.2562 20.2026C88.2562 20.0022 88.2433 19.8051 88.2183 19.6122L89.21 19.4837C89.2405 19.7192 89.2562 19.9592 89.2562 20.2026V20.9477H88.2562V20.2026ZM77.9635 19.6122C77.9385 19.8051 77.9256 20.0022 77.9256 20.2026H76.9256C76.9256 19.9592 76.9412 19.7192 76.9717 19.4837L77.9635 19.6122ZM88.2562 23.9281V22.4379H89.2562V23.9281H88.2562ZM88.2562 26.9085V25.4183H89.2562V26.9085H88.2562ZM88.2562 29.8889V28.3987H89.2562V29.8889H88.2562ZM88.2562 32.8693V31.3791H89.2562V32.8693H88.2562ZM88.2562 35.8497V34.3595H89.2562V35.8497H88.2562ZM88.2562 38.085V37.3399H89.2562V38.085L89.2594 38.8279L88.2594 38.8323L88.2562 38.0872V38.085ZM88.2722 41.8126L88.2658 40.3225L89.2658 40.3181L89.2722 41.8083L88.2722 41.8126ZM88.2851 44.793L88.2787 43.3028L89.2787 43.2985L89.2851 44.7887L88.2851 44.793ZM88.2979 47.7734L88.2915 46.2832L89.2915 46.2789L89.2979 47.7691L88.2979 47.7734ZM88.3108 50.7538L88.3044 49.2636L89.3044 49.2593L89.3108 50.7495L88.3108 50.7538ZM88.3236 53.7342L88.3172 52.244L89.3172 52.2397L89.3236 53.7299L88.3236 53.7342ZM88.3333 55.9674L88.33 55.2244L89.33 55.2201L89.3333 55.9674C89.3333 56.2233 89.3365 56.472 89.343 56.7135L88.3434 56.7406C88.3366 56.4897 88.3333 56.2325 88.3333 55.9686V55.9674ZM88.6853 59.8414C88.5767 59.3586 88.4958 58.8412 88.4391 58.2879L89.4339 58.186C89.4873 58.7068 89.5624 59.1842 89.6609 59.6218L88.6853 59.8414ZM90.0361 62.7819C89.6909 62.3673 89.4071 61.8985 89.1772 61.3745L90.093 60.9727C90.289 61.4195 90.5251 61.8064 90.8046 62.142L90.0361 62.7819ZM92.7572 64.5748C92.2152 64.3885 91.7247 64.1581 91.2848 63.8772L91.8231 63.0344C92.1874 63.2671 92.6045 63.4649 93.0823 63.6291L92.7572 64.5748ZM95.845 65.1667C95.2952 65.1203 94.7793 65.0545 94.2961 64.967L94.4744 63.983C94.9215 64.064 95.4055 64.126 95.929 64.1702L95.845 65.1667ZM112.882 64.1773C113.167 64.1773 113.44 64.2292 113.69 64.3275L113.324 65.2582C113.194 65.2069 113.046 65.1774 112.883 65.1773H112.882L112.148 65.1811L112.143 64.1812L112.882 64.1773ZM110.676 65.1888L109.204 65.1966L109.199 64.1966L110.671 64.1889L110.676 65.1888ZM107.732 65.2043L106.26 65.212L106.254 64.212L107.727 64.2043L107.732 65.2043ZM104.787 65.2197L103.315 65.2274L103.31 64.2274L104.782 64.2197L104.787 65.2197ZM101.843 65.2351L100.371 65.2428L100.366 64.2428L101.838 64.2351L101.843 65.2351ZM98.1598 65.2544C97.8967 65.2544 97.6399 65.2516 97.3893 65.2459L97.4119 64.2462C97.6539 64.2517 97.9025 64.2544 98.158 64.2544H98.1598L98.8933 64.2505L98.8986 65.2505L98.1624 65.2544L98.1598 65.2544ZM114.001 66.296C114.001 66.1329 113.971 65.9846 113.92 65.854L114.85 65.4882C114.949 65.7383 115.001 66.0109 115.001 66.296C115.001 66.581 114.949 66.8536 114.85 67.1037L113.92 66.7379C113.971 66.6073 114.001 66.459 114.001 66.296ZM112.882 67.4146C113.045 67.4146 113.193 67.3851 113.324 67.3338L113.69 68.2644C113.44 68.3627 113.167 68.4146 112.882 68.4146H112.188V67.4146H112.882ZM89.8754 67.5648C90.1255 67.4665 90.3981 67.4146 90.6832 67.4146H91.3769V68.4146H90.6832C90.5201 68.4146 90.3718 68.4441 90.2412 68.4955L89.8754 67.5648ZM92.7643 67.4146H94.1517V68.4146H92.7643V67.4146ZM95.5391 67.4146H96.9266V68.4146H95.5391V67.4146ZM98.314 67.4146H99.7014V68.4146H98.314V67.4146ZM101.089 67.4146H102.476V68.4146H101.089V67.4146ZM103.864 67.4146H105.251V68.4146H103.864V67.4146ZM106.639 67.4146H108.026V68.4146H106.639V67.4146ZM109.413 67.4146H110.801V68.4146H109.413V67.4146ZM88.5645 69.5333C88.5645 69.2483 88.6164 68.9756 88.7147 68.7255L89.6454 69.0914C89.594 69.2219 89.5645 69.3702 89.5645 69.5333V69.7452H88.5645V69.5333ZM88.5645 70.3811V70.1692H89.5645V70.3811C89.5645 70.5442 89.594 70.6925 89.6454 70.8231L88.7147 71.1889C88.6164 70.9388 88.5645 70.6662 88.5645 70.3811ZM90.6832 72.4998C90.3981 72.4998 90.1255 72.4479 89.8754 72.3496L90.2412 71.4189C90.3718 71.4703 90.5201 71.4998 90.6832 71.4998H91.3769V72.4998H90.6832ZM94.1517 72.4998H92.7643V71.4998H94.1517V72.4998ZM96.9266 72.4998H95.5391V71.4998H96.9266V72.4998ZM99.7014 72.4998H98.314V71.4998H99.7014V72.4998ZM102.476 72.4998H101.089V71.4998H102.476V72.4998ZM105.251 72.4998H103.864V71.4998H105.251V72.4998ZM108.026 72.4998H106.639V71.4998H108.026V72.4998ZM110.801 72.4998H109.413V71.4998H110.801V72.4998ZM112.882 72.4998H112.188V71.4998H112.882C113.167 71.4998 113.44 71.5517 113.69 71.65L113.324 72.5807C113.193 72.5293 113.045 72.4998 112.882 72.4998ZM114.001 73.6185C114.001 73.4554 113.971 73.3071 113.92 73.1766L114.85 72.8107C114.949 73.0608 115.001 73.3335 115.001 73.6185V73.6955H114.001V73.6185ZM114.001 73.9268V73.8497H115.001V73.9268C115.001 74.2118 114.949 74.4845 114.85 74.7346L113.92 74.3687C113.971 74.2381 114.001 74.0899 114.001 73.9268ZM113.314 74.9684C113.317 74.9671 113.321 74.9659 113.324 74.9646L113.325 74.9684H113.382V75.1123L113.69 75.8952C113.44 75.9936 113.167 76.0454 112.882 76.0454H112.382V75.9684H112.188V74.9684H113.314ZM89.8754 75.1186C90.1255 75.0202 90.3981 74.9684 90.6832 74.9684H91.3769V75.9684H90.6832C90.5201 75.9684 90.3718 75.9979 90.2412 76.0492L89.8754 75.1186ZM92.7643 74.9684H94.1517V75.9684H92.7643V74.9684ZM95.5391 74.9684H96.9266V75.9684H95.5391V74.9684ZM98.314 74.9684H99.7014V75.9684H98.314V74.9684ZM101.089 74.9684H102.476V75.9684H101.089V74.9684ZM103.864 74.9684H105.251V75.9684H103.864V74.9684ZM106.639 74.9684H108.026V75.9684H106.639V74.9684ZM109.413 74.9684H110.801V75.9684H109.413V74.9684ZM88.5645 77.087C88.5645 76.802 88.6164 76.5293 88.7147 76.2792L89.6454 76.6451C89.594 76.7757 89.5645 76.924 89.5645 77.087V77.299H88.5645V77.087ZM88.5645 77.9349V77.7229H89.5645V77.9349C89.5645 78.098 89.594 78.2463 89.6454 78.3768L88.7147 78.7427C88.6164 78.4926 88.5645 78.2199 88.5645 77.9349ZM90.6832 80.0536C90.3981 80.0536 90.1255 80.0017 89.8754 79.9034L90.2412 78.9727C90.3718 79.024 90.5201 79.0536 90.6832 79.0536H91.3769V80.0536H90.6832ZM94.1517 80.0536H92.7643V79.0536H94.1517V80.0536ZM96.9266 80.0536H95.5391V79.0536H96.9266V80.0536ZM99.7014 80.0536H98.314V79.0536H99.7014V80.0536ZM102.476 80.0536H101.089V79.0536H102.476V80.0536ZM105.251 80.0536H103.864V79.0536H105.251V80.0536ZM108.026 80.0536H106.639V79.0536H108.026V80.0536ZM110.801 80.0536H109.413V79.0536H110.801V80.0536ZM112.882 80.0536H112.188V79.0536H112.882C113.167 79.0536 113.44 79.1054 113.69 79.2038L113.324 80.1344C113.193 80.0831 113.045 80.0536 112.882 80.0536ZM114.001 81.1722C114.001 81.0091 113.971 80.8609 113.92 80.7303L114.85 80.3644C114.949 80.6145 115.001 80.8872 115.001 81.1722V81.2493H114.001V81.1722ZM114.001 81.4805V81.4035H115.001V81.4805C115.001 81.7656 114.949 82.0382 114.85 82.2883L113.92 81.9224C113.971 81.7919 114.001 81.6436 114.001 81.4805ZM112.882 82.5992C113.045 82.5992 113.193 82.5697 113.324 82.5183L113.69 83.449C113.44 83.5473 113.167 83.5992 112.882 83.5992H112.147V82.5992H112.882ZM89.3728 82.5992H90.1075V83.5992H89.3728V82.5992ZM91.5768 82.5992H93.0461V83.5992H91.5768V82.5992ZM94.5154 82.5992H95.9848V83.5992H94.5154V82.5992ZM97.4541 82.5992H98.9234V83.5992H97.4541V82.5992ZM100.393 82.5992H101.862V83.5992H100.393V82.5992ZM103.331 82.5992H104.801V83.5992H103.331V82.5992ZM106.27 82.5992H107.739V83.5992H106.27V82.5992ZM109.209 82.5992H110.678V83.5992H109.209V82.5992Z" fill="#DD2B1C"/>
<path fill-rule="evenodd" clip-rule="evenodd" d="M10.5564 40.2462C10.8236 40.2202 11.0944 40.2069 11.3682 40.2069C11.6419 40.2069 11.9127 40.2202 12.1799 40.2462L12.0831 41.2415C11.848 41.2186 11.6095 41.2069 11.3682 41.2069C11.1268 41.2069 10.8883 41.2186 10.6532 41.2415L10.5564 40.2462ZM7.46161 41.184C7.93609 40.9299 8.4383 40.7205 8.96255 40.5617L9.2525 41.5187C8.79205 41.6582 8.35082 41.8421 7.93376 42.0655L7.46161 41.184ZM13.7738 40.5617C14.298 40.7205 14.8002 40.9299 15.2747 41.184L14.8025 42.0655C14.3855 41.8421 13.9443 41.6582 13.4838 41.5187L13.7738 40.5617ZM4.96372 43.2357C5.30808 42.8165 5.69279 42.4318 6.11192 42.0875L6.74675 42.8601C6.37794 43.1631 6.03939 43.5017 5.73637 43.8705L4.96372 43.2357ZM16.6244 42.0875C17.0435 42.4318 17.4282 42.8165 17.7726 43.2357L16.9999 43.8705C16.6969 43.5017 16.3584 43.1631 15.9896 42.8601L16.6244 42.0875ZM18.676 44.5853C18.9302 45.0598 19.1395 45.562 19.2984 46.0863L18.3413 46.3762C18.2018 45.9158 18.0179 45.4746 17.7945 45.0575L18.676 44.5853ZM3.43795 46.0863C3.59678 45.562 3.80612 45.0598 4.06027 44.5853L4.94178 45.0575C4.7184 45.4746 4.53449 45.9158 4.39499 46.3762L3.43795 46.0863ZM3.08316 48.4919C3.08316 48.2181 3.09646 47.9473 3.12247 47.6801L4.11776 47.777C4.09489 48.012 4.08316 48.2505 4.08316 48.4919C4.08316 48.7333 4.09489 48.9717 4.11776 49.2068L3.12247 49.3037C3.09646 49.0365 3.08316 48.7656 3.08316 48.4919ZM19.6138 47.6801C19.6399 47.9473 19.6531 48.2181 19.6531 48.4919C19.6531 48.7656 19.6399 49.0365 19.6138 49.3037L18.6185 49.2068C18.6414 48.9717 18.6531 48.7333 18.6531 48.4919C18.6531 48.2505 18.6414 48.012 18.6185 47.777L19.6138 47.6801ZM4.06027 52.3984C3.80612 51.924 3.59678 51.4217 3.43795 50.8975L4.39499 50.6075C4.53449 51.068 4.7184 51.5092 4.94178 51.9263L4.06027 52.3984ZM19.2984 50.8975C19.1395 51.4217 18.9302 51.924 18.676 52.3984L17.7945 51.9263C18.0179 51.5092 18.2018 51.068 18.3413 50.6075L19.2984 50.8975ZM6.11192 54.8963C5.69279 54.552 5.30808 54.1673 4.96372 53.7481L5.73637 53.1133C6.03939 53.4821 6.37794 53.8206 6.74675 54.1237L6.11192 54.8963ZM17.7726 53.7481C17.4282 54.1673 17.0435 54.552 16.6244 54.8963L15.9896 54.1237C16.3584 53.8206 16.6969 53.4821 16.9999 53.1133L17.7726 53.7481ZM8.96255 56.4221C8.4383 56.2633 7.93609 56.0539 7.46161 55.7998L7.93376 54.9183C8.35082 55.1416 8.79205 55.3256 9.2525 55.4651L8.96255 56.4221ZM15.2747 55.7998C14.8002 56.0539 14.298 56.2633 13.7738 56.4221L13.4838 55.4651C13.9443 55.3256 14.3855 55.1416 14.8025 54.9183L15.2747 55.7998ZM11.3682 56.7769C11.0944 56.7769 10.8236 56.7636 10.5564 56.7376L10.6532 55.7423C10.8883 55.7652 11.1268 55.7769 11.3682 55.7769C11.6095 55.7769 11.848 55.7652 12.0831 55.7423L12.1799 56.7376C11.9127 56.7636 11.6419 56.7769 11.3682 56.7769Z" fill="#DD2B1C"/>
<path fill-rule="evenodd" clip-rule="evenodd" d="M53.3751 15C53.1503 15 52.9294 15.0144 52.7132 15.0421L52.5858 14.0503C52.8442 14.0171 53.1077 14 53.3751 14H54.2807V15H53.3751ZM56.9978 15H56.0921V14H56.9978C57.2652 14 57.5287 14.0171 57.7871 14.0503L57.6597 15.0421C57.4435 15.0144 57.2226 15 56.9978 15ZM60.0782 16.0366C59.7306 15.7703 59.3469 15.5484 58.9352 15.3792L59.3153 14.4543C59.8092 14.6573 60.2696 14.9234 60.6864 15.2428L60.0782 16.0366ZM51.4377 15.3792C51.026 15.5484 50.6422 15.7703 50.2946 16.0366L49.6864 15.2428C50.1033 14.9234 50.5636 14.6573 51.0575 14.4543L51.4377 15.3792ZM49.362 16.9692C49.0957 17.3169 48.8738 17.7006 48.7046 18.1123L47.7797 17.7322C47.9827 17.2383 48.2488 16.7779 48.5682 16.3611L49.362 16.9692ZM61.6682 18.1123C61.499 17.7006 61.2772 17.3169 61.0108 16.9692L61.8046 16.3611C62.124 16.7779 62.3902 17.2383 62.5932 17.7322L61.6682 18.1123ZM62.0475 20.0497C62.0475 19.8249 62.0331 19.604 62.0053 19.3878L62.9972 19.2604C63.0304 19.5188 63.0475 19.7823 63.0475 20.0497H62.0475ZM48.3675 19.3878C48.3397 19.604 48.3254 19.8249 48.3254 20.0497H47.3254C47.3254 19.7823 47.3424 19.5188 47.3757 19.2604L48.3675 19.3878Z" fill="#DD2B1C"/>
<path fill-rule="evenodd" clip-rule="evenodd" d="M31.9489 27.3327V26.3327H35.6485L35.6487 27.3327H31.9489Z" fill="white"/>
<path fill-rule="evenodd" clip-rule="evenodd" d="M46.055 27.3327V26.3327H49.7546L49.7547 27.3327H46.055Z" fill="white"/>
<path fill-rule="evenodd" clip-rule="evenodd" d="M60.6217 27.3327V26.3327H64.3213L64.3215 27.3327H60.6217Z" fill="white"/>
<path fill-rule="evenodd" clip-rule="evenodd" d="M74.6495 27.3327V26.3327H78.3491L78.3493 27.3327H74.6495Z" fill="white"/>
<path fill-rule="evenodd" clip-rule="evenodd" d="M31.9489 48.8365V47.8365H35.6485L35.6487 48.8365H31.9489Z" fill="white"/>
<path fill-rule="evenodd" clip-rule="evenodd" d="M46.055 48.8365V47.8365H49.7546L49.7547 48.8365H46.055Z" fill="white"/>
<path fill-rule="evenodd" clip-rule="evenodd" d="M60.6217 48.8365V47.8365H64.3213L64.3215 48.8365H60.6217Z" fill="white"/>
<path fill-rule="evenodd" clip-rule="evenodd" d="M74.6495 48.8365V47.8365H78.3491L78.3493 48.8365H74.6495Z" fill="white"/>
<path fill-rule="evenodd" clip-rule="evenodd" d="M28.2122 66.0284H82.2426V83.6775H28.2122V66.0284ZM29.2122 67.0284V82.6775H81.2426V67.0284H29.2122Z" fill="white"/>
<path fill-rule="evenodd" clip-rule="evenodd" d="M28.2122 19.9345H39.0012V61.7093H28.2122V19.9345ZM29.2122 20.9345V60.7093H38.0012V20.9345H29.2122Z" fill="white"/>
<path fill-rule="evenodd" clip-rule="evenodd" d="M71.3765 19.9345H82.1655V61.7093H71.3765V19.9345ZM72.3765 20.9345V60.7093H81.1655V20.9345H72.3765Z" fill="white"/>
<path fill-rule="evenodd" clip-rule="evenodd" d="M56.9603 19.9345H67.7493V61.7093H56.9603V19.9345ZM57.9603 20.9345V60.7093H66.7493V20.9345H57.9603Z" fill="white"/>
<path fill-rule="evenodd" clip-rule="evenodd" d="M42.5471 19.9345H53.3361V61.7093H42.5471V19.9345ZM43.5471 20.9345V60.7093H52.3361V20.9345H43.5471Z" fill="white"/>
</g>
<defs>
<clipPath id="clip0_4490_291272">
<rect width="114" height="84" fill="white"/>
</clipPath>
</defs>
</svg>
