<svg width="64" height="132" viewBox="0 0 64 132" fill="none" xmlns="http://www.w3.org/2000/svg">
<path fill-rule="evenodd" clip-rule="evenodd" d="M42.1769 42.9207C40.8696 42.9207 39.817 43.9705 39.817 45.2565C39.817 46.5426 40.8696 47.5924 42.1769 47.5924C43.4841 47.5924 44.5367 46.5426 44.5367 45.2565C44.5367 43.9705 43.4841 42.9207 42.1769 42.9207ZM38.817 45.2565C38.817 43.4103 40.3253 41.9207 42.1769 41.9207C44.0285 41.9207 45.5367 43.4103 45.5367 45.2565C45.5367 47.1028 44.0285 48.5924 42.1769 48.5924C40.3253 48.5924 38.817 47.1028 38.817 45.2565Z" fill="white"/>
<path fill-rule="evenodd" clip-rule="evenodd" d="M38.9965 54.5739C36.2582 53.6979 34.1264 51.767 33.057 49.3811L33.9696 48.9721C34.9181 51.0884 36.8211 52.8261 39.2945 53.6193C41.21 54.1718 43.1183 54.091 44.8671 53.4605L45.1863 53.3454L45.4111 53.5995C48.4792 57.0673 49.8903 60.5467 50.1065 63.7574C50.3226 66.9665 49.3423 69.8685 47.6934 72.1749C44.4251 76.7464 38.4085 79.0909 33.784 76.6422L34.252 75.7585C38.291 77.8971 43.7977 75.9045 46.8799 71.5933C48.4063 69.4582 49.308 66.7825 49.1088 63.8246C48.9147 60.9426 47.6727 57.756 44.8806 54.5124C43.0206 55.1118 41.0121 55.157 39.0099 54.5779L38.9965 54.5739Z" fill="white"/>
<path fill-rule="evenodd" clip-rule="evenodd" d="M51.1601 42.7747C51.0473 41.3314 50.253 39.5912 48.878 38.1549C47.4225 36.6345 45.2896 35.4248 42.5452 35.2492L42.4814 36.2472C44.952 36.4052 46.8564 37.4892 48.1556 38.8464C49.4666 40.2158 50.135 41.8341 50.1724 43.0203L50.179 43.2301L50.3335 43.3723C62.6117 54.6808 64.0613 66.3115 60.5743 75.0984C57.0637 83.9446 48.5439 89.9653 40.7418 90.0463L40.7521 91.0462C49.0154 90.9604 57.8648 84.637 61.5037 75.4673C65.1516 66.2752 63.5586 54.2776 51.1601 42.7747Z" fill="white"/>
<path fill-rule="evenodd" clip-rule="evenodd" d="M4.42506 58.0952L33.8531 75.6038L33.3418 76.4632L4.7324 59.4416L1.41914 64.4413L25.1853 78.2704L24.6824 79.1347L0 64.7725L4.42506 58.0952Z" fill="white"/>
<path fill-rule="evenodd" clip-rule="evenodd" d="M45.306 8L56.9967 15.5587L54.1502 19.8878L42.4595 12.3291L45.306 8ZM45.5964 9.37856L43.8487 12.0365L53.8599 18.5092L55.6075 15.8513L45.5964 9.37856Z" fill="white"/>
<path fill-rule="evenodd" clip-rule="evenodd" d="M44.3952 13.5806L39.3996 21.2581L38.5616 20.7124L43.552 13.0354L44.3952 13.5806Z" fill="white"/>
<path fill-rule="evenodd" clip-rule="evenodd" d="M46.5523 25.8836L51.5642 18.2158L52.3995 18.7558L47.3902 26.4293L46.5523 25.8836Z" fill="white"/>
<path fill-rule="evenodd" clip-rule="evenodd" d="M1.30303 92.3816H60.2563V103.14H1.30303V92.3816ZM2.30303 93.3816V102.14H59.2563V93.3816H2.30303Z" fill="#DD2B1C"/>
<path fill-rule="evenodd" clip-rule="evenodd" d="M31.0741 81.8716C29.6274 81.8716 28.4619 83.0333 28.4619 84.4576C28.4619 85.8819 29.6274 87.0436 31.0741 87.0436C32.5207 87.0436 33.6862 85.8819 33.6862 84.4576C33.6862 83.0333 32.5207 81.8716 31.0741 81.8716ZM27.4619 84.4576C27.4619 82.4731 29.0831 80.8716 31.0741 80.8716C33.065 80.8716 34.6862 82.4731 34.6862 84.4576C34.6862 86.4421 33.065 88.0436 31.0741 88.0436C29.0831 88.0436 27.4619 86.4421 27.4619 84.4576Z" fill="white"/>
<path fill-rule="evenodd" clip-rule="evenodd" d="M37.2286 19.2038L48.9193 26.7625L27.6041 59.1791L15.9133 51.6204L37.2286 19.2038ZM37.5189 20.5823L17.3026 51.3278L27.3137 57.8006L47.5301 27.0551L37.5189 20.5823Z" fill="#DD2B1C"/>
<path fill-rule="evenodd" clip-rule="evenodd" d="M30.6535 76.1165C27.635 76.1165 25.4777 78.6541 24.1461 82.6152L24.1417 82.6283L20.1882 93.3877L19.2496 93.0428L23.2005 82.2899C24.5609 78.2471 26.9451 75.1165 30.6535 75.1165H31.3264C35.0307 75.1165 37.6696 78.4878 38.7849 82.3061L42.3985 93.056L41.4506 93.3746L37.8305 82.6055L37.8277 82.5957C36.7543 78.9114 34.3478 76.1165 31.3264 76.1165H30.6535Z" fill="#DD2B1C"/>
</svg>
