<svg width="114" height="84" viewBox="0 0 114 84" fill="none" xmlns="http://www.w3.org/2000/svg">
<path fill-rule="evenodd" clip-rule="evenodd" d="M17.907 42.3949V41.9454H18.907V42.3949H17.907Z" fill="#DD2B1C"/>
<path fill-rule="evenodd" clip-rule="evenodd" d="M17.907 43.8536V43.2949H18.907V43.8536H17.907ZM17.907 46.0884V44.971H18.907V46.0884H17.907ZM17.907 48.3232V47.2058H18.907V48.3232H17.907ZM17.907 50.5581V49.4407H18.907V50.5581H17.907ZM17.907 52.7929V51.6755H18.907V52.7929H17.907ZM17.907 55.0278V53.9103H18.907V55.0278H17.907ZM17.907 56.7039V56.1452H18.907V56.7039H17.907Z" fill="#DD2B1C"/>
<path fill-rule="evenodd" clip-rule="evenodd" d="M17.907 57.154H18.907V57.3204L19.0388 57.3995L18.5243 58.257L17.907 57.8866V57.154Z" fill="#DD2B1C"/>
<path fill-rule="evenodd" clip-rule="evenodd" d="M19.9204 58.9387L19.3698 58.6391L19.8478 57.7608L20.3984 58.0604L19.9204 58.9387ZM22.1228 60.1373L21.0216 59.538L21.4996 58.6597L22.6008 59.259L22.1228 60.1373ZM24.3251 61.3359L23.2239 60.7366L23.702 59.8583L24.8031 60.4575L24.3251 61.3359ZM26.5275 62.5345L25.4263 61.9352L25.9043 61.0568L27.0055 61.6561L26.5275 62.5345ZM28.7299 63.733L27.6287 63.1338L28.1067 62.2554L29.2079 62.8547L28.7299 63.733ZM30.3817 64.632L29.8311 64.3323L30.3091 63.454L30.8597 63.7536L30.3817 64.632Z" fill="#DD2B1C"/>
<path fill-rule="evenodd" clip-rule="evenodd" d="M30.8113 64.8466L31.1884 64.2181L31.1859 64.2139L31.1938 64.2091L31.3258 63.9892L31.4431 64.0595L31.5604 63.9892L31.6924 64.2091L31.7004 64.2139L31.6978 64.2181L32.0749 64.8466L31.4431 65.2257L30.8113 64.8466Z" fill="#DD2B1C"/>
<path fill-rule="evenodd" clip-rule="evenodd" d="M44.1086 58.7179L43.5506 59.0064L43.0915 58.118L43.6495 57.8296L44.1086 58.7179ZM42.4344 59.5832L41.3182 60.16L40.8591 59.2716L41.9753 58.6948L42.4344 59.5832ZM40.202 60.7368L39.0859 61.3136L38.6268 60.4252L39.7429 59.8484L40.202 60.7368ZM37.9697 61.8904L36.8535 62.4672L36.3944 61.5788L37.5106 61.002L37.9697 61.8904ZM35.7374 63.044L34.6212 63.6209L34.1621 62.7325L35.2783 62.1557L35.7374 63.044ZM33.505 64.1977L32.9469 64.4861L32.4878 63.5977L33.0459 63.3093L33.505 64.1977Z" fill="#DD2B1C"/>
<path fill-rule="evenodd" clip-rule="evenodd" d="M45.1994 57.3796V58.1122L44.5821 58.4826L44.0676 57.6251L44.1994 57.546V57.3796H45.1994Z" fill="#DD2B1C"/>
<path fill-rule="evenodd" clip-rule="evenodd" d="M44.2021 43.4149V42.8437H45.2021V43.4149H44.2021ZM44.2021 45.6997V44.5573H45.2021V45.6997H44.2021ZM44.2021 47.9844V46.842H45.2021V47.9844H44.2021ZM44.2021 50.2692V49.1268H45.2021V50.2692H44.2021ZM44.2021 52.554V51.4116H45.2021V52.554H44.2021ZM44.2021 54.8388V53.6964H45.2021V54.8388H44.2021ZM44.2021 56.5524V55.9812H45.2021V56.5524H44.2021Z" fill="#DD2B1C"/>
<path fill-rule="evenodd" clip-rule="evenodd" d="M45.2021 41.9454V42.3949H44.2021V41.9454H45.2021Z" fill="#DD2B1C"/>
<path fill-rule="evenodd" clip-rule="evenodd" d="M30.9392 49.3084L30.9365 48.8478L31.9365 48.8525L31.9392 49.3035L30.9392 49.3084ZM30.9499 51.4808L30.9446 50.3946L31.9445 50.3897L31.9499 51.4759L30.9499 51.4808ZM30.9606 53.6532L30.9553 52.567L31.9552 52.5621L31.9606 53.6483L30.9606 53.6532ZM30.9713 55.8256L30.966 54.7394L31.9659 54.7345L31.9713 55.8207L30.9713 55.8256ZM30.982 57.998L30.9767 56.9118L31.9766 56.9069L31.982 57.9931L30.982 57.998ZM30.9927 60.1705L30.9874 59.0842L31.9874 59.0793L31.9927 60.1655L30.9927 60.1705ZM31.0034 62.3429L30.9981 61.2567L31.9981 61.2517L32.0034 62.3379L31.0034 62.3429ZM31.0114 63.9722L31.0088 63.4291L32.0088 63.4241L32.0114 63.9673L31.0114 63.9722Z" fill="#DD2B1C"/>
<path fill-rule="evenodd" clip-rule="evenodd" d="M3.79608 35.0374C2.27436 35.0374 1 36.3118 1 37.8335V71.5434C1 73.0651 2.27436 74.3395 3.79608 74.3395H59.1552C60.6769 74.3395 61.9513 73.0651 61.9513 71.5434V37.8335C61.9513 36.3118 60.6769 35.0374 59.1552 35.0374H45.0719V34.0374H59.1552C61.2292 34.0374 62.9513 35.7595 62.9513 37.8335V71.5434C62.9513 73.6174 61.2292 75.3395 59.1552 75.3395H3.79608C1.72207 75.3395 0 73.6174 0 71.5434V37.8335C0 35.7595 1.72207 34.0374 3.79608 34.0374H18.104V35.0374H3.79608Z" fill="white"/>
<path fill-rule="evenodd" clip-rule="evenodd" d="M21.676 75.4382V82.4798H20.676V75.4382H21.676Z" fill="white"/>
<path fill-rule="evenodd" clip-rule="evenodd" d="M41.352 82.4798V75.4382H42.352V82.4798H41.352Z" fill="white"/>
<path fill-rule="evenodd" clip-rule="evenodd" d="M52.1867 83.5015H10.8359V82.5015H52.1867V83.5015Z" fill="white"/>
<path fill-rule="evenodd" clip-rule="evenodd" d="M31.4408 49.9267L32.2325 50.3651L31.7481 51.2399L31.4349 51.0665L31.1324 51.2299L30.657 50.3501L31.4408 49.9267ZM30.0461 51.8167L28.9599 52.4035L28.4846 51.5237L29.5708 50.9369L30.0461 51.8167ZM33.9579 52.4635L32.853 51.8517L33.3374 50.9768L34.4423 51.5886L33.9579 52.4635ZM27.8737 52.9903L26.7875 53.5771L26.3122 52.6973L27.3984 52.1105L27.8737 52.9903ZM36.1678 53.687L35.0629 53.0752L35.5473 52.2004L36.6522 52.8122L36.1678 53.687ZM25.7013 54.1639L24.6151 54.7507L24.1398 53.8709L25.226 53.2841L25.7013 54.1639ZM38.3777 54.9106L37.2728 54.2988L37.7571 53.4239L38.8621 54.0357L38.3777 54.9106ZM23.5289 55.3375L22.4427 55.9243L21.9674 55.0445L23.0536 54.4577L23.5289 55.3375ZM40.5876 56.1341L39.4826 55.5223L39.967 54.6475L41.0719 55.2592L40.5876 56.1341ZM21.3565 56.5111L20.2703 57.0979L19.795 56.2181L20.8812 55.6313L21.3565 56.5111ZM42.7974 57.3576L41.6925 56.7459L42.1769 55.871L43.2818 56.4828L42.7974 57.3576ZM19.1841 57.6847L18.641 57.9781L18.1657 57.0983L18.7088 56.8049L19.1841 57.6847ZM44.4548 58.2753L43.9024 57.9694L44.3867 57.0946L44.9392 57.4004L44.4548 58.2753Z" fill="#DD2B1C"/>
<path fill-rule="evenodd" clip-rule="evenodd" d="M44.1992 23.5547L44.2011 23.8376L31.9381 30.4195L31.4449 29.5547L43.6061 23.0224L44.2011 23.3115L44.1992 23.5547Z" fill="white"/>
<path fill-rule="evenodd" clip-rule="evenodd" d="M19.3835 23.0032L31.4449 29.5547L30.9381 30.4174L18.9074 23.8657V23.2358L19.3835 23.0032Z" fill="white"/>
<path fill-rule="evenodd" clip-rule="evenodd" d="M31.4413 16L45.2011 22.6856V42.1078L31.4425 49.1037L17.9074 42.2584V22.6114L31.4413 16ZM31.4425 17.1124L18.9074 23.2358V41.6435L31.4413 47.9825L44.2011 41.4944V23.8376V23.3115L43.6061 23.0224L31.4425 17.1124Z" fill="white"/>
<path fill-rule="evenodd" clip-rule="evenodd" d="M30.9499 47.734L30.9381 30.4174L31.4449 29.5547L31.9381 30.4195V47.7299L31.444 47.9811L30.9499 47.734Z" fill="white"/>
<path fill-rule="evenodd" clip-rule="evenodd" d="M62.9513 68.5226H0.200586V67.5226H62.9513V68.5226Z" fill="white"/>
</svg>
