<svg width="40" height="40" viewBox="0 0 40 40" fill="none" xmlns="http://www.w3.org/2000/svg">
<path d="M18.707 12.4434V15.8273H19.2626V12.4434H18.707Z" fill="#DD2B1C"/>
<path d="M20.7896 12.4434V15.8273H21.3451V12.4434H20.7896Z" fill="#DD2B1C"/>
<path d="M19.7478 11.2457V13.6925H20.3034V11.2457H19.7478Z" fill="#110101"/>
<path d="M19.7478 17.0259V14.5791H20.3034V17.0259H19.7478Z" fill="#110101"/>
<path fill-rule="evenodd" clip-rule="evenodd" d="M20.0257 8.77734L39.7218 13.3713V31.1015H0.277344V13.3712L20.0257 8.77734ZM0.832899 13.8124V30.5459H6.10824V19.4054H17.7526V30.5459H21.8824V19.4054H33.5788V30.5459H39.1662V13.8122L20.0255 9.34777L0.832899 13.8124ZM33.0233 30.5459V29.1754H22.438V30.5459H33.0233ZM33.0233 27.3525V28.6198H22.438V27.3525H33.0233ZM33.0233 26.7969V25.5296H22.438V26.7969H33.0233ZM33.0233 23.711V24.974H22.438V23.711H33.0233ZM33.0233 23.1554V21.8881H22.438V23.1554H33.0233ZM33.0233 19.961V21.3325H22.438V19.961H33.0233ZM17.197 30.5459H6.66379V29.1754H17.197V30.5459ZM17.197 28.6198V27.3525H6.66379V28.6198H17.197ZM17.197 25.5296V26.7969H6.66379V25.5296H17.197ZM17.197 24.974V23.711H6.66379V24.974H17.197ZM17.197 21.8881V23.1554H6.66379V21.8881H17.197ZM17.197 21.3325V19.961H6.66379V21.3325H17.197Z" fill="#110101"/>
</svg>
