<svg width="40" height="40" viewBox="0 0 40 40" fill="none" xmlns="http://www.w3.org/2000/svg">
<path fill-rule="evenodd" clip-rule="evenodd" d="M12.6523 11.8184H30.5968V28.7628H12.6523V11.8184ZM13.2079 12.3739V14.2099H30.0412V12.3739H13.2079ZM13.2079 25.9286V14.7654H14.819V25.9286H13.2079ZM15.3745 25.9286H20.3745V14.7654H15.3745V25.9286ZM20.9301 25.9286H22.5967V14.7654H20.9301V25.9286ZM27.8745 25.9286H23.1523V14.7654H27.8745V25.9286ZM28.4301 25.9286V14.7654H30.0412V25.9286H28.4301ZM13.2079 26.4842V28.2072H30.0412V26.4842H13.2079Z" fill="#DD2B1C"/>
<path fill-rule="evenodd" clip-rule="evenodd" d="M3.45834 4.72266C3.70551 4.72266 3.94104 4.82641 4.12698 5.01235L7.65278 8.53815V28.2079H37.3193V32.2079H35.7363C35.8614 32.4978 35.9307 32.8174 35.9307 33.1532C35.9307 34.4726 34.8611 35.5421 33.5418 35.5421C32.2224 35.5421 31.1529 34.4726 31.1529 33.1532C31.1529 32.8181 31.2219 32.4991 31.3465 32.2096H11.8482C11.9728 32.4991 12.0418 32.8181 12.0418 33.1532C12.0418 34.4726 10.9722 35.5421 9.65288 35.5421C8.33353 35.5421 7.264 34.4726 7.264 33.1532C7.264 32.8174 7.33328 32.4978 7.45833 32.2079H5.65267V28.2079H5.70834V9.32383L2.78969 6.40519C2.40344 6.01893 2.40344 5.39861 2.78969 5.01235C2.97563 4.82641 3.21116 4.72266 3.45834 4.72266ZM31.6817 31.6541C32.1196 31.1114 32.7902 30.7643 33.5418 30.7643C34.2926 30.7643 34.9625 31.1107 35.4004 31.6523H36.7638V28.7635H7.65278V28.8199H6.20822V31.6523H7.79424C8.23217 31.1107 8.90208 30.7643 9.65288 30.7643C10.4045 30.7643 11.075 31.1114 11.5129 31.6541H31.6817ZM7.09723 8.76827V28.2079H6.26389V9.09371L3.18253 6.01235C3.01323 5.84305 3.01323 5.57448 3.18253 5.40519C3.27437 5.31335 3.37218 5.27821 3.45834 5.27821C3.5445 5.27821 3.64231 5.31335 3.73414 5.40519L7.09723 8.76827ZM9.65288 31.3199C8.64036 31.3199 7.81955 32.1407 7.81955 33.1532C7.81955 34.1657 8.64036 34.9865 9.65288 34.9865C10.6654 34.9865 11.4862 34.1657 11.4862 33.1532C11.4862 32.1407 10.6654 31.3199 9.65288 31.3199ZM31.7084 33.1532C31.7084 32.1407 32.5292 31.3199 33.5418 31.3199C34.5543 31.3199 35.3751 32.1407 35.3751 33.1532C35.3751 34.1657 34.5543 34.9865 33.5418 34.9865C32.5292 34.9865 31.7084 34.1657 31.7084 33.1532Z" fill="#110101"/>
</svg>
