<svg width="40" height="40" viewBox="0 0 40 40" fill="none" xmlns="http://www.w3.org/2000/svg">
<g clip-path="url(#clip0_5913_341042)">
<path d="M12.5525 13.4852H24.3846V12.9297H12.5525V13.4852Z" fill="#DD2B1C"/>
<path d="M4.55469 15.2908H23.0926L19.1081 18.7472L19.4721 19.1669L24.5809 14.7352H4.55469V15.2908Z" fill="#DD2B1C"/>
<path fill-rule="evenodd" clip-rule="evenodd" d="M0.277344 10.4121H27.017V24.3227H27.9406V12.7645H37.7265L39.9997 19.1294V26.3026H37.2534C37.2582 26.374 37.2606 26.4459 37.2606 26.5185C37.2606 28.2753 35.8364 29.6995 34.0796 29.6995C32.3227 29.6995 30.8985 28.2753 30.8985 26.5185C30.8985 26.4457 30.901 26.3735 30.9058 26.3019H16.3281C16.3329 26.3735 16.3353 26.4457 16.3353 26.5185C16.3353 28.2753 14.9111 29.6995 13.1543 29.6995C11.3975 29.6995 9.97325 28.2753 9.97325 26.5185C9.97325 26.4457 9.9757 26.3735 9.98051 26.3019H8.87826C8.88307 26.3735 8.88552 26.4457 8.88552 26.5185C8.88552 28.2753 7.46132 29.6995 5.70448 29.6995C3.94764 29.6995 2.52344 28.2753 2.52344 26.5185C2.52344 26.447 2.5258 26.376 2.53045 26.3057H0.277344V10.4121ZM27.9406 24.8783H27.017V24.8814H15.8823C16.042 25.147 16.164 25.4377 16.241 25.7463H27.9406V24.8783ZM30.9929 25.7463C31.338 24.3626 32.5891 23.3375 34.0796 23.3375C35.5704 23.3375 36.8217 24.363 37.1664 25.7471H39.4441V19.8387H36.5994C34.9304 19.8387 33.501 18.6461 33.2035 16.9804L33.2031 16.9779L32.5849 13.3201H28.4962V25.7463H30.9929ZM39.4441 19.2256V19.2832H36.5994C35.2012 19.2832 34.0015 18.2853 33.7507 16.884L33.1483 13.3201H37.335L39.4441 19.2256ZM26.4615 24.3259H15.4589C14.8795 23.717 14.0612 23.3375 13.1543 23.3375C12.2204 23.3375 11.3805 23.7399 10.7986 24.3808V24.3227H8.00611C7.42682 23.7157 6.60982 23.3375 5.70448 23.3375C4.79914 23.3375 3.98214 23.7157 3.40284 24.3227H0.832899V10.9677H26.4615V24.3259ZM8.43058 24.8783H10.4282C10.2676 25.1446 10.1449 25.4365 10.0676 25.7463H8.79115C8.71389 25.4365 8.59121 25.1446 8.43058 24.8783ZM2.61686 25.7501C2.69407 25.4389 2.81709 25.1457 2.97837 24.8783H0.832899V25.7501H2.61686ZM3.07899 26.5185C3.07899 25.0685 4.25446 23.893 5.70448 23.893C7.1545 23.893 8.32996 25.0685 8.32996 26.5185C8.32996 27.9685 7.1545 29.144 5.70448 29.144C4.25446 29.144 3.07899 27.9685 3.07899 26.5185ZM13.1543 23.893C11.7043 23.893 10.5288 25.0685 10.5288 26.5185C10.5288 27.9685 11.7043 29.144 13.1543 29.144C14.6043 29.144 15.7798 27.9685 15.7798 26.5185C15.7798 25.0685 14.6043 23.893 13.1543 23.893ZM31.4541 26.5185C31.4541 25.0685 32.6296 23.893 34.0796 23.893C35.5296 23.893 36.7051 25.0685 36.7051 26.5185C36.7051 27.9685 35.5296 29.144 34.0796 29.144C32.6296 29.144 31.4541 27.9685 31.4541 26.5185Z" fill="#110101"/>
</g>
<defs>
<clipPath id="clip0_5913_341042">
<rect width="40" height="40" fill="white"/>
</clipPath>
</defs>
</svg>
