<svg width="40" height="40" viewBox="0 0 40 40" fill="none" xmlns="http://www.w3.org/2000/svg">
<path d="M19.7457 13.5325V18.3499H20.3013V13.5325L38.4161 17.5833V18.1583H38.9717V17.1383L20.3013 12.9632V10.2344H19.7457V12.9632L1.0752 17.1383V18.1583H1.63075V17.5833L19.7457 13.5325Z" fill="#DD2B1C"/>
<path d="M20.3007 7.82318V6.38867H19.7451V8.35523H20.0229C20.6201 8.35523 21.1055 8.84071 21.1055 9.43786C21.1055 10.035 20.6201 10.5205 20.0229 10.5205C19.4257 10.5205 18.9403 10.035 18.9403 9.43786H18.3847C18.3847 10.3418 19.1189 11.076 20.0229 11.076C20.9269 11.076 21.6611 10.3418 21.6611 9.43786C21.6611 8.62855 21.0726 7.95532 20.3007 7.82318Z" fill="#110101"/>
<path fill-rule="evenodd" clip-rule="evenodd" d="M5.20302 20.3253H7.2128V31.295H5.20302V20.3253ZM5.75857 20.8809V30.7395H6.65725V20.8809H5.75857Z" fill="#110101"/>
<path fill-rule="evenodd" clip-rule="evenodd" d="M10.5977 20.3253V31.295H12.6075V20.3253H10.5977ZM11.1533 30.7395V20.8809H12.0519V30.7395H11.1533Z" fill="#110101"/>
<path fill-rule="evenodd" clip-rule="evenodd" d="M16.0393 20.3253H18.0491V31.295H16.0393V20.3253ZM16.5949 20.8809V30.7395H17.4936V20.8809H16.5949Z" fill="#110101"/>
<path fill-rule="evenodd" clip-rule="evenodd" d="M21.434 20.3253V31.295H23.4438V20.3253H21.434ZM21.9896 30.7395V20.8809H22.8883V30.7395H21.9896Z" fill="#110101"/>
<path fill-rule="evenodd" clip-rule="evenodd" d="M26.8759 20.3253H28.8857V31.295H26.8759V20.3253ZM27.4315 20.8809V30.7395H28.3302V20.8809H27.4315Z" fill="#110101"/>
<path fill-rule="evenodd" clip-rule="evenodd" d="M32.2703 20.3253V31.295H34.2801V20.3253H32.2703ZM32.8259 30.7395V20.8809H33.7246V30.7395H32.8259Z" fill="#110101"/>
<path fill-rule="evenodd" clip-rule="evenodd" d="M37.6181 18.0684H2.38096V17.8817H0.277344V33.777H2.38096V33.5458H37.6181V33.777H39.7217V17.8817H37.6181V18.0684ZM37.6181 18.6239H2.38096V32.9902H37.6181V18.6239ZM0.832899 18.4373V33.2215H1.8254V18.4373H0.832899ZM38.1737 33.2215V18.4373H39.1662V33.2215H38.1737Z" fill="#110101"/>
</svg>
