<svg xmlns="http://www.w3.org/2000/svg" xmlns:xlink="http://www.w3.org/1999/xlink"><defs>
        <clipPath id="clip0_3502_77607">
        <rect width="16" height="16"/>
        </clipPath>
        
        <clipPath id="clip0_3555_1725">
        <rect width="24" height="24" fill="white" transform="translate(0.5)"/>
        </clipPath>
        </defs><symbol id="svg-sprite">

    <symbol id="arrow-se" viewBox="0 0 16 16">
        <path fill-rule="evenodd" clip-rule="evenodd" d="M16 0v16H0v-2h12.582L.105 1.524 1.52.109 14 12.59V0h2z"/>
    </symbol>

    <symbol id="info" viewBox="0 0 4 18">
        <path d="M0 6h4v12H0zM0 4h4V0H0z"/>
    </symbol>

    <symbol id="chevron-n" viewBox="0 0 16 10">
        <path fill-rule="evenodd" d="M8.032 2.843l6.518 6.519 1.415-1.414-6.519-6.519.002-.001L8.033.014l-.001.001-.01-.01-1.415 1.414.01.01L.069 7.98l1.414 1.414 6.55-6.55z" clip-rule="evenodd"/>
    </symbol>

    <symbol id="award" viewBox="0 0 32 32">
        <path fill-rule="evenodd" d="M16.633 1.336l3.634 3.95 5.118.8-.8 5.275 2.545 4.77-4.612 2.544-2.07 4.935-4.934-2.069-4.892 1.376.996 2.683.973-1.62 2.287 1.371-3.827 6.379-2.328-6.266-7.371 1.005 4.002-7.624 2.361 1.24-1.597 3.043 4.176-.57-1.315-4.675-4.302-3.028 3.033-4.31-.318-5.397 5.272-.32 3.969-3.492zm-.197 3.725L13.74 7.435l-3.529.214.216 3.67-2.034 2.89 2.898 2.039.967 3.44 3.43-.966 3.334 1.398 1.397-3.332 3.122-1.722-1.723-3.23.534-3.525-3.416-.534-2.499-2.716z" clip-rule="evenodd"/>
        <path d="M26.144 19.305l3.638 7.85-6.86-1.373-2.693 6.106-3.413-6.611 2.37-1.223.854 1.655 1.307-2.961 3.807.761-1.43-3.083 2.42-1.121z"/>
    </symbol>

    <symbol id="book" viewBox="0 0 32 31">
        <path d="M13.333 10.667h-8V8h8v2.667zM5.333 16h8v-2.667h-8V16zM13.333 21.333h-8v-2.666h8v2.666zM18.667 16h8v-2.667h-8V16zM26.667 21.333h-8v-2.666h8v2.666zM18.667 10.667h8V8h-8v2.667z"/>
        <path fill-rule="evenodd" d="M0 0h13.333v1.333c0 .147.064.398.704.68.62.273 1.426.387 1.963.387.613 0 1.412-.117 2.004-.383.591-.265.663-.506.663-.684V0H32v28.533H21.038c-.436.906-1.279 1.47-2.001 1.787-1.046.46-2.24.613-3.037.613-.797 0-1.99-.152-3.037-.613-.722-.317-1.565-.881-2.001-1.787H0V0zm2.667 2.667v23.2h10.666V27.2c0 .147.064.398.704.68.62.273 1.426.387 1.963.387.537 0 1.343-.114 1.963-.387.64-.282.704-.533.704-.68v-1.333h10.666v-23.2h-8.288c-.417.888-1.22 1.456-1.949 1.783-1.04.467-2.242.617-3.096.617-.797 0-1.99-.153-3.037-.613-.722-.318-1.565-.882-2.001-1.787H2.667z" clip-rule="evenodd"/>
    </symbol>

    <symbol id="document" viewBox="0 0 32 32">
        <path d="M24.001 26.667h-16V24h16v2.667zM8.001 21.333h16v-2.666h-16v2.666zM24.001 16h-16v-2.667h16V16zM8.001 8h9.334V5.333H8V8z"/>
        <path fill-rule="evenodd" d="M2.668 0H23.22l6.115 6.114V32H2.668V0zm2.667 2.667v26.666h21.333V7.22l-4.552-4.552H5.335z" clip-rule="evenodd"/>
    </symbol>

    <symbol id="information" viewBox="0 0 33 32">
        <path d="M17.833 6.667v2.666h-2.666V6.667h2.666zM15.167 20v-5.333H12.5V12h5.333v8h4v2.667H11.167V20h4z"/>
        <path fill-rule="evenodd" d="M.5 16c0-8.8 7.2-16 16-16s16 7.2 16 16-7.2 16-16 16-16-7.2-16-16zm29.333 0c0-7.333-6-13.333-13.333-13.333S3.167 8.667 3.167 16s6 13.333 13.333 13.333 13.333-6 13.333-13.333z" clip-rule="evenodd"/>
    </symbol>

    <symbol id="list" viewBox="0 0 21 18">
        <path d="M20.6.5h-13v2h13v-2zM.6 5.5h4v2h-4v-2zM7.6 5.5h13v2h-13v-2zM.6.5h4v2h-4v-2zM20.6 10.5h-13v2h13v-2zM.6 10.5h4v2h-4v-2zM20.6 15.5h-13v2h13v-2zM.6 15.5h4v2h-4v-2z"/>
    </symbol>

    <symbol id="cross" viewBox="0 0 24 24">
        <path stroke-linecap="square" stroke-width="2" d="M17.656 17.657L6.343 6.343M17.657 6.343L6.344 17.657"/>
    </symbol>

    <symbol id="check" viewBox="0 0 14 11">
        <path stroke-width="2" d="M1 4.25l4.5 4.5 7.5-7.5"/>
    </symbol>
  
    <symbol id="videoPlay" viewBox="0 0 28 35" fill="none" xmlns="http://www.w3.org/2000/svg">
    <path d="M2.66797 3.66602V30.3327L24.0013 16.5674L2.66797 3.66602Z" stroke-width="4" stroke-miterlimit="10"/>
    </symbol>
    <symbol id="abouticon" viewBox="0 0 24 24" fill="none" xmlns="http://www.w3.org/2000/svg">
    <path d="M13 12H11V7H13V12Z" fill="#DD2B1C"/>
    <path fill-rule="evenodd" clip-rule="evenodd" d="M10.3333 1C9.02881 1 7.92354 1.71306 7.17917 2.70556C6.43419 3.69886 6 5.02491 6 6.44444V17.5556C6 18.9751 6.43419 20.3011 7.17917 21.2944C7.92354 22.2869 9.02881 23 10.3333 23H13.6667C14.9712 23 16.0765 22.2869 16.8208 21.2944C17.5658 20.3011 18 18.9751 18 17.5556V6.44444C18 5.02491 17.5658 3.69886 16.8208 2.70556C16.0765 1.71306 14.9712 1 13.6667 1H10.3333ZM8 6.44444C8 5.41954 8.31581 4.52337 8.77917 3.90556C9.24313 3.28694 9.80452 3 10.3333 3H13.6667C14.1955 3 14.7569 3.28694 15.2208 3.90556C15.6842 4.52337 16 5.41954 16 6.44444V17.5556C16 18.5805 15.6842 19.4766 15.2208 20.0944C14.7569 20.7131 14.1955 21 13.6667 21H10.3333C9.80452 21 9.24313 20.7131 8.77917 20.0944C8.31581 19.4766 8 18.5805 8 17.5556V6.44444Z" fill="#DD2B1C"/>
    </symbol>
    <symbol id="onPrint" viewBox="0 0 24 24" fill="none" xmlns="http://www.w3.org/2000/svg">
    <path fill-rule="evenodd" clip-rule="evenodd" d="M18 2V6H22V18H18V21H6V18H2V6H6V2H18ZM16 6V4H8V6H16ZM8 19H16V16H8V19ZM18 14V16H20V8H4V16H6V14H18Z" fill="#4F5659" fill-opacity="0.4"/>
    </symbol>
 
    <symbol id="phone" viewBox="0 0 16 16" xmlns="http://www.w3.org/2000/svg">
    <path stroke="#fff" d="M13.9996 10.9843V12.7908C14.0003 12.9585 13.9659 13.1245 13.8986 13.2781C13.8313 13.4318 13.7325 13.5697 13.6087 13.6831C13.4849 13.7965 13.3387 13.8828 13.1795 13.9365C13.0203 13.9903 12.8517 14.0102 12.6843 13.9951C10.8277 13.7938 9.04426 13.1606 7.47734 12.1465C6.01953 11.222 4.78356 9.98844 3.8572 8.53351C2.83752 6.96259 2.20294 5.17405 2.0049 3.31277C1.98982 3.14625 2.00965 2.97843 2.06312 2.81998C2.11659 2.66153 2.20254 2.51592 2.31548 2.39244C2.42843 2.26896 2.5659 2.1703 2.71915 2.10274C2.87239 2.03519 3.03805 2.00022 3.20558 2.00006H5.01565C5.30846 1.99718 5.59233 2.10067 5.81435 2.29122C6.03637 2.48178 6.18138 2.74641 6.22236 3.03578C6.29876 3.61389 6.44044 4.18152 6.64471 4.72785C6.72589 4.94338 6.74346 5.17761 6.69534 5.4028C6.64722 5.62799 6.53542 5.83469 6.3732 5.99841L5.87986 6.38703C6.73877 7.89457 8.16556 9.31869 9.67609 10.1759L9.99334 9.61138C10.1574 9.44948 10.3645 9.33791 10.5901 9.28988C10.8158 9.24185 11.0505 9.25939 11.2664 9.34041C11.8138 9.54427 12.3826 9.68567 12.9619 9.76192C13.2549 9.80318 13.5226 9.95052 13.714 10.1759C13.9053 10.4013 14.007 10.689 13.9996 10.9843Z" stroke-width="1.33333" stroke-linecap="round"/>
    </symbol>
    <symbol id="mail" viewBox="0 0 16 16" xmlns="http://www.w3.org/2000/svg">
    <path fill-rule="evenodd" clip-rule="evenodd" d="M0.666748 2.66602V13.3327H15.3334V2.66602H0.666748ZM2.00008 4.82959V11.9993H14.0001V4.82959L8.00008 10.2296L2.00008 4.82959ZM12.9294 3.99935H3.07072L8.00008 8.43577L12.9294 3.99935Z"/>
    </symbol>
    <symbol id="burger" viewBox="0 0 16 16" xmlns="http://www.w3.org/2000/svg">
        <path d="M14.6666 5.33333V4L1.33325 4L1.33325 5.33333H14.6666Z"/>
        <path d="M14.6666 8.66667V7.33333H1.33325L1.33325 8.66667H14.6666Z"/>
        <path d="M14.6666 12V10.6667H1.33325L1.33325 12H14.6666Z"/>
    </symbol>
    <symbol id="loope" viewBox="0 0 16 16" xmlns="http://www.w3.org/2000/svg">
        <path fill-rule="evenodd" clip-rule="evenodd" d="M0 6.33333C0 2.83553 2.83553 0 6.33333 0C9.83114 0 12.6667 2.83553 12.6667 6.33333C12.6667 7.8421 12.1391 9.22764 11.2584 10.3155L15.1381 14.1953L14.1953 15.1381L10.3155 11.2584C9.22764 12.1391 7.8421 12.6667 6.33333 12.6667C2.83553 12.6667 0 9.83114 0 6.33333ZM10.2233 9.47491L9.47491 10.2233C8.61639 10.9176 7.52341 11.3333 6.33333 11.3333C3.57191 11.3333 1.33333 9.09476 1.33333 6.33333C1.33333 3.57191 3.57191 1.33333 6.33333 1.33333C9.09476 1.33333 11.3333 3.57191 11.3333 6.33333C11.3333 7.52341 10.9176 8.61639 10.2233 9.47491Z"/>
    </symbol>
    <symbol id="productIcon" viewBox="0 0 16 16" xmlns="http://www.w3.org/2000/svg">
        <g clip-path="url(#clip0_3502_77607)">
        <path d="M5.13333 8.89974L7.06667 10.8331L3.26667 14.6331L1.33333 12.6997L5.13333 8.89974ZM5.13333 7.56641C4.8 7.56641 4.46667 7.69974 4.2 7.96641L0.4 11.7664C-0.133333 12.2997 -0.133333 13.0997 0.4 13.6331L2.33333 15.5664C2.6 15.8331 2.93333 15.9664 3.26667 15.9664C3.6 15.9664 3.93333 15.8331 4.2 15.5664L8 11.7664C8.53333 11.2331 8.53333 10.4331 8 9.89974L6.06667 7.96641C5.8 7.69974 5.46667 7.56641 5.13333 7.56641Z"/>
        <path d="M12.5333 1.36654L14.4667 3.29987L10.6 7.16654L8.66667 5.2332L12.5333 1.36654C12.4667 1.36654 12.4667 1.36654 12.5333 1.36654ZM12.5333 0.0332031C12.2 0.0332031 11.8667 0.166536 11.6 0.433203L7.73333 4.29987C7.2 4.8332 7.2 5.6332 7.73333 6.16654L9.66667 8.09987C9.93333 8.36654 10.2667 8.49987 10.6 8.49987C10.9333 8.49987 11.2667 8.36654 11.5333 8.09987L15.4 4.2332C15.9333 3.69987 15.9333 2.89987 15.4 2.36654L13.4667 0.433203C13.2 0.166536 12.8667 0.0332031 12.5333 0.0332031Z"/>
        <path d="M4.28706 10.7909L5.22986 11.7337L11.4052 5.55838L10.4624 4.61558L4.28706 10.7909Z"/>
        </g>
        
    </symbol>
    <symbol id="orderList" viewBox="0 0 16 16" xmlns="http://www.w3.org/2000/svg">
        <path fill-rule="evenodd" clip-rule="evenodd" d="M0 0V16H16V0H0ZM14.6667 1.33333V14.6667H1.33333V1.33333H4.19999V7.0082L7.99999 5.39118L11.8 7.0082V1.33333H14.6667ZM10.4667 1.33333H5.53333V4.9918L7.99999 3.94215L10.4667 4.9918V1.33333Z"/>
    </symbol>

    <symbol id="triangle" viewBox="0 0 13 12" xmlns="http://www.w3.org/2000/svg">
        <path fill-rule="evenodd" clip-rule="evenodd" d="M6.66181 7.41133L1.7735 2.52301L0.709753 3.58676L5.59807 8.47507L5.59758 8.47556L6.65824 9.53622L6.65873 9.53573L6.66697 9.54397L7.73071 8.48022L7.72247 8.47199L12.6324 3.56207L11.5717 2.50141L6.66181 7.41133Z" fill-opacity="0.4"/>
    </symbol>

    <symbol id="buyer" viewBox="0 0 24 21" xmlns="http://www.w3.org/2000/svg">
        <path d="M20.4 2H22.6V0H20.4V2Z"/>
        <path fill-rule="evenodd" clip-rule="evenodd" d="M4.20001 6.8C4.20001 3.6 6.80001 1 10 1C13.2 1 15.8 3.6 15.8 6.8C15.8 10 13.2 12.6 10 12.6C6.80001 12.6 4.20001 10 4.20001 6.8ZM13.8 6.8C13.8 4.7 12.1 3 10 3C7.90001 3 6.20001 4.7 6.20001 6.8C6.20001 8.9 7.90001 10.6 10 10.6C12.1 10.6 13.8 8.9 13.8 6.8Z"/>
        <path d="M5.06889 12.6166L0 14.3907V21.0002H2V15.8097L4.93111 14.7838L10 17.3182L15.0807 14.7779L18 15.7267V21.0002H20V14.2737L14.9193 12.6225L10 15.0822L5.06889 12.6166Z"/>
        <path d="M20.5 8V5H19V3H22.5V8H24V10H19V8H20.5Z"/>
    </symbol>

    <symbol id="inWish" viewBox="0 0 25 24" xmlns="http://www.w3.org/2000/svg">
        <g clip-path="url(#clip0_3555_1725)">
        <path d="M17 3V8L20.5 8V6H19V3H17Z"/>
        <path fill-rule="evenodd" clip-rule="evenodd" d="M11.5 6.5C11.5 2.9 14.4 0 18 0C21.6 0 24.5 2.9 24.5 6.5C24.5 10.1 21.6 13 18 13C14.4 13 11.5 10.1 11.5 6.5ZM22.5 6.5C22.5 4 20.5 2 18 2C15.5 2 13.5 4 13.5 6.5C13.5 9 15.5 11 18 11C20.5 11 22.5 9 22.5 6.5Z"/>
        <path d="M2.5 20V4H6.5V10.5105L11.1905 8.52058L10.4095 6.67942L8.5 7.48949V4H10.5C10.6 3.3 10.7 2.6 11 2H0.5V22H22.5V12.7002C21.9 13.3002 21.2 13.8002 20.5 13.9002V20H2.5Z" fill="#DD2B1C"/>
        <path d="M9.50012 16H4.50012L4.50012 14L9.50012 14V16Z"/>
        </g>
        
        </symbol>


<symbol id="inOrder" viewBox="0 0 25 24" xmlns="http://www.w3.org/2000/svg">
<path d="M11.1374 10.3556L7.63891 6.85708L9.05311 5.44288L11.5 7.88977V1H13.5V7.99301L16.0069 5.48611L17.4211 6.90031L13.9658 10.3556L14.0028 10.3926L12.5886 11.8068L12.5516 11.7698L12.5421 11.7793L11.1279 10.3651L11.1374 10.3556Z"/>
<path d="M5.5 4V2H1.5V22H23.5V2H19.5V4H21.5V20H3.5V4H5.5Z"/>
<path d="M4.5 18H9.5L9.5 16L4.5 16L4.5 18Z"/>
</symbol>



                                                        



</symbol></svg>