<svg width="29" height="40" viewBox="0 0 29 40" fill="none" xmlns="http://www.w3.org/2000/svg">
<path fill-rule="evenodd" clip-rule="evenodd" d="M0.111328 0.555664V39.7501H28.2669V0.555664H0.111328ZM27.7113 39.1946H0.666884V1.11122H27.7113V39.1946ZM24.2392 3.44629H17.0281V4.00184H24.2392V3.44629ZM17.0281 5.4515H24.2392V6.00705H17.0281V5.4515ZM24.5114 21.9272H3.84478V26.6661H24.5114V21.9272ZM23.9559 23.955H20.267V22.4827H23.9559V23.955ZM19.7114 22.4827V23.955H4.40034V22.4827H19.7114ZM4.40034 24.5105H19.7114V26.1105H4.40034V24.5105ZM20.267 26.1105V24.5105H23.9559V26.1105H20.267ZM4.12256 13.1121H23.6837V13.6676H4.12256V13.1121ZM10.6281 17.1789H4.12256V17.7345H10.6281V17.1789ZM4.12256 15.1433H21.5892V15.6989H4.12256V15.1433Z" fill="#110101"/>
</svg>
