<svg width="40" height="40" viewBox="0 0 40 40" fill="none" xmlns="http://www.w3.org/2000/svg">
<path fill-rule="evenodd" clip-rule="evenodd" d="M6.11133 8.88867H39.3669V26.272H36.8558V28.7776H34.3502V31.2887H1.11133V13.8887H3.62244V11.3998H6.11133V8.88867ZM1.66688 30.7331H33.8113L33.7947 28.7776H3.62244V14.4442H1.66688V30.7331ZM4.17799 28.222H36.3169L36.3002 26.272H6.11133V11.9553H4.17799V28.222ZM6.66688 25.7164H38.828L38.8113 9.44423H6.66688V25.7164ZM28.889 24.3328H16.6668C15.7637 24.3587 14.8646 24.2032 14.0227 23.8755C13.1808 23.5478 12.4131 23.0545 11.7652 22.4249C11.1173 21.7953 10.6022 21.0421 10.2505 20.2099C9.89878 19.3777 9.71756 18.4834 9.71756 17.58C9.71756 16.6765 9.89878 15.7823 10.2505 14.9501C10.6022 14.1179 11.1173 13.3647 11.7652 12.7351C12.4131 12.1055 13.1808 11.6122 14.0227 11.2845C14.8646 10.9568 15.7637 10.8013 16.6668 10.8272H28.889C30.6465 10.8776 32.315 11.6112 33.5402 12.8721C34.7655 14.133 35.4509 15.8218 35.4509 17.58C35.4509 19.3381 34.7655 21.027 33.5402 22.2879C32.315 23.5488 30.6465 24.2824 28.889 24.3328ZM28.889 11.3828H16.6668C15.8374 11.3579 15.0114 11.4999 14.2378 11.8001C13.4642 12.1004 12.7588 12.5529 12.1633 13.1308C11.5678 13.7087 11.0944 14.4003 10.7711 15.1646C10.4478 15.9288 10.2812 16.7502 10.2812 17.58C10.2812 18.4098 10.4478 19.2312 10.7711 19.9954C11.0944 20.7597 11.5678 21.4513 12.1633 22.0292C12.7588 22.6071 13.4642 23.0596 14.2378 23.3599C15.0114 23.6601 15.8374 23.802 16.6668 23.7772H28.889C30.5005 23.729 32.0299 23.0549 33.1527 21.8979C34.2755 20.741 34.9035 19.1922 34.9035 17.58C34.9035 15.9678 34.2755 14.419 33.1527 13.262C32.0299 12.1051 30.5005 11.431 28.889 11.3828Z" fill="#110101"/>
<path d="M24.1279 18.3884C24.4198 18.4032 24.7117 18.3586 24.9858 18.2571C25.2599 18.1556 25.5105 17.9994 25.7223 17.798C25.9342 17.5967 26.1029 17.3543 26.2181 17.0857C26.3334 16.8171 26.3928 16.5279 26.3928 16.2356C26.3928 15.9434 26.3334 15.6541 26.2181 15.3855C26.1029 15.1169 25.9342 14.8746 25.7223 14.6732C25.5105 14.4719 25.2599 14.3157 24.9858 14.2142C24.7117 14.1127 24.4198 14.068 24.1279 14.0829H20.8668V14.6384H21.9779V17.8329H20.5557V18.3884H21.9946V19.4051H20.5557V19.9606H21.9946V21.244H22.5501V19.9606H24.2168V19.4051H22.5501V18.3884H24.1279ZM22.5279 14.6384H24.1279C24.3456 14.6256 24.5636 14.6574 24.7685 14.7318C24.9734 14.8063 25.161 14.9218 25.3197 15.0714C25.4783 15.221 25.6047 15.4014 25.6912 15.6016C25.7776 15.8018 25.8221 16.0176 25.8221 16.2356C25.8221 16.4537 25.7776 16.6694 25.6912 16.8696C25.6047 17.0698 25.4783 17.2503 25.3197 17.3998C25.161 17.5494 24.9734 17.665 24.7685 17.7395C24.5636 17.8139 24.3456 17.8457 24.1279 17.8329H22.5279V14.6384Z" fill="#DD2B1C"/>
</svg>
